<svg viewBox="0 0 500 358.3" xmlns="http://www.w3.org/2000/svg">
  <g fill="#262F3D">
    <path d="M206.9 355.7c-2.8-7.3-2.7-8.5 5-47.8 4-20.6 7.8-43.2 7.2-44-1-2.1-10.7-3.3-24.6-3.2a129 129 0 00-61.4 14.4c-9.8 4.8-13 7-26.7 19.7a135.6 135.6 0 01-18.3 15c-3.2.8-8-1.6-8.6-4.2-.3-1.3 1-2.5 4.3-3.9 2.7-1 6-3.8 7.8-6.1 1.7-2.4 5.3-6.3 8-9 5.8-6 9.3-13.3 11.3-24.3 1.6-8 1.3-18.7-.6-18.7-.4 0-4.8 2.5-9.8 5.6C65.6 270.8 40.8 285 40 284c-1.8-1.8 5.3-7 29.5-21.4 15.1-9 30.6-18.1 34.3-20.1 7.6-4.1 7.4-3.7 3.4-14.3-4-10.9-13.6-20.4-21.6-21.7-2.6-.4-5.3.1-8.7 1.6a23.6 23.6 0 01-6.7 2.3c-1.5 0-5.4-1.6-6.8-2.8-.2-.2 1.6-3 4.2-6.4 3.6-4.8 4.8-5.6 6-4.7 1.3 1 2.2.7 4.8-1.8 6.1-5.8 8-10.6 8-21 0-6.2-.5-9.7-1.6-10.9-1.8-2.2-14.4-2.3-55-.5-15.8.6-29.1 1-29.5.5-.5-.4 0-1.5.8-2.3 1-1 5.2-1.9 12.3-2.3 15.8-1 16.7-2.1 2.3-3.1-9.1-.5-12.5-1.2-12.5-2.2 0-2.3 4-2.5 21.1-1.6 12 .8 17.7 1.6 21.5 3.1 4 1.7 8.9 2.3 22 2.8a81 81 0 0017-.2c-.2-1.8-3-12.9-4.9-18a72 72 0 00-17-27.6c-8.3-8.6-10-11.8-7.6-13.8 1.3-1 3.5-.6 10.3 2.1 12.8 5 21.6 6.6 37.4 6.6 14.3 0 26.4-1.8 33.7-4.9 5.2-2.2 15.3-9 18.7-12.6 2.4-2.6 2.4-2.8.7-6.2-1-1.8-1.5-4-1.3-4.6.2-.7 1.2.4 2.3 2.3 1 1.8 2.2 3.4 2.7 3.4 2 0 24.4-28.4 28-35.6a26 26 0 002.3-17.3c-1-3.9-1-4 1.9-4 4.6 0 8.1 3.6 10.8 11a51.3 51.3 0 0015.1 21.9 61 61 0 0032.7 17.1c8.4 1.9 23 2 23.6.3.4-1.3 2.4-18.3 3.3-28.8.8-9.4 2.7-25.3 3.6-30l2.3-11.5c.6-3.8 1.6-6.8 2.1-6.8 1.7 0 2.3 11.5 1.1 18.9a1125 1125 0 00-6.1 58c1.3 1.5 24.2-9.4 33.4-15.8a89.5 89.5 0 0026.6-33.3c4.3-8 5.2-9 8.2-9.3 5.2-.6 6.3 3 4 13.5a51.4 51.4 0 004.4 37.8A50 50 0 00368 85c4 4 8 7.2 8.8 7.2 1.8 0 2.3-1 16-27.3a562.3 562.3 0 0117.4-30.9c5.4-8.4 5.5-8.4 5.9-5 .3 3.4-6.5 18.6-16.2 35.8a385.3 385.3 0 00-16.7 31.2c.9.7 15 4.7 23.4 6.5 13.5 2.9 33.6 2.7 43.8-.4 6.3-2 8.2-2.2 10.2-1.2 5.5 3 5.3 4.2-2 12a101.5 101.5 0 00-26.9 51.4c-.7 5.2-.6 5.3 1.9 4.8 1.4-.4 9.5-1.7 18.1-2.8 8.6-1.3 20.6-3.2 26.8-4.3 19.1-3.4 21.5-3.6 21.5-1.8 0 1-.4 1.9-1 2.2-1.3.9-43.4 7.7-56.6 9.3-10.1 1.2-11 1.5-11.6 3.9-1.6 6.8 6.3 22.9 19 38.2 5.2 6.2 5 6.7-6.3 7.5-9 .7-14.8 3.3-19.5 9.2-7 9-8.3 6.6 15.1 29.6 19.3 18.9 27 27.4 24.7 27.4-2.4 0-17-12.6-38-33.1l-10.6-10.1-1.7 4.2a55.2 55.2 0 00-5.2 23c0 6.5.6 9.2 3 14.3 1.8 4.1 2.5 6.8 1.9 7.4-2.2 2.2-6.6-.4-10.9-6.3-6.5-8.8-11-12.5-24.9-20.3a85 85 0 00-35.2-13c-8.8-.8-12.9 0-12.9 2.6 0 6.4 18 47.5 31.5 72a46 46 0 015.6 12c-.5.6-1.8 1-3.4 1-1.9 0-3.4-1.3-5.7-5a410 410 0 01-31.7-71.5c-1-4-2.4-7.5-2.8-7.9-.4-.2-3.1.6-5.8 1.9-7 3.3-13.5 11.1-18.2 22a41 41 0 00-4.4 18.4c-.5 10.2-1.7 13.1-5.3 13.1-2 0-3.8-1.6-7.2-6a114.8 114.8 0 00-26-24.9c-12.2-9-27.9-17.4-29.6-15.7-.5.6-1.5 3.4-2.1 6.2L222 282c-.6 2.8-2.3 13-3.8 22.7-5.2 34.5-8.4 52.4-9.6 53.5-.2.3-1-.9-1.7-2.6z"/>
    <path d="M218.8 343.1c-1.2-5-1-6.7 1-14a81 81 0 014-11.7l1.8-3.5 1 2.6c.5 1.5.6 5.6.1 9.1-.7 8-4.6 23.2-5.8 23.2-.5 0-1.5-2.6-2.1-5.7zM372 331.3a33.8 33.8 0 01-7-14c-3.2-9.3-3.5-10.9-2.3-13.7.7-1.7 1.7-3 2.4-2.8 1 .4 12.5 30 12.5 32.6 0 2.4-1.8 1.7-5.5-2zM36.3 296.3A53.5 53.5 0 0167 277.4l5.4-.7-6.4 4.5c-12 8.2-29.6 17.2-29.6 15.1zM458.7 271.4c-6-5.5-13.1-15.5-12-16.6.3-.3 2.6.9 5.2 2.6 4.5 3 9.4 8.3 14.7 16l2.4 3.5h-2.3c-1.3 0-4.8-2.5-8-5.5zM465.1 157a9 9 0 01-3-1.3c-.6-.6 12.8-2.9 31-5l4.2-.5-4 2.2a50 50 0 01-28.2 4.6zM142.8 60c-3.6-7.2-6.1-12.8-5.4-12.6 1.7.6 14.9 22 14.9 24.2 0 4.2-3.5 0-9.5-11.6zM380.3 62.3c2.6-9.3 19.5-38.7 22.1-38.7 4.7 0-11.1 30.7-20 38.7l-2.8 2.6.7-2.6zM127.1 50.1a185 185 0 01-7-12.9c0-.4.6-.7 1.4-.7 1.2 0 4 4 11.4 17.5 2.3 4.2 3.1 6.6 2.4 7.4-.6.6-3.4-3.1-8.2-11.3zM412 57c0-1.8.7-4.8 1.5-6.4 1.7-3.4 8.6-9.8 10.4-9.8 2.7 0-3.3 11.6-8.6 16.5l-3.3 3.2V57zM133.6 43.4c-.5-1-.5-2-.1-2.4.2-.3.7.3 1.2 1.3.4 1 .4 2 0 2.3-.2.4-.7-.3-1.1-1.2zM270 42.2c-1-1-.9-18.5.3-24C273.4 4 275 1.6 277.3 8c.6 2 .4 6.6-.8 15-2.6 17.3-4.1 21.7-6.5 19.3z"/>
  </g>
  <g fill="#FFDB54">
    <path d="M272.8 286.9a292 292 0 00-15.9-13 134 134 0 00-27-14.4c-1.3-.3-2.4-1.8-2.8-3.8l-.7-3.5-3.6 2.2c-3.5 2-3.9 2-11.6.4a89.4 89.4 0 00-23.5-1.2c-20.1.7-32.2 3.5-57.2 13.5a98.4 98.4 0 01-9.2 3.4c-.8 0-.5-30.6.4-33 .2-.7 2.9-2.6 5.9-4 2.9-1.6 5.3-3.3 5.3-3.8 0-1.4-.2-1.4-6.4 1-3 1.2-6 2.2-6.8 2.2-.7 0-3.2-3.6-5.4-8.2A49.6 49.6 0 0093.5 203a23.5 23.5 0 01-5.6-3 51 51 0 012.5-4.9 43.3 43.3 0 005.7-25l-.5-7.8 5.5-1 5.5-.9-5.9-1c-5.7-1-5.8-1.1-6.7-5.3-3-13.8-10.1-30-16.6-37.9-2-2.5-3.5-5-3-5.2.3-.4 4.3 0 8.8.8a184 184 0 0048.7-.5 67 67 0 0029-14.3c7-6.2 21-23.4 30.4-37 4-5.8 7.6-10.5 8-10.5.4 0 2.6 2.4 5 5.4a87.6 87.6 0 0056.9 30.5c3.5.3 7.7 1 9.4 1.2l3 .7L273 98c-.4 6.1-.3 13 .1 15.2 1.3 7 3.3 2 4.2-10 1-16.5.8-16.3 10.8-19.3A95.4 95.4 0 00333 57c3.9-4.2 7.3-7.2 7.5-6.8l4.4 11c5 12.7 8.8 18.6 20 30.6l8.9 9.3-2.3 4.8c-2.8 5.7-2.8 5.8-.8 5.8.8 0 3.3-2.1 5.4-4.7l3.8-4.7 8.8 2.6c13.4 3.8 29.4 6.7 42.6 7.5 6.5.4 12 1 12 1.3l-5.5 9.8a133 133 0 00-14.9 35.6l-3.5 12.5 2.9 8.4A94.2 94.2 0 00434 204c2.7 4.2 4.5 8 4 8.3-.5.4-4.1 2.2-8 3.8a49.5 49.5 0 00-13.6 8.8 53.2 53.2 0 01-7 5.8c-.4 0-2.7-1.8-5-4-2.4-2-4.6-3.7-4.9-3.3-.3.3 1.2 2.7 3.3 5.4 2 2.7 3.7 5.7 3.7 6.7 0 2.2-8.6 33-9.4 34-.5.4-6.6-2.5-13.7-6.3-17-9.5-25.4-12.8-39-15.6-9.8-2-12.1-2-18-1-8.9 1.7-14.5 4.2-22.6 10.2-7.4 5.5-9.9 9.5-17 27.8-2.1 5.7-4.1 10.5-4.2 10.5-.3 0-4.7-3.8-10-8.3zM374.6 230a20 20 0 006.3-12.4c0-3-4-6.8-8.3-7.9-5.2-1.3-7.7.3-11.2 7.4-3.2 6.6-3.3 6.9-1.7 10.8 2.8 6.6 9.3 7.6 15 2.1zm-195.2-5a75 75 0 0013.1-8.2c3.7-2.9 7-5.4 7.5-5.4.4 0 3.7 1.8 7 3.8 8.6 5.3 17.4 8 24.9 8 7.8 0 11.2-1.4 21.1-8.5 8.6-6.4 9.8-6.3 9.8 1.2 0 4.4 2 9.5 3.5 9.5.7 0 9.3-2.8 19.1-6.1l17.9-6.1 6.3 1.6c17.3 4.2 34.3-.9 42.2-12.4 4.7-7 5.6-10.6 4-16a25.6 25.6 0 00-13.6-15.6c-7.6-4.1-9-6.2-7.4-10.8.7-1.8 1.5-3.3 1.8-3.3.5 0 3.6 1.5 7 3.2 4.7 2.6 6.6 3 8.2 2.3 2.2-1.3 8.6-9.6 11.4-15 1.7-3.5 1.7-4-.2-7.9-2.4-5.5-9.5-11.9-15.7-14.3-4.3-1.6-6.7-1.8-14.5-1-13.9 1.1-15.2 1-23.3-2.2a52 52 0 00-18.5-3.4c-13.2-.8-19 .8-28.7 7.8l-6.7 4.7-8-2.9c-6.3-2.1-10-2.7-18-2.9-12 0-16.3 1.5-25.5 9.6l-5.5 4.8-8.5-4c-8.1-4-8.7-4-20.2-4s-12 0-19.9 4c-19.4 9.6-31.9 32.6-30.8 56.6.7 16.9 12 29.9 30 34.9 9 2.5 22.5 1.6 30.2-2zM391 201.2c.8-.3 2.4-3 3.4-6a78 78 0 014.2-10c1.4-2.3 7.3-13 13.2-23.8 6-10.7 11.1-20.7 11.6-22.3.8-3.3-.8-5.4-6.5-8.3-4-2-20.7-5.4-22.2-4.5-.4.2-2 3.5-3.4 7.1-2.3 5.7-13.8 31.2-24 53.1-3.2 7.1-3.3 10.7-.2 11.7 2 .6 17 3.1 21 3.6.6 0 1.9-.2 2.9-.6z"/>
    <path d="M158.7 182c-1-1.3-1-2.4 0-5.7a21 21 0 012.1-4.9c1.1-1.2 5.8 1 7.3 3.7 1.1 1.7.9 2.4-2 5.2-3.9 3.6-5.5 4-7.4 1.6zM231.7 168.8c0-2.4 1.8-5.2 2.8-4.4 1 1.1-.5 6.3-1.7 6.3-.7 0-1.1-1-1.1-1.9zM296.8 193.5c-.4-3.4-1-7.7-1.4-9.5-.5-3-.3-3.5 3.8-5.3 2.5-1 5-2 5.8-2 2.2 0 16.8 10.3 16.8 11.9 0 2.9-3.5 2.8-9.8-.6-3.6-1.8-7.1-3-8-2.6-1.4.5-2.1 2.5-4.3 11.3-1 4.6-2.2 3.5-2.9-3.2z"/>
  </g>
  <g fill="#63d2ec">
    <path d="M368 222c0-.8.7-2.3 1.5-3.4 1.2-1.5 1.6-1.6 2-.3.3.9-.3 2.4-1.5 3.4-1.6 1.4-2 1.5-2 .4zM151.7 220.8a31 31 0 01-14.6-9c-6.3-6.6-7.8-10.6-7.7-19.7.2-29.3 20.6-53.6 44.9-53.6 10.8 0 18.4 5.6 24.5 18.2 3 6.4 3.4 7.8 3.4 17.7v10.7l-4.9 8.6c-11.7 20.7-30.7 32-45.6 27zm18.5-34.3c6.5-4.4 8.9-6.8 8.9-9.2 0-1-2.4-4.6-5.2-7.8a45.7 45.7 0 01-5.9-7.6c-.4-1.4-1.8-2-4.4-2-7.2 0-14.6 9.5-14.6 18.5.1 10.8 11 15.1 21.2 8.1zM219.1 214c-4.6-1.7-12.1-8.9-12.1-11.7 0-1.4.6-3.1 3.3-9.6 4.6-11.2 4.2-22.7-1.4-36.8-2.8-7.1-2-10.3 3.9-15.8 11.5-11 32.4-10.7 42 .6 1.6 2 4.2 6.3 5.6 9.6 2.4 4.9 2.8 7.4 2.7 15.7 0 11.8-2.8 21-9.5 31.6-10 15.4-21.5 21-34.5 16.4zm19.9-35.2c5.6-3.1 8.6-12.5 5.2-16.8a19.7 19.7 0 00-12.3-6.4c-5 0-7.6 1.7-9.5 6-3 7.2-1 15.5 4.3 17.6a17 17 0 0012.3-.4zM270.9 204.5a34 34 0 01-.6-17 80 80 0 012.4-10.6c.6-1.7.8-7.5.6-12.9-.4-10-2-15-6.4-21.5-2.8-4-2.5-5.7 2-9.3 7.4-6.1 12.1-7.6 23.6-7.6 9 0 11.2.4 14.8 2.4 14.5 8 10.3 31.2-7.3 40-4.1 2.2-6 2.5-10.4 2l-5.3-.7v5.5c0 3.2.4 8.8 1 12.8.5 4 1.2 10.2 1.5 14l.7 6.7-4.6 2c-10.1 4.5-9.8 4.6-12-5.8zm25-50.2c2.5-2.9 4.5-7.5 4.5-11s-3.9-6-9.4-6c-6 0-8.9 3-8.9 9.4 0 8.6 8.4 13.2 13.8 7.6zM311.2 207.7c-3.3-1.5-3.5-1.8-2.8-5.6.4-2.3 1-4.4 1.3-4.8.2-.6 3.8-.6 7.7-.2 7.3.7 7.3.7 11.8-3.4 2.4-2.1 4.4-4.8 4.4-5.8 0-2.1-3.5-5.4-8-7.6-5.4-2.5-10.2-6.4-10.2-8.3 0-1.9 7-11 8.7-11 .5 0 1 .7 1 1.8 0 3 5.4 9.1 10 11.2 13.1 5.7 15.8 18.5 5.8 27.1-8.3 7.2-21.4 10.1-29.7 6.6zM375.8 193.5c-2.3-.8-1.6-2.8 6.6-19.3 4.4-8.7 9.7-20.2 11.9-25.5 6.3-15.5 5.6-14.5 11.4-14.5 3.2 0 5.9.6 7.4 1.9l2.2 1.8-8.8 16.1c-4.8 9-10.6 19.2-12.8 23-2.1 4-5.2 9.3-6.8 12.2-2.6 4.4-3.4 5-6.4 5-1.9 0-4-.4-4.7-.7zM342.2 151.9c-1.7-1.1-4.8-1.5-8.6-1.4l-5.9.3-.6-4.3-1.5-8.8c-.8-4.4-.8-4.5 3.2-6.1 6.6-2.8 13-2.3 18.9 1.6 6.4 4 8.3 8.6 5.9 14.2-2.4 5.8-6.4 7.4-11.4 4.5zM151.3 71.3c0-1.2.3-1.5.6-.7.4.8.2 1.7 0 2-.4.5-.7-.2-.6-1.3zM133.4 61c-.5-.8-.4-.9.4-.5 1.3.8 1.7 1.8.9 1.8-.4 0-1-.6-1.3-1.3zM286.5 6.9c0-1.2.3-1.5.7-.7.3.8.2 1.7-.1 2-.4.5-.7-.2-.6-1.3zM284.6.3c.4-.3 1-.3 1.5 0 .3.5 0 .8-.8.8-.7 0-1-.3-.7-.8z"/>
  </g>
</svg>