<svg viewBox="0 0 500 500" xmlns="http://www.w3.org/2000/svg">
  <g fill="#544e61" fill-rule="evenodd">
    <path d="M420.32 374.66l-.51-.51-.52-.72c-.3-.41-.51-.83-.51-1.03v-.3l.51-.52.52-.52-.83-.3-.51-.52.3-1.23-.81-.31-.52-.51.31-1.24-.82-.3-.52-.52.31-1.23-.82-.31-.51-.51.3-1.24-.82-.3-.51-.52.3-1.23-.82-.31-.5-.52.3-1.23-.82-.3-.52-.52.31-1.23h-1.03l-.51-1.34a8.07 8.07 0 00-.51-1.54v-1.23h-1.03l-.51-.42c-.31-.2-.52-.61-.52-1.02v-.62l-.5-.51-.52-.52-.61-1.13a8.58 8.58 0 00-2.47-1.95c-1.23-.72-3.8-.51-7.7.51a79.63 79.63 0 00-10.9 3.7c-2.88 1.24-6.47 3.7-8.22 5.66-2.06 2.36-2.98 4.62-2.98 6.88 0 1.85.72 5.55 1.64 8.32 1.13 3.3 1.44 6.79 1.13 10.8a41.07 41.07 0 01-2.87 11.1 30.74 30.74 0 01-6.07 8.83c-2.15 1.95-7.5 4.83-12.12 6.68-4.63 1.75-10.38 3.19-12.85 3.29-2.36.1-6.58-.3-9.14-.93a55.02 55.02 0 01-7.5-2.36c-1.44-.62-2.58-1.34-2.58-1.54v-.3l-.5-.52-.52-.52h-.52c-.3 0-.51-.2-.51-.3 0-.1-.72-.83-1.54-1.55l-1.54-1.23v-1.03h-1.03l-1.03-1.03-1.03-1.02h1.03v-.52c0-.3-.3-.51-.51-.51H316l-.51-.51-.3-.83-.52-.51-.2-.72-.32-.82-.51-.52-.2-.71-.31-.83-.52-.51-.2-.72-.52-.51v-2.05l-.51-.52-.51-.52v-4.11l-.52-.51-.51-.52v-5.13l-.52-.52-.51-.51v-3.08l-.51-.52-.31-.82-.52-.51.31-1.24-.51-.51-.52-.51h-.5c-.32 0-.52-.31-.52-.52v-.51h1.02v-2.06h-1.02l-.52-.72c-.3-.4-.51-.82-.51-1.02v-.31l.51-.52-.51-.51-.1-.3c0-.11-.83-4.84-1.75-10.28-1.75-10.08-1.75-10.08.51-14.4a27.16 27.16 0 016.17-7.4c2.05-1.74 7.6-5.03 12.23-7.39 4.62-2.36 10.07-4.62 12.12-4.93l7.3-1.13c3.19-.52 3.9-1.34 6.89-6.89 2.98-5.96 3.28-7.4 3.7-18.4.3-9.65-.1-14.07-1.96-22.5-1.74-8.01-2.16-12.64-1.74-19.32.3-4.93 1.23-11.1 2.26-13.87.92-2.78 1.54-5.14 1.33-5.34-.2-.31-.92-.42-1.64-.42h-1.13l-2.16-3.39c-1.13-1.85-6.99-13.46-12.95-25.9l-10.9-22.6.63-6.17c.4-3.39 3.49-14.7 6.98-25.07 3.5-10.38 6.89-19.42 7.5-20.04.62-.62.93-2.57.62-4.21-.4-2.37-1.23-3.19-3.18-3.4a4.85 4.85 0 00-4.22 1.55c-.92.92-3.39 4.93-5.34 8.83-2.16 3.9-3.7 8.53-3.7 10.38 0 1.85-.82 4.01-1.85 4.94a15.46 15.46 0 01-4 2.26c-1.24.3-4.84 3.49-8.02 6.88-4.63 4.93-6.07 5.96-7.2 5.04-1.23-1.03-1.02-1.75.82-4.94 1.24-2.05 4.73-6.26 7.71-9.35 4.83-4.93 5.45-5.96 4.93-8.73-.3-1.75-1.33-7.2-2.15-11.92a231.43 231.43 0 01-2.57-20.86c-.72-9.56-1.44-13.05-3.3-16.34-1.33-2.37-2.97-4.52-3.59-4.73-.72-.2-2.05.92-3.08 2.47-1.54 2.26-1.85 4.93-1.85 13.15 0 5.65.3 15.31.82 21.48.62 9.04.62 11.1-.51 10.79-.82-.2-3.08-3.9-5.14-8.12-2.16-4.21-5.55-13.46-7.6-20.45-2.16-7.1-4.53-13.67-5.45-14.7a4.99 4.99 0 00-3.4-1.74c-1.02 0-2.56 1.02-3.38 2.26-.83 1.23-1.75 4.62-2.16 7.5-.41 3.5-.1 7.81 1.03 12.85 1.02 4.2 3.08 11.2 4.72 15.51 1.65 4.42 3.09 9.15 3.09 10.59 0 1.44-.41 2.67-.72 2.67-.41 0-1.75-1.03-3.09-2.26-1.33-1.24-3.49-5.76-4.93-9.97a923.51 923.51 0 01-3.7-12.33c-.82-3.5-1.33-4.21-2.46-3.29a8.96 8.96 0 00-2.06 3.7c-.3 1.34-.1 4.62.51 7.4.62 2.67 1.34 5.96 1.65 7.3.2 1.33 1.44 4.41 2.57 6.67a59.98 59.98 0 004.72 7.6c1.44 1.86 2.27 4.02 1.96 4.84-.31.92-1.44 1.64-2.47 1.64-1.13 0-3.5-2.16-5.45-4.93-2.67-3.6-3.6-4.42-3.9-3.08-.2 1.03.92 5.44 2.36 9.97a76.9 76.9 0 007.1 14.59c2.36 3.5 6.57 8.22 9.45 10.48 2.77 2.26 7.3 5.45 9.97 7.2 2.67 1.84 5.13 3.9 5.44 4.82.41.83 1.24 3.8 2.06 6.68.72 2.88 3.29 8.74 5.65 13.05 2.26 4.32 7.81 16.34 12.33 26.72a731.57 731.57 0 018.12 19.01l.1.31V257l-.3-.1c-.1-.11-.83-.32-1.55-.62-.72-.31-1.23 0-1.23.61 0 .62-.3 1.13-.51 1.13h-.52v-.82c0-.41-2.26-5.65-5.03-11.5-2.78-5.97-9.36-20.77-14.6-32.8l-9.55-21.98-7.5-5.45c-4.01-2.98-9.77-8.32-12.64-11.82a81.89 81.89 0 01-8.43-12.64 168.69 168.69 0 01-5.65-12.74c-1.34-3.6-2.37-8.01-2.37-9.97 0-2.26.72-4.31 2.06-5.44 1.95-1.85 1.95-2.26.51-7-.92-2.77-1.54-7.6-1.54-10.78 0-3.29.62-6.58 1.44-7.81a12.6 12.6 0 014.62-3.4c2.88-1.23 3.19-1.74 3.19-6.06 0-2.67.82-6.68 1.85-8.94 1.13-2.36 3.18-5.24 4.83-6.47 1.54-1.23 3.9-2.26 5.24-2.26 1.34 0 3.8 1.33 5.55 2.88 2.67 2.36 3.6 4.72 6.27 15.1a231.75 231.75 0 003.29 12.54c.1.2.2-5.14.2-11.82 0-8.32.41-12.74 1.34-14.49.82-1.44 2.36-3.7 3.5-4.93a7.45 7.45 0 015.54-2.36c2.57.1 3.9.82 5.96 3.49a34.39 34.39 0 014 7.4c.73 2.26 1.76 8.22 2.06 13.36a998.4 998.4 0 001.75 17.98 165.2 165.2 0 001.54 10.07c.31.93 1.65-.72 3.19-3.8a46.71 46.71 0 015.44-8.32c1.55-1.65 4.01-3.3 5.55-3.7 1.55-.41 3.9-.41 5.35 0 1.44.3 3.5 1.54 4.62 2.67a7.9 7.9 0 012.06 4.93c0 1.65-2.67 10.38-5.76 19.32a746.8 746.8 0 00-7.7 22.5 43.57 43.57 0 00-1.96 11.52c0 4.41.93 7.4 5.55 16.95a647.86 647.86 0 0012.74 24.87c4.63 8.63 8.23 14.18 10.28 15.72l3.29 2.37-2.16 2.67c-1.13 1.44-2.98 5.65-4.1 9.35a54.74 54.74 0 00-1.96 13.57c0 3.7.92 11.2 2.16 16.54 1.74 8.02 2.05 11.92 1.54 21.89l-.52 12.23-4.72 4.83c-4.01 4.1-5.65 5.03-10.59 5.96-3.29.61-9.55 2.77-13.97 4.93-4.42 2.16-10.28 5.86-12.95 8.32-2.78 2.47-5.65 6.07-6.58 7.92-.92 1.95-1.64 5.75-1.64 8.53.1 2.77.51 6.16 1.02 7.6.42 1.34.83 2.67.93 2.78l.1.3-.51.52.51.51v.31c0 .2.2.62.52 1.03l.51.72-.51.51.51.52.51.61c.2.41.2.93 0 1.23-.3.31-.51.62-.51.83v.4l.51.52.52.52v3.08l.51.51.52.52v3.08l.5.51.52.52v3.08l.52.51.51.52v3.08l.51.51.52.52v2.05l.51.52.52.51v3.08l.51.52.2.72.52.51-.2 1.34.5.51.21.72.52.51-.2 1.34h1.02l.62.51c.4.2.82.52 1.02.52.2 0 .41.2.41.51v.51l-.51.52-.51.51h1.33c.2 0 2.06.62 4.11 1.54 2.26.93 6.79 1.44 11.72 1.44 5.14 0 9.97-.72 13.67-1.95 3.08-1.13 5.96-2.06 6.37-2.06h.82l.51-.5.52-.52 1.74-.72c.93-.41 3.4-2.26 5.45-4.11 2.16-1.96 4.83-5.86 6.17-8.84 2.15-5.04 2.26-5.86 1.13-13.67a123.58 123.58 0 01-1.13-12.54c0-2.36.51-5.44 1.13-6.88.61-1.34 2.87-3.7 4.83-5.14 2.05-1.33 7.3-3.7 11.6-5.14 4.32-1.44 8.95-2.57 10.18-2.57 1.44 0 4.01 1.75 6.78 4.83 2.47 2.68 4.53 4.94 4.53 5.14v.31h-1.03v.51c0 .21.2.52.51.52h.52v1.03h1.54c.2 0 .51.2.51.51v.51l-.51.52-.52.51h.52c.2 0 .51.2.51.51v1.55l.72.2.51.52-.2 1.33.72.2.51.52-.2 1.34.72.2.51.52-.2 1.33.71.2.52.52-.2 1.34.71.2.52.52-.21 1.33.72.2.51.52-.2 1.34.72.2.51.52-.2 1.33.71.2.52.52.3.82.52.52v.2c0 .1.51 1.44 1.13 2.88.62 1.34 1.13 5.96 1.23 10.28.1 6.78-.2 8.32-2.87 13.15l-3.09 5.45 7.2 6.88c4 3.8 10.07 9.35 13.66 12.33 3.5 2.99 7.1 6.58 8.02 7.92.82 1.33 1.23 2.88.93 3.5-.42.6-2.98-.93-6.38-3.81-3.18-2.67-10.68-9.45-16.85-14.9-6.06-5.55-11.61-11.4-12.23-13.05-1.13-2.78-1.03-3.4 2.47-7.92 2.05-2.67 4-6.06 4.42-7.5a43 43 0 00.72-7.19c0-2.57-.1-5.04-.2-5.45l-.21-.72M167 266.24v-.3c0-.21 2.27-4.53 5.04-9.56 2.78-5.04 6.48-11.92 8.33-15.31 1.84-3.4 7.7-13.88 13.05-23.13a1282.3 1282.3 0 0111.81-19.93c1.13-1.65 3.6-3.6 5.45-4.32 1.85-.82 4.83-3.18 6.58-5.34 1.74-2.16 5.44-8.22 8.22-13.57 2.67-5.44 6.68-15.1 8.73-21.47 2.88-8.64 3.7-12.75 3.4-15.73-.31-2.26-.93-4.42-1.24-4.72-.41-.41-1.44-.2-2.36.3-.82.62-2.26 3.19-2.98 5.76-.72 2.57-2.06 5.34-2.98 6.06-.82.72-1.85 1.03-2.16.72-.3-.4-.62-8.42-.72-17.88-.1-12.23-.51-17.26-1.34-17.57-.72-.2-1.95.92-2.77 2.46-.93 1.75-1.75 7.71-2.16 14.8-.4 6.48-1.23 13.26-1.75 15.1-.61 1.86-1.64 3.4-2.46 3.4-.82 0-1.85-.92-2.47-2.06-.61-1.02-1.03-7.3-1.03-13.77 0-8.52-.61-13.46-1.95-17.88-1.03-3.39-2.57-7.6-3.29-9.35-.82-1.75-1.74-3.29-2.15-3.18-.31 0-1.24 1.43-2.06 3.28-.92 2.27-1.23 6.58-1.03 13.67.2 5.65.41 13.67.52 17.99.1 6.98 0 7.7-1.96 7.9-1.44.21-2.57-.5-3.39-2.35-.72-1.55-1.74-6.17-2.26-10.49a117.97 117.97 0 00-3.08-13.97c-1.13-3.5-2.88-7.81-4.11-9.77-1.13-1.84-2.67-3.18-3.29-2.98-.72.21-1.85 1.96-2.57 3.91-.82 2.47-1.03 9.25-.82 21.58.2 9.87.72 19.42 1.13 21.27.41 1.85.82 3.4.82 3.4.1 0 2.88.4 6.27.92 3.29.62 7.81 2.16 9.97 3.6 2.16 1.43 4.62 4 5.55 5.75.92 1.75 1.44 3.9 1.13 4.62-.31.83-1.24 1.55-1.96 1.55-.82 0-2.98-1.65-4.83-3.6-1.95-1.95-5.54-4.32-8.11-5.14a30 30 0 00-8.53-1.54c-3.6 0-4.42-.62-10.18-7.7-3.49-4.22-7.09-7.92-8.01-8.23-.93-.41-2.16 0-2.98 1.13a6.03 6.03 0 00-.72 4.73 86.27 86.27 0 003.08 8.94 276.68 276.68 0 007.1 15.2c2.46 5.04 5.34 9.77 6.26 10.6.82.71 2.06 2.15 2.57 3.18.82 1.44-.62 4-6.99 12.74-4.42 6.06-8.84 12.23-9.97 13.77-1.13 1.65-5.24 7.2-8.94 12.54-3.8 5.24-8.12 11.1-9.66 12.95-1.54 1.85-2.46 3.6-2.15 3.9l.71.52-3.08 1.54-3.08 1.54h-.51c-.21 0-1.14.2-2.06.62-.82.3-1.54.3-1.54 0v-1.03c0-.2 2.26-3.4 5.03-7.1a649.3 649.3 0 0011-15.3 720.73 720.73 0 0115.41-21.59c5.25-7.09 9.66-13.35 9.66-13.77 0-.4-2.15-4.2-4.72-8.32a148.72 148.72 0 01-7.6-13.98 167.94 167.94 0 01-5.15-13.25c-2.26-6.58-2.26-6.99-.51-10.59.93-2.05 2.67-4.21 3.7-4.72a6.6 6.6 0 014.21-.41c1.24.4 5.04 3.28 8.33 6.47 5.85 5.55 6.06 5.65 5.34 2.77-.41-1.74-.92-11.3-1.23-21.37-.52-15.62-.31-18.8 1.13-22.6 1.03-2.37 2.46-5.15 3.39-6.17a5.69 5.69 0 013.8-1.75c1.13 0 3.08.82 4.32 1.75 1.23 1.02 3.6 4 5.24 6.67l3.08 4.83 1.23-4.52a41.43 41.43 0 013.19-7.7c1.13-1.75 2.88-3.09 4-3.09 1.14 0 2.99 1.03 4.22 2.26 1.23 1.24 3.6 5.35 5.35 9.15l3.18 6.78 3.4-3.6c1.84-1.95 4.1-3.39 5.03-3.18 1.03.2 2.67 1.54 3.8 2.98a23.4 23.4 0 012.88 6.68c.51 2.26.92 6.27.92 8.94 0 4.83.1 4.93 3.5 4.93 2.05 0 4.1.72 5.13 1.85.93 1.03 1.96 3.9 2.37 6.48.3 2.77-.1 7.8-1.13 12.74a160.48 160.48 0 01-5.24 17.98c-2.06 5.35-5.76 12.85-8.33 16.55-2.57 3.8-6.88 9.04-9.66 11.61-2.77 2.57-6.06 5.14-7.4 5.55-1.54.62-5.34 6.27-11.5 17.26-5.14 8.94-12.54 21.9-16.55 28.67-4 6.79-8.84 14.9-10.69 18.2-1.75 3.28-3.5 5.95-3.7 5.95h-.4l-1.04-2.05-1.02-2.06"/>
  </g>
  <g fill="#2d93ad" fill-rule="evenodd">
    <path d="M146.45 473.83l-.61-3.19c-.52-2.36-.2-3.6 1.23-4.62 1.03-.82 5.65-4.01 10.28-7.1 4.62-3.18 9.66-6.26 11.1-6.88 1.43-.62 2.77-1.03 3.08-.82.2.3.92 5.55 1.54 11.82.62 6.16 1.13 11.6 1.13 12.02v.82l-13.87-1.03-13.88-1.02M183.45 474.85l-.1-.3c0-.1-.62-5.76-1.44-12.54-.83-6.78-1.54-13.36-1.54-14.49 0-1.54 1.13-2.77 4-4 2.26-1.04 4.73-1.65 5.45-1.34.82.3 2.26 3.49 3.19 7.09a70.76 70.76 0 004.93 12.23 56.5 56.5 0 006.68 9.24c1.85 1.96 3.5 4.01 3.5 4.32v.82h-4.94c-2.67 0-8.22-.2-12.33-.51l-7.4-.52M223.53 474.85v-.3c0-.2-1.34-1.13-2.88-2.06a69.62 69.62 0 01-7.7-5.96c-3.3-2.88-6.07-6.68-8.44-11.71-2.26-4.63-3.7-9.25-3.9-12.44l-.2-4.93 7.19-2.47c3.9-1.44 11.3-3.39 16.44-4.42 5.04-.92 11.82-2.05 15.1-2.46l5.97-.72v4.21c0 2.36.61 5.76 1.44 7.7.82 2.06 3.39 4.74 6.37 6.8 2.77 1.84 8.83 7.18 13.56 11.8l8.63 8.54-3.7 2.36c-2.05 1.34-3.9 2.78-4.2 3.19l-.52.82-.31.1c-.1 0-1.13.2-2.26.41-1.13.1-8.12.83-15.42 1.44-7.3.72-14.9 1.03-16.95.72a35.48 35.48 0 00-5.96-.62h-2.26M88.9 425.53l4.42 1.95c2.47 1.03 7.3 4.32 10.7 7.2 3.49 2.87 6.77 5.24 7.29 5.24.51 0 3.7 2.87 6.99 6.37 3.28 3.6 8.22 9.45 11 13.05l4.92 6.57-3.18 3.19c-1.75 1.64-3.08 3.19-3.08 3.4v.3h-.42c-.2 0-2.87-.51-5.96-1.03-2.98-.61-8.73-2.67-12.74-4.62-4-1.95-8.94-5.14-11-7.2A29.6 29.6 0 0192 450.5a70.96 70.96 0 01-3.29-14.39c-.62-4.62-.82-8.83-.51-9.55l.72-1.03M418.78 453.27l-6.68 2.57-6.68 2.57-.2-.2-.32.72-.5.51v-.41c0-.2.92-1.23 2.15-2.26a18.73 18.73 0 003.6-5.35 23.67 23.67 0 001.43-7.4c0-2.26-1.02-6.67-2.15-9.76-1.24-3.08-3.19-6.37-4.32-7.19-1.34-.93-4.42-1.54-7.4-1.54-2.88 0-7.09.92-9.56 1.95-2.36 1.13-6.37 4.11-8.94 6.68-4.52 4.42-4.62 4.83-4.62 10.69 0 3.29.92 9.55 2.05 14.08 1.13 4.42 2.06 8.42 2.06 8.94 0 .51-.51.61-1.13.2-.62-.4-2.06-2.87-3.19-5.44a99.12 99.12 0 01-4-12.44c-1.13-4.31-1.96-9.04-1.96-10.58 0-1.65.83-4.73 1.96-6.89 1.13-2.16 4-5.65 6.37-7.7a35.6 35.6 0 019.66-5.35c3.39-1.03 6.68-1.44 8.94-1.03 1.95.41 5.55 2.06 7.8 3.8a35.08 35.08 0 017.3 7.3 51.57 51.57 0 015.04 9.46 50.26 50.26 0 012.57 9.66l.72 4.41"/>
    <path d="M403.36 459.44l-5.96 2.47c-3.29 1.33-6.68 2.77-7.7 3.08l-1.75.62v-.52c0-.2-1.65-2.26-3.6-4.62-1.95-2.37-4-5.86-4.52-7.81a13.14 13.14 0 01-.41-5.86c.3-1.23 1.75-3.6 3.18-5.14a7.43 7.43 0 016.17-2.77c2.67 0 4.42.82 7.5 3.9 2.16 2.26 4.01 4.63 4.01 5.35 0 .82-1.34.1-3.08-1.55-2.06-2.05-3.6-2.67-5.04-2.15-1.23.4-3.08 1.85-4.21 3.29a11.62 11.62 0 00-2.06 6.57c0 2.16.62 4.32 1.54 5.14 1.13.93 3.6 1.03 8.74.62l7.2-.62M130.01 415.25h4.11v.31c0 .2 1.65.72 3.8 1.03 2.16.3 5.66.2 7.92-.31a21.07 21.07 0 006.68-3.08 74.8 74.8 0 015.96-4.22l3.39-1.95.2-.2c.1-.1 1.75-.31 3.5-.62l3.18-.41.62 11.61c.41 6.47.72 13.77.72 16.34.1 2.47.1 5.34 0 6.17 0 .92-3.08 3.08-7.2 5.13-4 1.85-7.19 3.7-7.19 4.11 0 .41-3.29 2.78-7.2 5.45-4 2.67-7.6 4.83-8 4.83-.52 0-3.5-3.29-6.79-7.2a236.24 236.24 0 00-14.39-15.2c-4.62-4.42-10.58-9.56-13.36-11.4-2.77-1.96-4.62-3.81-4.1-4.33.5-.4 4.82-1.74 9.65-2.87 4.73-1.13 10.9-2.37 13.57-2.67l4.93-.52M277.17 454.82c-2.67-1.34-2.36-1.44 5.14-1.55 16.54-.1 24.35-8.32 24.35-25.48.1-13.26-2.26-16.13-12.43-15.93-6.07.2-10.9 2.16-16.03 6.89-4.83 4.31-5.86 7.3-4.42 12.84 2.67 9.97 8.84 12.13 15.51 5.34 2.16-2.15 4.22-5.13 4.63-6.67 1.23-4.94-3.6-7.81-7.2-4.22-2.56 2.57-1.95 4.52 1.24 4.22 3.18-.21 3.9 2.05 1.03 3.8-1.34.92-2.37.61-4.63-1.03-3.5-2.67-4.21-7.3-1.54-10.58 2.67-3.19 6.58-2.27 11.72 2.98 5.34 5.34 5.44 9.66.3 15.41-4.31 4.73-8.32 5.96-12.43 3.8-6.68-3.5-13.87-14.18-14.08-20.86-.2-7.3 12.23-15.72 23.02-15.72 4.52 0 6.68.51 10.28 2.88 6.06 3.9 7.7 5.96 9.25 11.5 2.46 9.15-.52 21.9-6.38 27.34-6.47 6.06-20.45 8.63-27.33 5.04M178.72 425.22c-.41-5.75-.51-13.05-.3-16.13l.4-5.66 5.66-1.64c3.08-.93 7.4-2.06 9.55-2.47 3.5-.61 3.9-.51 3.4.93-1.75 4.52-5.76 21.48-5.76 24.15 0 5.24-1.75 7.91-6.17 9.66-2.26.92-4.62 1.74-5.13 1.74-.62 0-1.34-4.62-1.65-10.58M257.44 389.56l-1.54 4.63-1.54 4.62-1.03 1.85a72 72 0 00-2.67 9.04c-.93 3.9-2.27 7.6-2.88 8.22-.62.72-5.24 1.75-10.28 2.37-4.93.61-13.25 2.05-18.5 3.18a183.74 183.74 0 00-14.28 3.5c-4.52 1.33-4.83 1.33-4.83-.2 0-1.04.62-4.84 1.34-8.54.82-3.6 2.26-8.94 3.28-11.71a80.86 80.86 0 013.09-7.92c.92-1.74 2.77-2.98 5.86-3.8 2.36-.61 12.94-3.5 23.43-6.27 10.37-2.87 19.73-5.14 20.75-5.14 1.03 0 1.85.1 1.85.42 0 .2-.51 1.64-1.02 3.08l-1.03 2.67M88.9 414.22l-.61-6.47c-.31-3.5-.52-6.78-.52-7.2l.1-.71h2.58c1.33 0 4.93 1.23 7.9 2.87a53.39 53.39 0 0010.6 4.32c2.77.72 5.24 1.44 5.34 1.64l.3.42h-.5c-.32 0-.52.2-.52.51v.51h-1.34c-.72 0-6.16.93-12.02 2.06-5.96 1.13-11 2.05-11.1 2.05h-.2M460.91 397.78h-2.77c-1.03 0-3.7-1.03-6.07-2.16a30.3 30.3 0 01-8.12-6.26c-2.15-2.27-5.24-7.3-6.88-11-1.75-4.21-2.88-8.74-2.88-11.72 0-2.77.62-6.68 1.54-8.73a27.55 27.55 0 014.42-6.78c1.44-1.65 3.9-3.5 5.35-4.32 1.54-.72 7.4-1.64 13.15-1.95l10.48-.52 1.03 2.06 1.03 2.06-.31.1c-.1.1-3.29.3-6.89.51-3.7.31-8.42.93-10.38 1.44a28.33 28.33 0 00-7.19 3.29 21.8 21.8 0 00-5.86 6.68c-1.64 2.88-2.36 5.96-2.46 9.66 0 3.08.72 7.09 1.54 9.14.82 1.96 3.18 5.14 5.24 7.1 3.6 3.49 3.7 3.6 13.15 3.49 5.24 0 9.87-.1 10.28-.2l.82-.1-1.75 4.62c-1.43 4-2.05 4.62-3.9 4.1-1.13-.3-2.26-.5-2.36-.5h-.2M178.31 382.37v-.93c0-.51 3.08-4.83 6.89-9.55 3.8-4.63 8.63-10.08 10.79-11.93l3.9-3.28v-.41l.72.61.82.31.52.51H204l.51.52.52.51h.72c.4 0 2.67.72 5.14 1.65 2.36.92 4.41 1.85 4.41 2.15 0 .31-2.87 5.96-6.37 12.75-3.49 6.68-6.88 12.64-7.5 13.15-.72.62-5.96 2.16-11.61 3.5-6.47 1.54-10.8 2.05-11.4 1.43-.52-.51-.73-2.87-.52-5.24.3-2.36.41-4.62.41-5.03v-.72M213.25 385.14c0-1.33 8.53-16.95 10.17-18.6.52-.51 6.07 1.44 12.85 4.52 6.58 2.98 11.61 5.76 11.2 6.17-.72.72-6.27 2.16-32.17 8.73-1.33.31-2.05 0-2.05-.82M327.52 383.09c-7.5-5.96-10.48-12.34-10.48-21.79 0-9.15 2.26-15.82 6.89-20.24 3.7-3.6 16.75-10.9 16.64-9.36 0 .42-3.18 3.09-6.98 5.96-5.14 3.8-7.6 6.48-9.77 10.8-2.67 5.13-2.87 6.37-2.57 15.51.31 9.46.52 10.18 3.4 13.16 2.46 2.57 3.8 3.18 7.8 3.18 7.92 0 14.8-2.67 18.2-6.99 5.44-6.88 5.24-18.08-.31-20.65-8.02-3.6-19.94 1.85-19.94 9.14 0 2.47.41 3.09 2.26 3.09 1.34 0 3.4-.82 4.63-1.65 1.95-1.33 2.15-1.95 1.23-3.7-1.95-3.6.1-3.6 3.18-.1 3.6 4 3.8 6.78.72 8.94-3.9 2.78-7.8 2.06-12.22-2.36-3.4-3.4-3.91-4.73-3.91-8.43 0-3.6.51-4.83 3.6-7.8 3.39-3.1 4.31-3.4 9.86-3.4 3.4 0 7.4.62 9.05 1.44 6.37 3.29 12.33 15.31 11 22.2-1.86 9.55-8.23 14.07-21.18 14.9-7.4.4-8.53.2-11.1-1.85"/>
    <path d="M476.33 365.93v1.54c0 .82-.31 1.54-.52 1.54h-2.05c-.2 0-.72-.52-1.03-1.03-.41-.62-4-1.03-8.12-1.03-5.04 0-8.12.41-9.66 1.54a5.46 5.46 0 00-2.26 4.22c0 2.46.2 2.67 3.8 2.16 2.16-.31 4.52-.72 5.35-.93.82-.2 1.85.82 2.46 2.57.93 2.26.82 3.08-.4 3.8-.83.52-2.58 1.34-4.02 1.65a6.1 6.1 0 01-4.1-.31c-.83-.52-2.68-3.08-3.91-5.55-1.24-2.47-2.26-6.27-2.26-8.33 0-2.98.51-4.31 2.46-5.54 1.96-1.34 4.42-1.65 10.28-1.34 5.86.3 8.32.92 10.48 2.67a38.41 38.41 0 003.19 2.26l.3.1M391.75 378.36c-2.98-2.67-3.29-3.6-3.29-8.43.1-4.72.52-5.75 3.4-8.32 3.9-3.5 6.57-3.9 3.49-.62-6.48 6.99-5.24 19.94 1.74 17.78 4.22-1.34 8.33-5.75 8.33-8.94 0-2.47-.41-2.98-1.65-2.57a8.4 8.4 0 01-2.15.72c-.21 0-.1 1.13.2 2.57.52 1.75.31 2.57-.72 2.57-2.67 0-5.96-3.19-5.96-5.76 0-5.75 9.76-5.03 13.67 1.03 2.26 3.4 1.54 5.76-2.98 9.76-4.73 4.22-9.45 4.22-14.08.2M268.64 371.78c-3.9-2.16-4.32-2.16-5.24-.51-.52 1.03-1.85 1.85-2.78 1.85-1.02 0-8.63-3.29-16.95-7.3l-15-7.2 5.13-7.18a309.7 309.7 0 0113.16-16.14l8.01-8.94 13.05-.3 13.05-.32-1.64 3.9c-1.03 2.06-2.67 7.1-3.9 11l-2.16 7.1 3.08 2.15c11.2 7.92 13.67 15.32 7.09 21.69-3.29 3.29-9.25 3.29-14.9.2m-1.64-3.9c-.72-1.44 1.54-9.87 3.08-11.1 1.13-.93 5.55-1.54 8.63-1.34 1.54.2.82 4.42-1.64 8.53-2.26 4.11-8.53 6.48-10.07 3.9M208.63 351.02l-.83-.3-.51-.52-.72-.2-.51-.52H204l-.52-.51-.52-.51h-2.05l-.41-1.34c-.2-.72-1.34-4.52-2.57-8.43a79.22 79.22 0 00-6.27-14.18l-4.11-6.88-1.54-4.63-1.54-4.62h-.42l.62-.82.3-.72.52-.52.52-2.88 2.05-10.27 1.54-7.4 6.17-2.06 6.17-2.05v.82c0 .51 1.13 2.98 2.56 5.55 1.44 2.57 5.66 8.12 9.36 12.23 3.7 4.1 9.04 9.04 11.92 11a112.8 112.8 0 0013.46 7.3l8.22 3.8-6.68 7.6a556.07 556.07 0 00-13.15 16.13c-3.6 4.63-7.1 8.53-7.81 8.53-.72 0-3.19-.72-5.55-1.54a38.54 38.54 0 00-4.83-1.54h-.31M446.52 287.82l1.03 2.06 1.03 2.05-2.88.62c-1.54.31-4.73 1.75-7.2 3.08-2.36 1.34-5.03 3.5-5.85 4.73-.92 1.23-1.54 3.7-1.54 5.35 0 2.36.82 3.9 3.7 6.06a16.45 16.45 0 008.01 3.5c3.5.4 4.83 0 7.5-2.27 1.86-1.54 3.4-2.98 3.4-3.18v-.42l2.05 4.12 2.06 4.1-.31.1c-.1 0-1.34 1.24-2.67 2.68-2.06 2.16-3.09 2.47-7.2 2.06-3.08-.31-6.47-1.65-9.76-3.8-2.67-1.86-6.06-5.14-7.4-7.3a15.86 15.86 0 01-2.46-8.94c0-4.11.4-5.45 2.77-7.6a25.27 25.27 0 015.96-4.22 27.4 27.4 0 016.37-2.16l3.4-.62M268.43 315.98c3.09-2.77 18.91-12.95 19.43-12.43.72.72-2.78 10.58-4.22 12.23-1.13 1.33-3.8 1.95-9.76 2.36l-8.22.51 2.77-2.67M208.11 280.63v-.3c0-.21 7.91-2.06 17.68-4.22 11.3-2.47 20.34-3.8 24.97-3.8 5.96 0 7.8.51 11.3 2.77 2.26 1.44 6.07 4.63 8.53 6.89 2.47 2.36 6.27 6.47 8.53 9.25 2.16 2.77 4 5.13 4 5.34v.51h-.4c-.2 0-6.07 3.8-12.95 8.43-6.89 4.62-13.26 8.94-13.98 9.45-1.02.72-3.7.31-8.94-1.54-4.1-1.33-10.68-4.62-14.7-7.3-4-2.67-9.55-7.08-12.32-9.86a70.41 70.41 0 01-8.43-10.38l-3.29-5.24M293.4 291.93l-.1-.82c0-.4.2-2.05.52-3.6l.61-2.77h.31c.2 0 1.13 2.67 2.06 6.06a22.37 22.37 0 005.65 10.28c3.39 3.6 4.52 4.21 8.22 4.21 2.36 0 6.06-.72 8.12-1.64a23.12 23.12 0 006.27-3.8 28.97 28.97 0 004.52-6.37c1.85-3.5 2.16-6.07 2.26-15.83 0-11.3 0-11.82-2.47-13.56a17.2 17.2 0 00-5.44-2.47l-2.78-.51v-3.09h.52c.2 0 .5-.51.5-1.13 0-.61.52-.92 1.24-.61.72.3 1.44.51 1.54.61l.31.1 5.35 6.07c2.87 3.39 5.75 6.99 6.26 7.91.52.82.72 6.27.52 12.02-.31 8.23-.93 11.41-2.78 15.21a19.02 19.02 0 01-7.09 8.02c-3.8 2.57-5.75 3.08-10.48 3.08-4 0-6.78-.61-9.25-2.16-2.05-1.13-5.24-3.8-7.3-5.85a70.9 70.9 0 01-5.34-6.27c-1.03-1.44-1.74-2.67-1.74-2.88v-.2"/>
    <path d="M450.63 301.18l1.55 2.57 1.54 2.57h-.82c-.42 0-1.55-.3-2.57-.61-1.13-.42-2.78.1-3.9 1.13-1.04.92-2.37 1.43-2.99 1.02-.62-.4-1.03-1.74-1.03-3.08s.62-2.88 1.44-3.6c.72-.61 2.57-.92 4.11-.61l2.67.61M380.14 303.03c-4-3.5-8.02-10.07-9.15-14.59-1.03-4.52 1.24-9.45 6.48-14.08 9.86-8.73 13.77-8.01 5.03.82-8.12 8.23-10.17 15.11-6.27 20.87 2.37 3.39 3.5 4 6.79 4 5.75.1 13.05-5.03 14.9-10.27 1.95-5.55.3-7-8.74-7.4-6.06-.2-6.88.2-5.86 3.39.52 1.64 1.24 2.05 3.09 1.54 1.74-.41 2.77 0 3.5 1.44 1.84 3.39 1.22 4.32-2.27 4-3.7-.4-7.91-5.54-7.91-9.76 0-3.28 4.1-5.75 9.45-5.65 3.8 0 4.93.62 8.74 4.63 3.9 4.21 4.42 5.14 4.42 9.76 0 5.96-2.37 9.45-8.33 12.54-5.86 2.87-9.56 2.57-13.87-1.24M296.49 280.63l3.08-2.57 3.08-2.57h.21c.1 0 .1 1.96 0 4.32-.2 2.98.3 5.45 1.75 7.7 1.54 2.58 2.77 3.4 5.03 3.4 2.16 0 4.01-1.13 6.68-4.22 2.37-2.46 3.8-5.13 3.8-6.78v-2.77l-2.46 2.26-2.37 2.26-1.95-2.16c-1.44-1.64-1.64-2.57-.82-3.9a5.52 5.52 0 013.29-2.06c1.44-.2 3.39.82 5.34 2.77 2.06 2.16 3.08 4.12 3.08 6.27 0 1.85-.61 4.32-1.23 5.55a24.32 24.32 0 01-3.18 4.52c-1.55 1.65-3.3 2.37-6.07 2.37-2.87 0-4.83-.93-7.6-3.4a37.5 37.5 0 01-6.27-7.19c-1.34-2.05-2.67-3.8-2.98-3.8h-.41"/>
  </g>
  <g id="contactElems">
    <path d="M246.65 251.45c-3.9-3.8-4.63-5.14-4.63-8.33 0-8.22 5.86-14.9 13.16-14.9 6.88-.1 13.56 6.68 13.56 13.67 0 3.29-.82 4.62-5.14 8.94-6.98 6.88-10.48 6.99-16.95.62m3.6-4.73c-5.76-5.55-2.88-12.33 5.03-12.33 2.98 0 4.42.51 5.65 2.26 2.57 3.7 2.06 7.5-1.44 9.97-4.93 3.28-5.96 3.28-9.25.1" fill="#92aabf" fill-rule="evenodd" class="contact-elem" id="cOne"/>
    <path d="M99.39 213.01c-6.07-.92-6.68-2.98-2.88-10.48 1.44-2.88 2.47-5.14 2.26-5.14-.1 0-2.47.72-5.24 1.65-4.52 1.54-5.04 1.54-6.47 0-1.55-1.55-1.55-2.16 1.02-7.3l2.78-5.55-5.35-.3c-4-.32-5.34-.73-5.34-1.86 0-1.95 8.63-4.31 14.39-3.9 3.39.2 4.1.61 4.42 2.67.2 1.44-.62 3.8-1.96 5.55l-2.26 2.98 5.96-.3c8.02-.52 9.15 1.22 5.24 8.21-3.28 6.06-3.39 7.4-.61 7.4 2.46 0 6.27 1.75 7.3 3.4 2.15 3.28-3.3 4.51-13.26 2.97" fill="#92aabf" fill-rule="evenodd" class="contact-elem" id="cTwo"/>
    <path d="M364.83 183.21c-.93-6.58-.62-14.7.51-16.85 1.44-2.57 5.65-2.06 10.17 1.13 3.9 2.77 4.11 2.67 4.22-1.75.1-6.99 1.44-11.82 3.6-13.26 1.95-1.23 2.97-1.02 9.24 2.16 8.22 4.11 13.05 8.22 12.54 10.69-.51 2.88-4.62 2.57-10.58-.82a52.65 52.65 0 00-6.07-3.09c-.3 0-.51 3.09-.51 6.89 0 7.4-1.85 11.61-4.93 11.61-.93 0-4.11-1.44-7.1-3.18l-5.44-3.09-.1 3.9c-.31 8.23-4.63 12.75-5.55 5.66" fill="#92aabf" fill-rule="evenodd" class="contact-elem" id="cThree"/>
    <path d="M99.28 90.2c-2.46-2.87-9.35-16.02-9.35-17.67 0-2.26 3.4-4.42 12.03-7.8 8.32-3.3 8.53-3.3 10.58-1.44 3.08 2.77 9.46 16.13 8.63 18.18-.51 1.34-17.57 11.1-19.42 11.1-.3 0-1.44-1.13-2.47-2.36m1.55-8.74a40.12 40.12 0 01-3.09-5.03l-1.64-3.19 5.03-2.15c2.78-1.24 5.55-2.16 6.07-2.16.92 0 5.34 8.32 5.34 10.17 0 .93-6.78 4.21-8.73 4.21-.93 0-2.26-.82-2.98-1.85" fill="#92aabf" fill-rule="evenodd" class="contact-elem" id="cFour"/>
    <path d="M351.26 83.74c-.3-.83-.4-6.68-.2-13.06.4-12.53 2.05-17.16 5.96-17.16 2.05 0 16.23 10.18 20.45 14.6l2.36 2.56-3.19 2.68c-3.7 3.08-20.86 12.02-23.12 12.02-.92 0-1.85-.72-2.26-1.64m6.89-13.26c0-3.7.2-6.68.51-6.68.62 0 7.7 4.93 8.94 6.27.41.51-1.54 2.26-4.31 4l-5.14 3.09v-6.68" fill="#92aabf" fill-rule="evenodd" class="contact-elem" id="cFive"/>
    <path d="M225.79 56.2c-7.6-5.45-9.05-7.4-7.6-10.38.6-1.44 3.49-3.7 6.36-5.25 2.88-1.43 5.14-2.87 4.83-3.08-.2-.2-4-1.64-8.53-3.29-7.3-2.46-8.11-3.08-8.11-5.34s1.13-3.19 8.53-6.78l8.52-4.11-8.01-2.57c-14.8-4.63-8.22-7.5 8.01-3.5 7.2 1.75 10.59 4.22 9.56 6.89-.3.92-3.8 3.29-7.8 5.34l-7.2 3.8 7.09 3.4c3.9 1.85 7.4 4 7.7 4.83 1.03 2.87-1.33 5.96-6.57 8.63l-5.45 2.77 2.47 1.65a56.2 56.2 0 015.14 3.9c2.16 1.95 2.36 2.57 1.33 3.9-2.36 2.99-5.24 2.78-10.27-.82" fill="#92aabf" fill-rule="evenodd" class="contact-elem" id="cSix"/>
  </g>
  <g fill="#9c8278" fill-rule="evenodd">
    <path d="M134.12 415.25l.52-1.75c.3-.92.3-3.8 0-6.37-.31-2.67-.72-14.08-1.03-25.38-.31-11.3-.2-21.58.1-22.81.3-1.13 7.5-7.6 16.13-14.39a574.77 574.77 0 0123.54-17.78 333.8 333.8 0 0111.1-7.4l3.08-1.74 4.1 6.88a78.52 78.52 0 016.28 14.18c1.23 3.9 2.36 7.71 2.57 8.43l.4 1.34-1.02 2.26a9.34 9.34 0 00-.62 3.9c.2.82.41 1.65.41 1.75l.21.3-3.9 3.3c-2.16 1.84-7 7.3-10.8 11.92-3.8 4.72-6.88 9.04-6.88 9.55v.93l-2.47 1.44c-1.23.72-3.49 3.6-4.83 6.37-1.44 2.77-4 6.78-5.85 9.04-1.85 2.16-3.3 4.62-3.3 5.34v2.47l-3.38 1.95a74.8 74.8 0 00-5.96 4.22 21.07 21.07 0 01-6.68 3.08c-2.26.51-5.76.62-7.92.3-2.15-.3-3.8-.81-3.8-1.02v-.3M114.29 409.6l.3-.51v-1.03h-1.23c-.61 0-3.5-.72-6.27-1.54a62.21 62.21 0 01-9.55-4.11c-2.47-1.44-5.65-2.57-7.1-2.57h-2.56v-1.54c0-.31-.31-.52-.52-.52h-.51v-1.03l4.93-4.41c2.67-2.37 9.87-8.74 16.03-14.08 6.07-5.45 11.41-9.97 11.82-10.07.41-.21 1.03 9.04 1.44 20.55.3 11.4.62 20.96.62 21.07l.1.3h-.82c-.41 0-2.06-.3-3.6-.51l-2.77-.51-.52.51-.51.1.72-.1M35.47 335.1l.72-.42c.4-.2 6.37-2.05 13.15-4.31a1280.7 1280.7 0 0019.32-6.27l7.1-2.26-.63 4c-.4 2.27-1.13 13.26-1.74 24.36-.62 11.2-1.24 24.97-1.54 30.63-.2 5.65-.41 10.37-.41 10.48v.3l-.31.31c-.1.21-9.35-3.49-20.35-8.22-11.1-4.72-21.68-9.96-23.64-11.6l-3.49-2.89 1.75-6.78c.92-3.8 3.6-11.3 5.75-16.85a449.57 449.57 0 004.11-10.28l.2-.2M83.66 380.52c0-1.03.52-6.17 1.03-11.51.62-5.45 1.75-18.6 2.67-29.29 1.13-12.43 2.16-20.04 2.98-20.96.72-.72 4.11-1.96 7.4-2.78 3.3-.72 9.56-2.36 13.98-3.6 4.42-1.33 8.32-1.95 8.73-1.54.93.83.72 32.27-.2 37.1-.41 2.47-2.78 4.93-10.38 11.1a347.39 347.39 0 00-17.88 15.62c-5.65 5.24-8.33 7.1-8.33 5.86M178.31 296.05l1.54 5.13 1.54 5.14h-.51c-.2 0-2.16.93-4.32 2.26a268.4 268.4 0 00-13.66 8.94 317.14 317.14 0 00-19.22 14.08c-8.74 6.99-9.46 7.3-9.97 5.24-.41-1.33-.62-7.91-.62-14.7 0-8.42.41-12.94 1.24-13.97.72-.92 3.6-2.36 6.47-3.18 2.78-.93 8.74-2.57 13.15-3.8a186.84 186.84 0 0115.93-3.7c4.32-.73 8.02-1.34 8.12-1.34l.31-.1M40.6 317.63v-.42c0-.2 1.03-3.49 2.37-7.4 1.34-3.9 4.62-12.63 7.3-19.42 2.56-6.78 5.24-13.56 5.85-15.1.52-1.54 2.06-3.7 3.3-4.83 1.23-1.13 7.4-3.7 13.76-5.76l11.61-3.6-1.02 2.57c-.62 1.34-1.96 8.64-3.09 16.14-1.23 7.5-2.46 15.62-2.87 18.19l-.72 4.52-13.36 5.45a643.7 643.7 0 00-17.78 7.6c-2.47 1.13-4.62 2.06-4.93 2.06h-.41M94.04 258.02h.31c.2 0 3.08-.92 6.37-2.05a1798 1798 0 0113.77-4.11c4.22-1.13 8.33-2.06 9.05-2.06h1.33l-.51 6.89c-.31 3.8-.82 11.1-1.23 16.23-.42 5.04-.62 10.18-.52 11.3.2 1.24-.61 3.2-1.64 4.32-1.24 1.55-5.55 3.3-13.05 5.35-6.17 1.74-12.13 3.18-13.16 3.18-1.95 0-2.05-.72-1.54-19.32.31-10.58.62-19.42.72-19.52l.1-.2M135.15 246.72l3.08-1.54 3.08-1.54v-.42c0-.2 1.24-.61 2.68-.92 1.54-.3 3.8-.2 5.03.3 1.13.42 3.5 2.37 5.24 4.32 1.75 1.96 5.14 7.1 7.5 11.41 2.37 4.32 4.53 7.91 4.73 7.91h.52l1.02 2.06 1.03 2.05v1.24c0 .72.51 2.16 1.13 3.18.62 1.03.82 2.06.62 2.26-.2.31-.72.52-1.13.52h-.62l-.82-.1c-.41 0-4.42.92-8.94 2.05a940.63 940.63 0 01-16.44 3.6c-4.42.82-8.22 1.44-8.43 1.23-.2-.1-.1-8.73.2-19.01l.52-18.6"/>
  </g>
  <g fill="#fed766" fill-rule="evenodd">
    <path d="M310.88 488.21h.4c.21 0 1.34-2.05 2.47-4.41 1.24-2.37 5.45-8.53 9.46-13.57 4-5.14 9.14-10.79 11.5-12.64 2.27-1.85 4.73-3.19 5.35-2.98.62.2 1.34 1.64 1.75 3.29.3 1.64.72 7.8.72 13.56l.2 10.59h-.61c-.42 0-3.8 1.33-7.71 3.08-3.9 1.65-9.66 3.6-12.74 4.21-3.09.62-6.79.83-8.23.52-1.43-.41-2.56-.93-2.56-1.23v-.42"/>
    <path d="M267.5 471.57l-.3.72-.51.51.51-.82c.3-.41 2.16-1.85 4.21-3.19l3.7-2.36-8.63-8.53c-4.73-4.63-10.79-9.97-13.56-11.82-2.98-2.05-5.55-4.73-6.37-6.78a23.34 23.34 0 01-1.44-7.7v-4.22l-5.96.72c-3.3.4-10.07 1.54-15.11 2.46a134.58 134.58 0 00-16.44 4.42l-7.2 2.47.21 4.93c.2 3.19 1.64 7.81 3.9 12.44 2.37 5.03 5.14 8.83 8.43 11.71a69.62 69.62 0 007.7 5.96c1.55.93 2.89 1.85 2.89 2.06v.3h-7.61c-3.6 0-6.78.21-7.2.52l-.6.51v-.82c0-.3-1.65-2.36-3.5-4.32a56.5 56.5 0 01-6.68-9.24 70.76 70.76 0 01-4.93-12.23c-.93-3.6-2.37-6.79-3.2-7.1-.71-.3-3.18.31-5.44 1.34-2.87 1.24-4 2.47-4 4.01 0 1.13.71 7.7 1.54 14.49a831.1 831.1 0 011.44 12.54l.1.3-.82-.1c-.42 0-2.47.2-4.63.52l-3.8.61v-.82c0-.41-.51-5.86-1.13-12.02-.62-6.27-1.34-11.51-1.54-11.82-.31-.2-1.65.2-3.09.82-1.43.62-6.47 3.7-11.1 6.89a267.2 267.2 0 00-10.27 7.09c-1.44 1.02-1.75 2.26-1.23 4.62l.61 3.19-9.25-.52-9.24-.51v-.3c0-.21 1.33-1.76 3.08-3.4l3.18-3.19-4.93-6.57c-2.77-3.6-7.7-9.46-11-13.05-3.28-3.5-6.47-6.37-6.98-6.37-.52 0-3.8-2.37-7.3-5.25-3.39-2.87-8.22-6.16-10.69-7.19l-4.41-1.95v-11.3h.2c.1 0 5.14-.93 11.1-2.06 5.86-1.13 11.3-2.06 12.02-2.06h1.85c.2 0 .52-.3.52-.51v-.51l2.77.51c1.54.2 3.19.51 3.6.51h.82l2.98 2.06c1.64 1.13 3.5 2.05 4.11 2.05.62 0 1.13.21 1.13.52v.51l-4.93.52c-2.67.3-8.84 1.54-13.57 2.67-4.83 1.13-9.14 2.46-9.66 2.87-.51.52 1.34 2.37 4.11 4.32 2.78 1.85 8.74 6.99 13.36 11.4a236.83 236.83 0 0114.39 15.22c3.29 3.9 6.27 7.19 6.78 7.19.41 0 4.01-2.16 8.02-4.83 3.9-2.67 7.2-5.04 7.2-5.45 0-.4 3.18-2.26 7.19-4.1 4.1-2.06 7.19-4.22 7.19-5.14.1-.83.1-3.7 0-6.17 0-2.57-.31-9.87-.72-16.34l-.62-11.61-3.18.4c-1.75.32-3.4.52-3.5.63l-.2.2V404.56c0-.72 1.44-3.18 3.29-5.34a62.08 62.08 0 005.85-9.04c1.34-2.78 3.6-5.65 4.83-6.37l2.47-1.44v.72c0 .4-.1 2.67-.41 5.03-.2 2.37 0 4.73.51 5.24.62.62 4.94.1 11.4-1.44 5.66-1.33 10.9-2.87 11.62-3.49.62-.51 4.01-6.47 7.5-13.15 3.5-6.79 6.37-12.44 6.37-12.75 0-.3-2.05-1.23-4.41-2.15-2.47-.93-4.73-1.65-5.14-1.65h-.72l-.52-.51-.5-.52h-2.06l-.52-.51-.82-.3-.72-.62v-.62h-.51c-.31 0-.52-.72-.52-1.54 0-.93.1-1.54.41-1.54.2 0 .72-.93 1.03-2.06l.62-2.05h2.05l.52.5.51.52h2.06l.51.52.72.2.51.52.83.3.5.52h.32c.2 0 2.36.61 4.83 1.54 2.36.82 4.83 1.54 5.55 1.54.72 0 4.21-3.9 7.8-8.53 3.6-4.62 9.56-11.92 13.16-16.13l6.68-7.6-8.22-3.8a112.28 112.28 0 01-13.46-7.3c-2.88-1.96-8.22-6.9-11.92-11-3.7-4.11-7.92-9.66-9.36-12.23-1.43-2.57-2.56-5.04-2.56-5.55v-.82l3.08-.52 3.08-.5 3.29 5.23a70.41 70.41 0 008.43 10.38 97.72 97.72 0 0012.33 9.87c4 2.67 10.58 5.96 14.7 7.3 5.23 1.84 7.9 2.25 8.93 1.53.72-.51 7.1-4.83 13.98-9.45 6.88-4.62 12.74-8.43 12.95-8.43h.4v.41c0 .31 1.14 1.34 2.58 2.27 1.44.92 2.77 1.43 2.98 1.23.3-.2 1.44-2.37 2.57-4.73l2.16-4.32v.21c0 .2.71 1.44 1.74 2.88a70.9 70.9 0 005.35 6.27c2.05 2.05 5.24 4.72 7.3 5.85 2.46 1.55 5.23 2.16 9.24 2.16 4.73 0 6.68-.51 10.48-3.08a19.02 19.02 0 007.1-8.02c1.84-3.8 2.46-6.98 2.77-15.2.2-5.76 0-11.2-.52-12.03-.5-.92-3.39-4.52-6.26-7.91l-5.35-6.06v-2.06h1.03l3.19-3.6a33.4 33.4 0 013.6-3.6h.71c.2 0 3.7-3.7 7.7-8.21l7.4-8.23h1.14c.72 0 1.44.1 1.64.42.2.2-.4 2.56-1.33 5.34-1.03 2.77-1.96 8.94-2.26 13.87-.42 6.68 0 11.3 1.74 19.32 1.85 8.43 2.26 12.85 1.96 22.5-.42 11-.72 12.44-3.7 18.4-2.98 5.55-3.7 6.37-6.89 6.89-2.05.3-5.24.82-7.2 1.13-1.95.3-7.19 2.36-11.6 4.62-4.53 2.16-9.97 5.45-12.13 7.2a30.96 30.96 0 00-6.37 6.98c-1.24 2.06-2.26 5.14-2.26 6.89 0 1.64.92 7.2 1.95 12.33 1.03 5.04 1.95 9.35 1.95 9.45l.2.31v2.57c0 .2.21.52.52.52h.51v1.02l.52.52.2.72.52.51-.2 1.34.5.51.52.51v3.09l.51.51.52.51v5.14l.51.52.52.51v3.08l.5.52.52.51v2.06l.52.51.2.72.52.51.3.83.21.71.51.52.31.82.2.72.52.51.31.83.51.51 1.03 1.54 1.03 1.54.51.52.52.51 1.54 1.23a9.6 9.6 0 011.54 1.54c0 .1.2.31.51.31h.52l.51.52.51.51v.3c0 .21 1.14.93 2.57 1.55a53.8 53.8 0 007.5 2.36c2.57.62 6.79 1.03 9.15.93 2.47-.1 8.22-1.54 12.85-3.29 4.62-1.85 9.97-4.73 12.12-6.68a30.62 30.62 0 006.07-8.84 41.07 41.07 0 002.87-11.1c.31-4 0-7.5-1.13-10.79-.92-2.77-1.64-6.47-1.64-8.32 0-2.26.92-4.52 2.98-6.88 1.75-1.96 5.34-4.42 8.22-5.66a79.63 79.63 0 0110.9-3.7c3.9-1.02 6.47-1.23 7.7-.51a8.58 8.58 0 012.47 1.95l.61 1.13.52.52.51.51v.62c0 .4.2.82.52 1.02l.5.42.52.51.52.51v.2c.1.11.3.83.51 1.55l.51 1.34.52.51.2.72.52.51.3.83.21.71.51.52.31.82.2.72.52.51.31.83.2.72.52.5.3.83.21.72.52.51.3.83.21.72.52.51.3.82.52.52.72 2.77c.4 1.54.72 5.65.61 9.04 0 3.4-.72 7.4-1.44 8.74a46.62 46.62 0 01-4.31 6.37c-2.78 3.6-2.98 4.21-1.75 6.99.62 1.64 6.17 7.5 12.23 13.05 6.17 5.45 13.67 12.23 16.85 14.9 3.4 2.88 5.96 4.42 6.38 3.8.3-.61-.1-2.16-.93-3.5-.92-1.33-4.52-4.92-8.02-7.9-3.6-2.99-9.65-8.53-13.66-12.34l-7.2-6.88 2.78-4.93c1.44-2.78 2.98-6.58 3.29-8.53.4-2.06.2-6.58-.31-10.07-.62-3.5-1.34-6.89-1.65-7.5l-.5-.93-.52-.52-.31-.82-.52-.51-.2-.72-.3-.82-.52-.52-.2-.72-.32-.82-.51-.51-.2-.72-.31-.82-.52-.52-.2-.72-.31-.82-.52-.51-.2-.72-.31-.82-.51-.52-.2-.72-.32-.82-.51-.51-.2-.72-.32-.82-.5-.52-.21-.72-.52-.51-.51-1.54-.52-1.54-.51-.52-.51-.51v-.62c0-.41-1.75-2.67-3.8-5.14-2.06-2.57-4.84-4.93-6.17-5.24-1.54-.4-5.96.52-11.2 2.16-4.73 1.54-10.07 3.9-11.92 5.34-1.85 1.34-4.01 3.5-4.63 4.73-.72 1.23-1.33 4.42-1.33 6.89 0 2.46.51 8.32 1.13 12.84 1.13 7.81 1.02 8.63-1.13 13.67-1.34 2.98-4.01 6.88-6.17 8.84-2.05 1.85-4.52 3.7-5.45 4.1l-1.74.73-.52.51-.51.51h-.82c-.41 0-3.3.93-6.37 2.06-3.7 1.23-8.53 1.95-13.67 1.95-4.93 0-9.46-.51-11.72-1.54-2.05-.82-4.42-2.16-5.14-3.08l-1.33-1.44-.51-.51-.31-.83-.52-.51.31-1.23-.51-.52-.31-.82-.51-.51.3-1.24-.51-.51-.51-.51v-2.05l-.52-.52-.51-.52v-3.08l-.52-.51-.5-.52v-3.08l-.52-.51-.52-.52v-3.08l-.51-.51-.51-.52v-3.08l-.52-.52-.51-.5v-2.06l-.52-.52-.51-.51.3-.62c.21-.3-.4-3.39-1.53-6.78-1.03-3.4-1.85-8.32-1.85-10.8 0-2.56.72-6.26 1.64-8.21.93-1.85 3.8-5.45 6.58-7.92 2.67-2.46 8.53-6.16 12.95-8.32s10.68-4.32 13.97-4.93c4.94-.93 6.58-1.85 10.59-5.96l4.72-4.83.52-12.23c.51-9.97.2-13.87-1.54-21.89-1.24-5.34-2.16-12.85-2.16-16.54 0-4.01.82-9.77 1.95-13.57 1.13-3.7 2.98-7.91 4.11-9.35l2.16-2.67 8.43 5.03c5.44 3.3 12.84 6.48 20.34 8.84 6.48 2.06 18.5 6.06 26.72 8.94 8.12 2.78 16.55 5.96 18.6 7.1 2.16 1.02 4.52 2.87 5.45 4.2.82 1.24 1.64 2.37 1.64 2.57v.31l-.82-.1c-.41-.1-3.29.41-6.37 1.03-3.19.61-7.7 2.16-10.17 3.39-2.57 1.23-5.45 3.5-6.48 4.93-1.13 1.44-2.67 5.34-3.5 8.74-.81 3.8-1.43 11.81-1.43 20.96 0 12.95.2 15.41 2.05 19.32 1.24 2.36 3.19 4.93 4.32 5.55 1.23.62 7.91 1.03 17.06.92 8.32-.1 17.88-.51 21.27-1.02 3.4-.52 6.27-.93 6.37-1.03h.31l2.06 5.14 2.05 5.13-10.48.52c-5.75.3-11.61 1.23-13.15 1.95-1.44.82-3.9 2.67-5.35 4.32a27.55 27.55 0 00-4.42 6.78c-.92 2.05-1.54 5.96-1.54 8.73 0 2.98 1.13 7.5 2.88 11.72 1.64 3.7 4.73 8.73 6.88 11a30.3 30.3 0 008.12 6.26c2.37 1.13 5.04 2.16 6.07 2.16h2.76v.41c0 .2.72.93 1.75 1.44 1.54.93 1.23 2.16-3.6 12.64-2.98 6.37-5.45 12.13-5.45 12.74.1.52-.92 3.19-2.26 5.86-1.23 2.67-2.36 4.93-2.57 4.93h-.2v.52c0 .2-.3.51-.51.51h-.52l-3.29 3.5c-1.85 2.05-4.31 3.9-5.44 4.2-1.13.42-5.76 2.27-10.28 4.33a422.6 422.6 0 00-9.04 4l-.72.41-.72-4.41a50.26 50.26 0 00-2.57-9.66 51.57 51.57 0 00-5.04-9.46 35.08 35.08 0 00-7.3-7.3 23.66 23.66 0 00-7.8-3.8c-2.26-.4-5.55 0-8.94 1.03a35.6 35.6 0 00-9.66 5.34c-2.37 2.06-5.24 5.55-6.37 7.71s-1.96 5.24-1.96 6.89c0 1.54.83 6.27 1.96 10.58a99.12 99.12 0 004 12.44c1.13 2.57 2.57 5.03 3.19 5.44.62.41 1.13.31 1.13-.2 0-.52-.93-4.52-2.06-8.94-1.13-4.53-2.05-10.8-2.05-14.08 0-5.86.1-6.27 4.62-10.69 2.57-2.57 6.58-5.55 8.94-6.68a29.32 29.32 0 019.56-1.95c2.98 0 6.06.61 7.4 1.54 1.13.82 3.08 4.11 4.32 7.2 1.13 3.08 2.15 7.5 2.15 9.76s-.72 5.65-1.43 7.4a20.48 20.48 0 01-3.91 5.65c-1.85 1.64-4.32 2.46-9.86 2.98-5.35.4-7.82.3-8.95-.62-.92-.82-1.54-2.98-1.54-5.14 0-2.36.83-4.93 2.06-6.57 1.13-1.44 2.98-2.88 4.21-3.3 1.44-.5 2.98.1 5.04 2.16 1.74 1.65 3.08 2.37 3.08 1.55 0-.72-1.85-3.09-4-5.35-3.1-3.08-4.84-3.9-7.51-3.9-2.57 0-4.32.72-6.17 2.77-1.43 1.54-2.87 3.9-3.18 5.14-.3 1.34-.2 3.9.41 5.86.51 1.95 2.57 5.44 4.52 7.8 1.95 2.37 3.6 4.43 3.6 4.63v.52l-4.93 1.85c-2.68 1.02-7.2 2.77-9.97 3.7-2.88 1.02-7.3 2.46-9.76 3.28-2.57.83-5.25 1.44-5.97 1.44h-1.23l.41-.72c.2-.3.2-3.7-.1-7.4-.3-3.8-1.23-8.83-2.06-11.3a54.68 54.68 0 00-3.08-7.7 39.93 39.93 0 00-5.34-7.1c-2.67-2.88-4.52-3.8-6.89-3.8-1.95 0-4.83 1.13-7.3 2.88a45.64 45.64 0 00-7.5 7.3 165.7 165.7 0 00-7.6 10.68 297.92 297.92 0 00-9.15 15c-2.67 4.73-4.83 8.74-4.83 8.94v1.44h-.4c-.21 0-5.35-3.28-11.41-7.3-6.07-4-11.72-7.5-12.54-7.8-.72-.31-3.5.2-5.96 1.02l-4.63 1.75m9.46-16.95c-2.67-1.34-2.36-1.44 5.14-1.55 16.54-.1 24.35-8.32 24.35-25.48.1-13.26-2.26-16.13-12.43-15.93-6.07.2-10.9 2.16-16.03 6.89-4.83 4.31-5.86 7.3-4.42 12.84 2.67 9.97 8.84 12.13 15.51 5.34 2.16-2.15 4.22-5.13 4.63-6.67 1.23-4.94-3.6-7.81-7.2-4.22-2.56 2.57-1.95 4.52 1.24 4.22 3.18-.21 3.9 2.05 1.03 3.8-1.34.92-2.37.61-4.63-1.03-3.5-2.67-4.21-7.3-1.54-10.58 2.67-3.19 6.58-2.27 11.72 2.98 5.34 5.34 5.44 9.66.3 15.41-4.31 4.73-8.32 5.96-12.43 3.8-6.68-3.5-13.87-14.18-14.08-20.86-.2-7.3 12.23-15.72 23.02-15.72 4.52 0 6.68.51 10.28 2.88 6.06 3.9 7.7 5.96 9.25 11.5 2.46 9.15-.52 21.9-6.38 27.34-6.47 6.06-20.45 8.63-27.33 5.04m-98.45-29.6c-.41-5.75-.51-13.05-.3-16.13l.4-5.66 5.66-1.64c3.08-.93 7.4-2.06 9.55-2.47 3.5-.61 3.9-.51 3.4.93-1.75 4.52-5.76 21.48-5.76 24.15 0 5.24-1.75 7.91-6.17 9.66-2.26.92-4.62 1.74-5.13 1.74-.62 0-1.34-4.62-1.65-10.58m78.72-35.66l.61.41c.31.31 2.06-.2 3.7-1.13a71.02 71.02 0 018.94-3.5c4.83-1.53 6.58-1.74 9.87-.81 2.16.61 6.58 2.87 9.66 4.93 3.19 2.16 6.37 4.62 6.99 5.34.92 1.23.72 1.54-.93 1.65-1.13.1-4.52-1.24-7.5-2.88-4.62-2.57-5.96-2.88-10.9-2.37-3.38.31-8.93 2.16-13.97 4.63-4.62 2.16-8.73 4-9.04 4-.3 0-.51-.3-.51-.5v-.52l-1.03 1.85a72 72 0 00-2.67 9.04c-.93 3.9-2.27 7.6-2.88 8.22-.62.72-5.24 1.75-10.28 2.37-4.93.61-13.25 2.05-18.5 3.18a183.74 183.74 0 00-14.28 3.5c-4.52 1.33-4.83 1.33-4.83-.2 0-1.04.62-4.84 1.34-8.54.82-3.6 2.26-8.94 3.28-11.71a80.86 80.86 0 013.09-7.92c.92-1.74 2.77-2.98 5.86-3.8 2.36-.61 12.94-3.5 23.43-6.27 10.37-2.87 19.73-5.14 20.75-5.14 1.03 0 1.85.1 1.85.42 0 .2-.51 1.64-1.02 3.08l-1.03 2.67m-44.19-4.42c0-1.33 8.53-16.95 10.17-18.6.52-.51 6.07 1.44 12.85 4.52 6.58 2.98 11.61 5.76 11.2 6.17-.72.72-6.27 2.16-32.17 8.73-1.33.31-2.05 0-2.05-.82m114.27-2.05c-7.5-5.96-10.48-12.34-10.48-21.79 0-9.15 2.26-15.82 6.89-20.24 3.7-3.6 16.75-10.9 16.64-9.36 0 .42-3.18 3.09-6.98 5.96-5.14 3.8-7.6 6.48-9.77 10.8-2.67 5.13-2.87 6.37-2.57 15.51.31 9.46.52 10.18 3.4 13.16 2.46 2.57 3.8 3.18 7.8 3.18 7.92 0 14.8-2.67 18.2-6.99 5.44-6.88 5.24-18.08-.31-20.65-8.02-3.6-19.94 1.85-19.94 9.14 0 2.47.41 3.09 2.26 3.09 1.34 0 3.4-.82 4.63-1.65 1.95-1.33 2.15-1.95 1.23-3.7-1.95-3.6.1-3.6 3.18-.1 3.6 4 3.8 6.78.72 8.94-3.9 2.78-7.8 2.06-12.22-2.36-3.4-3.4-3.91-4.73-3.91-8.43 0-3.6.51-4.83 3.6-7.8 3.39-3.1 4.31-3.4 9.86-3.4 3.4 0 7.4.62 9.05 1.44 6.37 3.29 12.33 15.31 11 22.2-1.86 9.55-8.23 14.07-21.18 14.9-7.4.4-8.53.2-11.1-1.85m64.23-4.73c-2.98-2.67-3.29-3.6-3.29-8.43.1-4.72.52-5.75 3.4-8.32 3.9-3.5 6.57-3.9 3.49-.62-6.48 6.99-5.24 19.94 1.74 17.78 4.22-1.34 8.33-5.75 8.33-8.94 0-2.47-.41-2.98-1.65-2.57a8.4 8.4 0 01-2.15.72c-.21 0-.1 1.13.2 2.57.52 1.75.31 2.57-.72 2.57-2.67 0-5.96-3.19-5.96-5.76 0-5.75 9.76-5.03 13.67 1.03 2.26 3.4 1.54 5.76-2.98 9.76-4.73 4.22-9.45 4.22-14.08.2m-123.11-6.57c-3.9-2.16-4.32-2.16-5.24-.51-.52 1.03-1.85 1.85-2.78 1.85-1.02 0-8.63-3.29-16.95-7.3l-15-7.2 5.13-7.18a309.7 309.7 0 0113.16-16.14l8.01-8.94 13.05-.3 13.05-.32-1.64 3.9c-1.03 2.06-2.67 7.1-3.9 11l-2.16 7.1 3.08 2.15c11.2 7.92 13.67 15.32 7.09 21.69-3.29 3.29-9.25 3.29-14.9.2m-1.64-3.9c-.72-1.44 1.54-9.87 3.08-11.1 1.13-.93 5.55-1.54 8.63-1.34 1.54.2.82 4.42-1.64 8.53-2.26 4.11-8.53 6.48-10.07 3.9m1.43-51.89c3.09-2.77 18.91-12.95 19.43-12.43.72.72-2.78 10.58-4.22 12.23-1.13 1.33-3.8 1.95-9.76 2.36l-8.22.51 2.77-2.67m111.7-12.95c-4-3.5-8-10.07-9.14-14.59-1.03-4.52 1.24-9.45 6.48-14.08 9.86-8.73 13.77-8.01 5.03.82-8.12 8.23-10.17 15.11-6.27 20.87 2.37 3.39 3.5 4 6.79 4 5.75.1 13.05-5.03 14.9-10.27 1.95-5.55.3-7-8.74-7.4-6.06-.2-6.88.2-5.86 3.39.52 1.64 1.24 2.05 3.09 1.54 1.74-.41 2.77 0 3.5 1.44 1.84 3.39 1.22 4.32-2.27 4-3.7-.4-7.91-5.54-7.91-9.76 0-3.28 4.1-5.75 9.45-5.65 3.8 0 4.93.62 8.74 4.63 3.9 4.21 4.42 5.14 4.42 9.76 0 5.96-2.37 9.45-8.33 12.54-5.86 2.87-9.56 2.57-13.87-1.24"/>
    <path d="M471.19 348.46l1.85 3.8c1.02 2.16 2.26 5.44 2.57 7.5.4 1.95.72 4.11.72 4.83v1.34l-.31-.1c-.1 0-1.54-1.04-3.19-2.27-2.16-1.75-4.62-2.36-10.48-2.67-5.86-.3-8.32 0-10.28 1.34-1.95 1.23-2.46 2.56-2.46 5.54 0 2.06 1.02 5.86 2.26 8.33 1.23 2.47 3.08 5.03 3.9 5.55a6.1 6.1 0 004.11.3c1.44-.3 3.19-1.12 4.01-1.64 1.23-.72 1.34-1.54.41-3.8-.61-1.75-1.64-2.77-2.46-2.57-.83.2-3.19.62-5.35.93-3.6.5-3.8.3-3.8-2.16 0-1.54.92-3.3 2.26-4.22 1.54-1.13 4.62-1.54 9.66-1.54 4.11 0 7.7.41 8.12 1.03.3.51.82 1.03 1.03 1.03h.51l-.72 4.31a49.4 49.4 0 01-2.57 9.56c-1.03 2.78-1.85 5.45-1.85 5.86v.82l-.82.1c-.41.1-5.04.2-10.28.2-9.45.11-9.55 0-13.15-3.48-2.06-1.96-4.42-5.14-5.24-7.1-.82-2.05-1.54-6.06-1.54-9.14.1-3.7.82-6.78 2.46-9.66a21.8 21.8 0 015.86-6.68 28.33 28.33 0 017.2-3.29c1.95-.51 6.67-1.13 10.37-1.44 3.6-.2 6.79-.4 6.89-.51l.3-.1M444.47 278.58l1.03 4.62 1.02 4.62-3.39.62a27.4 27.4 0 00-6.37 2.16 25.27 25.27 0 00-5.96 4.21c-2.36 2.16-2.77 3.5-2.77 7.6 0 3.5.72 6.07 2.46 8.95 1.34 2.16 4.73 5.44 7.4 7.3 3.29 2.15 6.68 3.49 9.76 3.8 4.11.4 5.14.1 7.2-2.06a28.18 28.18 0 012.67-2.67l.3-.1.93 2.57c.62 1.33.82 2.56.52 2.56-.2 0-.41.21-.41.52v.51h-10.28l-.51.52-.52.5h-.3c-.11 0-5.14.32-11.1.63-9.77.51-11 .4-13.36-1.55-2.47-1.95-2.47-2.36-2.37-14.18 0-6.68.41-14.28.82-16.75.52-2.67 1.96-5.85 3.4-7.4 1.43-1.64 5.34-3.6 9.35-4.93 3.8-1.13 7.6-2.16 8.63-2.16l1.85.1"/>
    <path d="M448.58 291.93l.41 2.27c.3 1.23.82 3.39 1.03 4.62l.61 2.36-2.67-.61c-1.54-.31-3.39 0-4.1.61a5.21 5.21 0 00-1.45 3.6c0 1.34.41 2.67 1.03 3.08.62.41 1.95-.1 2.98-1.02 1.13-1.03 2.78-1.55 3.9-1.13 1.03.3 2.16.61 2.58.61h.82v3.5c0 .2-1.54 1.64-3.4 3.18-2.67 2.26-4 2.67-7.5 2.26a16.45 16.45 0 01-8.01-3.5c-2.88-2.15-3.7-3.7-3.7-6.05 0-1.65.62-4.12 1.54-5.35.82-1.23 3.5-3.39 5.86-4.73 2.46-1.33 5.65-2.77 7.2-3.08l2.87-.62M181.4 306.32l-1.55-5.14-1.54-5.13 1.54-4.12 1.54-4.1.93-.62c.51-.2 2.36-.72 4.1-1.03l3.2-.41-1.55 7.4-2.05 10.27-.52 2.88-.51.52-.3.72-.63.82h-.61l-1.03-1.03-1.03-1.03M294.43 284.74l.41-1.33.52-1.75c0-.2.3-.52.61-.72l.52-.3h.4c.32 0 1.65 1.74 2.99 3.8a37.5 37.5 0 006.27 7.19c2.77 2.46 4.73 3.39 7.6 3.39 2.78 0 4.52-.72 6.07-2.37a24.32 24.32 0 003.18-4.52c.62-1.23 1.23-3.7 1.23-5.55 0-2.15-1.02-4.1-3.08-6.27-1.95-1.95-3.9-2.98-5.34-2.77a5.52 5.52 0 00-3.29 2.06c-.82 1.33-.62 2.26.82 3.9l1.95 2.16 2.37-2.26 2.46-2.26v2.77c0 1.65-1.43 4.32-3.8 6.78-2.67 3.09-4.52 4.22-6.68 4.22-2.26 0-3.5-.82-5.03-3.4-1.44-2.25-1.96-4.72-1.75-7.7.1-2.36.1-4.32 0-4.32h-.2l.2-.4c.1-.21 3.8-3.4 8.22-7.2 4.32-3.8 8.32-6.78 8.94-6.78h1.13l2.78.51c1.54.3 4 1.44 5.44 2.47 2.47 1.74 2.47 2.26 2.47 13.56-.1 9.76-.41 12.33-2.26 15.83a28.97 28.97 0 01-4.52 6.37 23.12 23.12 0 01-6.27 3.8 23.81 23.81 0 01-8.12 1.64c-3.7 0-4.83-.61-8.22-4.2a22.37 22.37 0 01-5.65-10.29c-.93-3.39-1.85-6.06-2.06-6.06h-.3"/>
  </g>
  <g fill="#e9efff" fill-rule="evenodd">
    <path d="M302.65 484.1v-1.44c0-.2 2.16-4.2 4.83-8.94a297.92 297.92 0 019.15-15c2.26-3.5 5.65-8.22 7.6-10.69a45.64 45.64 0 017.5-7.3c2.47-1.74 5.35-2.87 7.3-2.87 2.37 0 4.22.92 6.89 3.8a39.93 39.93 0 015.34 7.1 54.68 54.68 0 013.08 7.7c.83 2.47 1.75 7.5 2.06 11.3.3 3.7.3 7.1.1 7.4l-.4.72-1.86 1.34c-1.03.72-3.6 2.05-5.86 3.08-2.26.93-4.52 1.75-4.93 1.75h-.72l-.2-10.59c0-5.75-.41-11.92-.72-13.56-.41-1.65-1.13-3.08-1.75-3.29-.62-.2-3.08 1.13-5.34 2.98-2.37 1.85-7.5 7.5-11.51 12.64-4.01 5.04-8.22 11.2-9.46 13.57-1.13 2.36-2.26 4.41-2.46 4.41h-2.88c-.82 0-2.47-.92-3.6-2.05l-2.16-2.06M130.01 415.25v-.51c0-.31-.51-.52-1.13-.52-.62 0-2.47-.92-4.11-2.05l-2.98-2.06-.1-.3c0-.1-.31-9.66-.62-21.07-.41-11.51-1.03-20.76-1.44-20.55-.4.1-5.75 4.62-11.82 10.07a2060.91 2060.91 0 00-16.03 14.08l-4.93 4.41-1.64-.51c-.93-.3-2.27-.51-2.98-.51-.83 0-3.5-.93-6.17-2.06l-4.62-2.05v-.31c0-.1.2-4.83.4-10.48.31-5.66.93-19.43 1.55-30.63.61-11.1 1.33-22.1 1.74-24.35l.62-4.01-7.09 2.26a1280.7 1280.7 0 01-19.32 6.27c-6.78 2.26-12.74 4.1-13.15 4.31l-.72.42 2.57-8.74 2.57-8.73h.4c.32 0 2.47-.93 4.94-2.06a643.7 643.7 0 0117.78-7.6l13.36-5.45.72-4.52c.4-2.57 1.64-10.69 2.87-18.2 1.13-7.5 2.47-14.79 3.09-16.13l1.02-2.56 4.63-1.55 4.62-1.54-.1.2c-.1.11-.41 8.95-.72 19.53-.51 18.6-.41 19.32 1.54 19.32 1.03 0 7-1.44 13.16-3.18 7.5-2.06 11.81-3.8 13.05-5.35 1.03-1.13 1.85-3.08 1.64-4.31-.1-1.13.1-6.27.52-11.3.4-5.14.92-12.44 1.23-16.24l.51-6.89v-.51c0-.31.82-.52 1.85-.52.93 0 2.37-.51 3.09-1.02l1.23-1.03v.62c0 .3.72.3 1.54 0a7.6 7.6 0 012.06-.62h.5l-.5 18.6c-.31 10.28-.42 18.9-.21 19.01.2.2 4-.41 8.43-1.23a966.5 966.5 0 0016.44-3.6c4.52-1.13 8.53-2.05 8.94-2.05l.82.1 2.06 1.64c1.13.93 2.05 2.47 2.05 3.5a10 10 0 00.62 3.49c.3.93 1.75 1.64 3.6 1.64h4l-1.54 4.11-1.54 4.12-.3.1c-.11 0-3.81.61-8.13 1.33-4.31.83-11.5 2.37-15.93 3.7-4.41 1.24-10.37 2.88-13.15 3.8-2.88.83-5.75 2.27-6.47 3.2-.83 1.02-1.24 5.54-1.24 13.97 0 6.78.2 13.36.62 14.7.51 2.05 1.23 1.74 9.97-5.25a317.14 317.14 0 0119.22-14.08 268.4 268.4 0 0113.66-8.94 24.86 24.86 0 014.32-2.26h.51l.31.52c.2.2.51.51.82.51.31 0 .83.2 1.24.51l.72.52 1.54 4.62 1.54 4.63-3.08 1.74a333.8 333.8 0 00-11.1 7.4c-4.32 2.98-15 11-23.54 17.78-8.63 6.78-15.82 13.26-16.13 14.39-.3 1.23-.41 11.5-.1 22.81.3 11.3.72 22.71 1.03 25.38.3 2.57.3 5.45 0 6.37l-.52 1.75h-4.11m-46.35-34.73c0-1.03.52-6.17 1.03-11.51.62-5.45 1.75-18.6 2.67-29.29 1.13-12.43 2.16-20.04 2.98-20.96.72-.72 4.11-1.96 7.4-2.78 3.3-.72 9.56-2.36 13.98-3.6 4.42-1.33 8.32-1.95 8.73-1.54.93.83.72 32.27-.2 37.1-.41 2.47-2.78 4.93-10.38 11.1a347.39 347.39 0 00-17.88 15.62c-5.65 5.24-8.33 7.1-8.33 5.86M254.36 398.81l1.54-4.62 1.54-4.63.61.41c.31.31 2.06-.2 3.7-1.13a71.02 71.02 0 018.94-3.5c4.83-1.53 6.58-1.74 9.87-.81 2.16.61 6.58 2.87 9.66 4.93 3.19 2.16 6.37 4.62 6.99 5.34.92 1.23.72 1.54-.93 1.65-1.13.1-4.52-1.24-7.5-2.88-4.62-2.57-5.96-2.88-10.9-2.37-3.38.31-8.93 2.16-13.97 4.63-4.62 2.16-8.73 4-9.04 4-.3 0-.51-.3-.51-.5v-.52M442.41 271.38l.93 1.24a7.04 7.04 0 011.13 2.87c.1.82.1 1.85.1 2.26l-.1.83-1.85-.1c-1.03 0-4.83 1.02-8.63 2.15-4.01 1.34-7.92 3.29-9.35 4.93-1.44 1.55-2.88 4.73-3.4 7.4-.4 2.47-.82 10.07-.82 16.75-.1 11.82-.1 12.23 2.37 14.18 2.36 1.96 3.6 2.06 13.35 1.55 5.97-.31 11-.62 11.1-.62h1.34l.51-.51.52-.52h9.25l3.08 4.22a77.51 77.51 0 013.08 4.62v1.44h-.3c-.11.1-2.99.51-6.38 1.03-3.39.51-12.95.92-21.27 1.02-9.15.1-15.83-.3-17.06-.92-1.13-.62-3.08-3.19-4.32-5.55-1.85-3.9-2.05-6.37-2.05-19.32 0-9.15.62-17.16 1.44-20.96.82-3.4 2.36-7.3 3.5-8.74 1.02-1.44 3.9-3.7 6.47-4.93a47.28 47.28 0 0110.17-3.4c3.08-.61 5.96-1.12 6.37-1.02l.82.1"/>
  </g>
</svg>
