<svg version="1.0" xmlns="http://www.w3.org/2000/svg" class="contact-image" viewBox="0 0 10180 10180">
  <g fill="#a1887f" stroke="#a1887f" stroke-width="5" fill-rule="evenodd">
    <path d="M2760 8440h65c2 0 5 2 5 5 0 2 6 5 15 5 8 0 15-3 15-5v-5h0l5-38 5-45v-47l-5-5-5-5v-44l-6-147c-3-58-6-108-5-112l1-7-5-5-5-5 1-3 3-52c1-28 1-79-1-113l-3-62v-20h0l5-5 5-5-2-3-6-170c-4-140-2-176 11-211 9-24 31-57 49-74s63-51 100-77l68-45 5-5 5-5h0l5-5 7-3 3-2 5 10h5c2 0 5-3 5-5v-15l17-17c10-9 35-28 57-42 22-15 61-48 87-74 25-26 52-48 60-48 7 0 36-17 64-39 27-22 96-74 152-115l103-75h10v5c0 2 4 5 10 5 7 0 27-8 46-17 18-9 40-29 49-45l15-28h0l11-10c6-5 23-12 37-16 15-3 34-13 44-22s18-24 18-34v-18l-5-5-5-5v-20h0l15 11c8 6 13 13 11 16-3 2 21 52 51 111 31 58 69 127 84 151a846 846 0 01103 276c9 44 16 85 16 92v13h0-10c-6 0-10 19-10 42 0 24-8 54-17 67-12 17-14 25-5 28 6 2 12 6 12 8v5h0l-11 7c-5 4-57 66-114 138-57 71-133 163-169 205-36 41-80 91-96 112l-30 38h0l-37 26c-19 15-41 39-47 53s-23 40-39 58c-15 19-30 51-34 75-5 33-19 56-64 103-31 33-64 74-73 92-9 17-16 36-16 42v21h0l-38 27c-21 15-61 51-89 79s-64 58-80 67a660 660 0 01-206 47c-23 0-83-12-135-27-51-14-92-28-92-30v-3M2500 8340h-8c-4 0-11 2-15 5l-7 5h0-20 0v-5c0-3 5-6 12-6 7-1-8-7-32-14-25-7-77-25-115-40s-127-56-196-91c-70-36-129-64-133-64h-6 0l-7-5-8-6-18-15-17-14h0v-3c0-1 9-15 21-30 11-16 36-35 55-42 19-8 51-33 71-56 21-23 56-51 78-62s69-50 105-86c35-37 124-117 197-180l132-113 25 18c14 10 25 22 25 26s-6 8-14 8c-12 0-15 12-15 54 0 30 3 56 7 59 4 2 6 36 5 76l-2 71h0-5c-3 0-5 6-5 15 0 8 2 15 5 15h5v122c0 62 2 123 5 135l5 23 5 5 5 5h0l5 5 5 5h20c5 0 10 3 10 8s-12 17-25 26c-14 9-25 23-25 31v45l5 5 5 5v80l-23-1c-12 0-44-5-70-10l-47-9M970 6880h8c5 0 34-12 65-26 30-14 97-36 148-50 52-13 128-35 171-49l78-25 5-5 5-5 6-5c4-3 9-3 12 0 3 2 6 5 8 5h14l5-5 5-5v-4c0-2 30-10 67-17s84-21 105-31c20-10 41-18 47-18s11 2 11 5v5l5 5 5 5-6 104c-4 68-2 106 5 110 6 4 11 10 11 15 0 4-9 10-19 13-14 4-20 18-25 68-4 34-7 88-7 118 0 31-2 87-5 124l-4 68 5 5 5 5-5 52-11 143c-3 49-8 95-10 102l-4 13-5 5-5 5 10 35c6 19 8 39 5 44s-5 18-5 30v21l5 5 5 5-6 37a1461 1461 0 00-15 180l1 43h0l-6-4c-3-3-32-16-64-30-32-15-61-26-65-26s-56-21-114-46l-126-54-100-41a3828 3828 0 01-355-164c-29-17-63-43-74-58-19-26-20-32-9-97 7-37 23-102 36-142a9419 9419 0 01142-378c15-36 31-71 36-78l9-12M8490 7880v60h0-5c-3 0-5-14-5-30 0-17 2-30 5-30h5M1925 7325l5-5v-40l-5-5-5-5v-3l15-157c8-86 19-180 24-210 6-31 15-113 20-184 5-70 15-134 21-142 6-7 39-22 73-33s87-22 119-26l58-5h5c4 0 11 2 16 5s11-1 14-10l5-15h0l25-10c14-6 37-10 51-10 13 0 41-12 61-25 21-14 41-25 45-25h8l9 11c6 7 12 10 15 7s6-8 6-12v-6h0l47-5c29-2 50 1 55 8 4 6 7 32 7 58 0 29 6 50 16 57l15 12h0l-10 15-10 15h0l-9 217c-5 120-12 260-16 313l-8 95-129 109c-70 59-128 112-128 116s-31 26-68 50-101 79-142 121l-90 92-83 78c-37 34-71 59-74 55-4-4-2-60 5-124 7-65 16-142 21-172 5-31 9-86 10-123l1-72v-5M2930 6340l5-5 5-5 65-15 65-15 5-5 5-5 32-5 40-5h8l5 5h0l5-5 10-10 10-10 5 5 5 5 3 5c2 2 11-4 21-15 12-13 31-20 52-20h44c6 0 20 4 30 10 13 6 26 7 37 1 10-5 26-19 35-31l18-20h17a226 226 0 00106-26c16-8 51-14 77-14 32 0 52-6 59-15l11-15h5c2 0 5-5 5-10 0-6-3-10-5-10h-5 0l-5-5-5-5v-30h0v-5c0-3-3-5-5-5h-5 0v-20h0l15 25c8 13 17 25 20 25h15l-5 15c-3 9-5 32-5 51s12 60 28 91c15 32 26 65 24 75s-6 18-8 18h-14l-5 5-5 5-63 40-152 99-113 74-22 17-5 5-5 5h-4a1923 1923 0 00-266 195c-41 37-105 87-142 111-38 25-75 58-84 74-8 16-21 30-29 30-10 0-16-19-21-58a6128 6128 0 018-589c2-2 18-6 36-8l32-5M5130 6790h5c2 0 5-3 5-5v-5h5c2 0 5-3 5-5v-5h5c2 0 5-3 5-5v-5h5c2 0 5-3 5-5v-5h5c2 0 5-3 5-5v-5h5c2 0 5-3 5-5v-5h5c2 0 5-3 5-5v-5h5c2 0 5 2 5 5v5h0-5c-3 0-5 2-5 5v5h0-5c-3 0-5 2-5 5v5h0-5c-3 0-5 2-5 5v5h0-5c-3 0-5 2-5 5v5h0-5c-3 0-5 2-5 5v5h0-5c-3 0-5 2-5 5v5h0-5c-3 0-5 2-5 5v5h0-5c-3 0-5-3-5-5v-5M1060 6560v-7c0-3 4-25 11-47a5691 5691 0 01171-457c31-70 65-161 77-204s33-99 48-124 44-63 65-84c26-26 46-37 67-37 16 0 63-14 104-31 42-16 90-32 109-36 18-3 60-16 94-30 34-13 69-23 78-23h16v3l5 10 5 7v10l-22 35c-15 25-23 59-26 108-2 39-11 92-19 117-8 24-26 144-40 265-15 137-30 228-39 242a51 51 0 01-45 23c-16 0-80 24-142 54s-169 74-238 99c-69 24-153 58-187 75-34 18-67 32-72 32h-20M2005 6135l-5-5 3-8 15-29c7-13 16-89 21-170l16-218c3-39 10-104 15-145l15-108 5-32h0l3-6a1121 1121 0 01137-41c13-3 38-11 55-19 16-8 68-24 115-35 46-11 130-34 186-50l107-29h7l-7 129c-6 111-4 133 10 155 9 13 17 27 17 30s-7 6-14 6c-8 0-19 5-24 12-6 7-14 72-18 145s-11 133-16 133-8 2-8 5v5h-10v20h10l10 20 10 20-5 5-5 5-5 42c-3 28-12 48-26 60a93 93 0 01-51 18c-16 0-47 9-68 20-22 11-48 20-58 20-11 0-68 15-128 34a3484 3484 0 01-286 75c-4 0-9-12-11-27l-6-30-1-2m382-424c-14-12-15-17-3-30 19-24 27-20 29 14 2 33-1 35-26 16m-43-316c-6-11-6-20-2-20 11 0 33 21 33 32 0 15-21 7-31-12M2860 5940h11c7 0 10-3 7-5-3-3-8-5-12-5h-6 0l-1-123c0-67 4-188 10-267 5-80 10-189 10-243l1-97h8c4 0 10-3 13-5 3-3 8-5 12-5h7v10h5c2 0 5-3 5-5v-5h-10v-6c0-3 12-10 27-16l60-24 33-14h0l12-15c7-9 23-15 36-15s42 5 63 11c31 9 38 16 33 30-4 13-2 17 8 13 8-3 20 2 27 10 7 9 19 16 26 16s37 41 67 92 81 141 112 200 59 108 61 108h5l20 40 20 40h0v20c0 11 1 20 4 20 2 0 13 15 25 33 11 19 21 39 21 45s-9 15-20 21c-10 6-22 11-25 11h-5 0v-15c0-3-8-5-18-5s-24 4-32 10l-18 9-2 1h0l-25 15-25 15h0l-23 5-92 14c-39 6-91 17-117 24-34 11-49 12-57 4-6-6-13-8-16-4l-5 7-5 5h-10l-5 5-30 6c-17 3-30 8-30 10v14h0-7c-4 0-9 2-12 5-3 2-9 5-13 5h-38v10h-17c-9 0-25 6-34 15-14 13-18 13-28 1-6-7-11-16-11-20v-6"/>
  </g>
  <g fill="#544e61" stroke="#544e61" stroke-width="5" fill-rule="evenodd">
    <g>
      <path d="M8805 8765l-5-5h-5c-3 0-5-2-5-4s-7-9-15-15l-15-11-5-5-5-5h-5a245 245 0 00-35-29l-30-21-5-5-5-5-12-10a506 506 0 01-64-55l-44-45-5-5-5-5h0v-5c0-3-3-5-5-5h-5 0l-5-5-5-5-13-11-17-15-48-44-42-40-5-5-5-5h-5c-2 0-28-23-58-50-37-34-63-69-82-111-18-40-24-65-18-73l62-76c29-36 60-81 70-101 10-19 24-63 31-97s10-102 8-153c-5-90-6-93-75-228-39-75-81-163-93-196-13-33-39-77-57-98l-33-37-5-5-5-5-5-7-5-10v-3l-5-5-5-5v-3c0-2-6-9-12-15-7-7-25-12-41-12s-70 11-120 25-132 42-182 61c-50 20-114 53-142 74-31 24-59 55-72 82-12 25-21 63-21 88s8 76 18 115c11 38 25 83 32 100 7 16 12 68 12 115 0 46-7 113-16 147-9 35-32 97-51 137-18 41-55 97-81 125-25 27-68 64-95 81-26 17-103 49-171 71s-130 47-139 54c-11 10-35 12-92 7-74-5-77-4-77 15 0 12-5 24-10 28-6 3-10-1-10-9s-7-19-14-26c-8-6-41-16-73-21l-61-9h-2l-5-5-5-5h-9c-5 0-24-6-43-12-18-7-44-18-56-25l-22-13-5-5-5-5-10-5-10-5-5-5-5-5h-5c-3 0-5-3-5-5s-7-9-15-15l-15-10-5-5-5-5h-5c-3 0-5-3-5-5v-5l-5-5-5-5h0v-5c0-3-3-5-5-5h-5 0l-5-5-5-5-10-15-10-15-5-5-5-5h-5c-2 0-27-47-54-103-38-77-55-125-66-191-9-49-15-91-15-93v-3l5-5h0l-5-5v-17c0-9-11-46-24-82a2618 2618 0 01-111-428c-9-54-15-122-15-150 0-41 8-67 37-123 21-39 41-73 45-76l8-4 5-5 5-5 10-6 10-8c0-2 11-13 25-25l25-21 5-5 5-5 60-35 60-35 5-5 5-5 5-4a2890 2890 0 01265-122c25-9 88-19 141-22s101-8 105-11c5-4 37-61 71-128 51-99 65-135 72-195 6-40 10-137 10-215s-2-149-4-158l-5-15 5-5h0l-5-5-1-23c0-12-16-88-35-167-29-119-37-172-42-286a864 864 0 0167-412l1-2 5-5 5-5v-7c0-4 2-9 5-12 2-3 5-9 5-13v-8h0l6-5c4-3 4-8 0-12-3-4-6-4-6 0v7h0l-30 5-30 5h0l-36-58c-19-32-41-79-49-105-8-27-24-60-35-74s-25-45-31-67c-6-23-17-48-24-56-7-9-31-51-53-95s-52-110-68-145c-16-36-38-77-49-91s-34-63-49-110c-16-46-38-94-47-105-10-11-26-36-34-57-9-20-15-66-15-101s6-103 15-151c8-48 30-133 49-189 18-56 72-211 119-345s89-248 95-254 17-5 30 2c12 6 22 8 22 4s-8-15-16-24c-9-10-19-44-22-79-5-54-8-62-30-67a140 140 0 00-119 39c-12 12-51 76-87 142-37 66-74 142-83 169-12 38-13 54-4 74s8 30-5 51c-10 15-26 37-38 49a75 75 0 01-46 23c-14 0-41 9-59 20a907 907 0 00-193 200c-7 20-17 30-31 30-12 0-29-8-39-17s-18-20-18-25 6-8 13-8c8 0 20-15 27-33a809 809 0 01118-181c20-21 62-56 94-78s58-46 58-55-9-46-20-82c-11-37-26-104-34-150-8-47-13-90-10-96 2-6-2-27-10-46s-17-59-21-89c-3-31-10-134-15-230-5-116-14-193-25-226-9-28-31-80-49-114-17-35-42-70-54-78-20-13-24-12-52 15-17 17-37 54-47 89-16 49-18 92-18 269 1 151 7 256 23 376 12 92 19 174 15 183-3 8-9 16-14 16-4 0-19-14-34-31-14-17-25-35-25-40s-11-25-25-45c-13-19-47-93-74-163a3408 3408 0 01-149-491c-4-35-15-55-44-84-35-35-43-38-75-33-20 3-44 13-54 22-11 9-27 37-36 63-11 28-18 74-18 122 0 69 2 81 24 104l24 26h-28c-22 0-26 3-20 17 3 10 11 31 15 48 5 16 15 72 23 125 11 70 25 117 55 181 23 48 42 91 42 97s10 44 23 85c16 50 21 79 15 90-5 9-16 17-23 17-8 0-34-23-59-51-28-31-50-68-57-93-6-23-27-91-46-150-20-60-43-145-52-189-9-43-21-79-26-80-6-1-25 18-43 41-28 37-32 51-32 101a584 584 0 0042 199c8 9 8 15 0 20s-2 28 23 76c19 38 35 75 35 82 0 8 4 14 9 14s12-5 16-11c3-6 1-17-5-24-8-9-8-16-1-20 5-4 19-2 30 4s21 18 21 26-11 19-25 24c-13 5-26 14-29 19-4 5 0 15 9 22 8 6 15 20 15 31 0 10 15 28 34 41 20 12 35 30 35 40s5 18 11 18c5 0 9 10 9 22s-3 27-7 33-15 14-25 17c-9 4-31 2-47-4-19-6-30-17-30-28 0-10-15-34-33-52-18-19-48-56-67-84-30-43-35-47-38-27-2 12 3 50 12 84s25 81 36 106c19 44 20 45 44 29 13-9 26-13 29-9l11 36c5 24 10 27 30 23 14-4 28-1 36 9 6 8 18 15 25 15s23-21 36-45c12-25 26-45 30-45 5 0 9-9 9-20s4-22 9-25 16-3 25 1c10 3 21 17 26 31 7 17 6 29-1 38s-7 15 1 20c7 4 15 2 19-5 4-6 14-8 23-5 13 5 16 1 13-15-3-11-7-25-11-31-3-6-2-16 3-22 5-7 12-23 15-36 6-21 4-22-24-16-24 5-30 3-26-7 2-7 14-18 26-25 12-6 25-14 29-19 4-4 2-4-5-1-8 5-12 2-12-7s5-18 11-22c7-4 26 10 46 34 19 23 40 42 48 42 7-1 16-5 19-10 4-6-1-24-10-41-9-18-21-29-29-26s-16-3-19-14c-3-13-13-19-30-19-14 0-28-5-32-11s1-19 11-30 26-19 36-19c12 0 19-8 19-20 0-11-4-22-9-25s-22 5-37 16l-27 22-19-23a86 86 0 01-18-47c0-13 4-23 8-23 5 0 12 11 16 25 3 13 10 25 16 25 5 0 10-11 10-25 0-13 2-31 6-40 3-8 10-15 15-15 4 0 9 9 9 20 0 14 6 20 24 20 13 0 26 5 28 12 4 9 12 5 27-10 12-12 28-22 36-22 11-1 13 4 6 17-4 10-6 37-4 60 3 28 10 43 19 43 7 0 14 4 14 9s-4 12-9 15-6 28-4 56c4 37 12 58 29 75 14 14 22 29 18 35-3 5-15 10-25 10-19 0-19 1-4 30 9 17 14 33 12 36-3 2-12 1-20-2s-18-23-21-44c-4-26-12-40-25-43-11-3-34 2-51 10-26 13-31 20-25 37 4 11 9 37 12 58 2 21 9 40 14 43 4 3 9 12 9 20 0 7-14 29-30 48-17 19-30 39-30 45s3 12 8 12 12-9 14-20c5-17 14-20 57-20 28 0 51 4 51 10 0 5-6 10-13 11l-30-1c-10-1-17 0-17 2 0 3 4 19 11 36 8 24 8 36-1 45-8 11-6 15 12 20 17 5 20 8 10 18s-15 10-25 0c-6-6-23-11-38-11-22 0-28-7-38-40-9-29-24-47-57-70-38-25-48-28-64-18-16 9-23 8-42-8-12-11-19-15-16-8 4 6 12 23 17 38 11 27 12 27 30 11s21-16 50 6c18 13 27 25 21 27s-10 10-10 17c0 8 9 15 22 15s29 5 35 11c7 7 13 16 13 20 0 5-11 8-23 8s-36-8-52-19-33-17-37-14c-5 2-8 13-8 24s16 44 35 74c26 39 34 60 29 76-5 17-3 21 12 18 12-2 20-14 22-31 2-18-3-30-13-34-8-3-15-11-15-18 0-6 13-24 29-40 16-15 33-25 39-22 5 4 7 16 4 27-3 14 0 19 13 20 16 0 15 2-5 24-20 21-22 31-18 104 3 51 11 91 21 106a588 588 0 00177 126c30 10 40 10 64-3 28-15 28-15 7-22-12-4-21-12-21-17 0-7 15-9 41-6 22 3 46 11 52 18 9 9 8 13-1 17-7 2-12 9-12 14 0 6 10 8 23 5 17-5 26-2 31 10 5 13 0 15-29 12-24-3-37 0-40 10-4 8 3 24 14 36s21 32 21 44c0 13-7 22-16 22-8 0-19-12-24-25-6-14-15-25-22-25s-23 9-35 21c-13 12-23 29-23 38s5 22 11 28c7 7 16 13 19 13 4 0 10-9 12-20 3-11 13-20 22-20 8 0 16 4 16 9s-5 12-10 15-15 18-23 33c-13 27-13 28 17 30 22 1 26-1 16-7-12-8-11-11 9-18 16-6 33-4 58 9 27 13 40 15 55 7 10-5 22-7 25-4 4 3 7 25 9 48 1 35 8 47 37 70 22 18 33 34 30 43-3 8-10 15-15 15-4 0-8-7-8-14 0-8-8-17-16-20-9-4-21-6-26-6-6 0-8 10-4 25 5 23 4 25-14 20-16-5-21-1-26 20-5 19-1 34 15 55 17 24 18 30 5 30-8 0-18 6-21 15-3 8 0 21 7 30 6 8 19 14 28 14 11 0 9-5-8-14-25-15-25-15 18-15 24 0 40 4 37 9s-1 12 4 15c6 4 1 21-11 43-19 35-20 42-8 105 9 47 16 65 23 58 6-6 14-10 19-10 4 0 8 9 8 20 0 12 13 53 28 93l61 140c18 37 41 77 52 88s23 35 25 52c3 17 16 54 29 82 14 29 25 63 25 78v37h0-8c-4 0-12 1-17 4l-18 5-7 1h0-6c-2 0-34-62-71-138l-125-272-145-330-123-280c-21-47-45-107-54-134-10-27-24-55-32-64-9-8-18-27-21-43-4-20-19-35-57-55a1266 1266 0 01-293-241c-43-46-95-108-117-136a2690 2690 0 01-210-429c-15-43-29-110-33-151-6-69-5-75 21-105 15-18 34-32 41-32 8 0 15-9 15-19s-14-60-30-112c-26-77-30-109-30-192 0-65 4-108 14-125a228 228 0 01122-103c28-8 44-19 48-33 3-12 5-58 5-103 0-46 7-99 15-123a421 421 0 01116-161c21-15 46-21 83-22 30 0 66 7 84 16 17 9 34 25 38 37 3 11 10 18 14 15 5-3 13 1 20 9 6 7 23 60 36 117a24401 24401 0 00101 396c8 29 17 53 20 53s2-26-1-58-9-105-12-162c-3-58-1-153 5-210 8-75 19-121 37-157 14-28 43-68 65-88 29-26 49-36 77-37h58c11 1 37 21 58 44a538 538 0 01116 248c5 35 14 143 20 240a5265 5265 0 0060 495c5 37 9 44 14 30 4-11 31-68 59-125 35-70 70-123 103-157 35-37 62-55 94-64 25-6 67-9 94-7 26 3 60 14 75 25 14 10 37 35 50 53 20 29 23 43 19 90-3 30-17 86-31 125l-43 120-59 160c-23 60-70 194-104 297s-65 217-69 253-5 90-1 120c6 38 37 114 109 262l111 223 48 85c22 38 43 81 47 95 4 13 17 38 30 55a830 830 0 0184 160c0 6 12 26 26 45 13 18 25 41 25 50 0 10 6 20 15 23 8 3 15 12 15 19s23 24 50 37c28 14 55 31 60 38l10 13h0l-22 21c-11 12-36 53-54 93-19 39-46 116-61 171-22 82-27 119-26 210 1 61 8 134 16 165l15 57 2 3-5 5h0l5 5 5 27 16 73 14 57 5 13-5 5h0l5 5 6 32c3 18 6 118 6 223-1 148-5 199-17 234-9 26-14 57-10 73 5 20 2 28-9 28a514 514 0 00-130 129c-5 11-16 22-25 26-9 3-57 12-107 20-50 7-123 26-163 40-40 15-78 36-85 46-6 10-22 19-34 19-13 0-45 11-72 24a1107 1107 0 00-251 193c-23 26-53 70-66 98-13 29-24 72-25 105v62l2 8-5 5h0l5 5v22c0 12 11 70 25 128 14 57 37 143 51 190 15 46 32 112 39 145a5620 5620 0 0086 325c12 35 32 79 45 97 14 18 42 41 62 52a678 678 0 00241 53h83l8-2 5 5h0l5-5h13c8 0 27-3 43-6l36-5 8 1 5-5 5-5h7a1732 1732 0 00280-101c44-22 95-56 112-75l31-34 5-5 5-5 6-13 30-49c12-20 33-65 45-100 17-48 22-86 22-153 0-70-5-102-22-143-17-43-21-73-21-159 0-79 4-115 17-142 9-20 36-53 60-74l43-37 5-5 5-5 9-5c5-3 11-5 15-5h6l5-5 5-5 47-20 103-39c30-11 88-30 129-41s88-20 103-20c20 0 43 13 78 46a896 896 0 01190 259c17 38 69 146 115 240 78 155 86 177 95 255l9 87 1 3h0-5c-3 0-5 13-5 30 0 16 2 30 5 30h5l-6 57c-4 37-19 84-42 130-20 40-44 80-54 89s-18 24-18 33 37 53 83 96l85 82 2 3 5 5 5 5 45 35 45 35 5 5 5 5 82 63c45 36 90 74 100 85l18 22 5 5 5 5 20 25c12 13 23 25 25 25s6 4 9 10l6 10 5 5 5 5 25 30 25 30h0l-7 42c-3 23-7 44-8 45s-5 3-9 3h-6 0-5c-2 0-6-6-8-13l-12-30-9-18-54-50-52-49M6160 4475c-15-21-13-45 4-45 18 0 29 36 16 50-7 6-14 5-20-5m-48-115c-10-17-21-30-25-30s-7-6-7-13c0-8 15-12 44-12 53 0 68 10 32 24-15 5-26 16-26 23 1 10 2 10 6 0 6-15 44-17 44-2 0 5-12 16-25 25-24 14-26 13-43-15m-442-645c0-16 5-25 15-25 9 0 15 9 15 25 0 15-6 25-15 25-10 0-15-10-15-25m-90-29c-15-47-13-61 8-80 27-24 39-20 51 17 14 42 8 62-24 82-25 14-26 14-35-19m-30-88c-6-7-6-18 0-30 9-16 6-18-18-18-36 0-46-9-31-27 18-21 42-16 71 17 28 30 28 30 8 50-15 14-23 16-30 8m0-118c0-11 4-20 10-20 5 0 10 6 10 15 0 8-5 17-10 20-6 2-10-4-10-15m-95-23c-20-29-20-67 0-67 21 0 37 44 25 70-10 19-11 19-25-3m185-43c0-8-8-18-18-22-16-7-16-10-1-40 13-27 18-30 32-20 8 7 21 26 27 42 9 24 8 32-5 43-21 17-35 16-35-3m90-40c0-9 4-15 10-13 13 5 13 17 0 24-6 2-10-3-10-11"/>
      <path d="M3490 5580l2-1c1 0 39-70 83-156s87-169 97-185 22-27 26-24c5 3 12-8 15-23 3-16 51-112 107-213a15192 15192 0 01270-468l77-135c37-66 86-139 108-163 27-27 50-42 66-42 13 0 38-11 56-23 17-12 58-56 91-98 32-42 68-96 80-120 11-24 36-71 56-104 19-33 50-92 69-130 19-39 58-142 86-230 29-88 63-190 76-225 21-57 23-76 18-150-3-47-10-93-15-102-7-14-14-15-46-7-21 6-43 17-50 26s-12 26-12 38a452 452 0 01-60 171c-13 14-27 20-40 16-11-2-23-16-27-29-3-13 0-37 6-53 9-20 13-112 14-293 1-188-2-270-11-290-7-17-20-27-32-27-14-1-31 16-51 47-16 26-34 63-39 82-5 20-11 123-14 231-4 112-12 219-20 253-8 32-23 68-34 79-16 16-24 17-41 9-14-8-24-29-32-68-7-35-10-117-8-213 3-139 2-155-13-153-10 2-18-6-22-19-3-13-4-25-1-27 2-2 11 1 19 8 13 11 16 9 16-18 0-16-14-82-30-146-17-64-39-133-50-155s-25-42-30-45c-6-4-10-17-10-30s-7-29-16-36-19-9-24-4-19 39-31 75c-17 49-23 96-27 195-4 95-1 138 8 155l12 23 18-22 18-22 7 23c4 12 16 30 28 39 12 10 19 20 16 23s-20 0-37-7c-24-9-34-9-47 2-8 7-15 25-15 39 0 19 2 23 8 13 6-9 17-11 30-7 12 4 21 12 21 19a277 277 0 01-33 93c-3 4-6 22-6 40 0 17 4 44 10 59 8 21 6 35-8 63-10 19-25 40-34 45-12 7-23 6-41-6-17-11-33-39-48-85-12-37-24-94-26-127-3-33-7-66-9-73-3-10-10-10-34 2-16 9-32 16-36 16-3 0-12-16-20-36-8-19-12-40-9-45 4-6 13-6 24 0s29 11 40 11c21 0 21-1 3-25-9-14-25-25-35-25-11 0-17-8-17-20 0-14 6-20 20-20 12 0 19-7 19-18 0-10-4-34-10-55-6-20-20-42-31-48-19-10-19-12-3-24s15-19-23-97c-23-46-50-93-62-103-17-15-26-17-39-9-9 6-24 37-33 70-9 32-17 68-18 80 0 15 7 25 22 30l23 7-25 6c-22 5-27 14-32 56-4 27-7 82-8 122 0 61 3 75 21 92l22 20-24 9-24 9 22 11c13 7 23 18 23 25s13 25 30 40c21 19 30 36 30 58 0 23-4 29-13 21-8-6-20-5-35 3-20 10-21 13-8 24 9 7 16 17 16 22s-7 9-15 9-20 9-26 20-8 35-5 53c4 17 16 55 28 85 11 29 23 48 27 42s20-8 39-4c17 3 35 10 38 16 3 5-1 17-10 26-11 10-16 12-16 4 0-7-11-12-23-12-13 0-29 5-35 11-7 7-12 18-12 24 0 7 31 14 87 18 52 3 91 2 97-4 5-5 20-9 34-9 13 0 30-8 37-18 12-16 13-15 8 5-3 13-10 25-15 28s-8 11-8 18c0 6 18 22 40 34a492 492 0 01141 127c17 23 29 51 29 70 0 17-6 37-13 44-6 6-21 12-33 12s-45-27-85-68c-35-37-77-74-93-82-22-12-32-12-47-3-11 7-24 13-30 13s-8-9-4-20c4-16 1-20-13-20-11 0-34-8-51-16-17-9-44-14-59-13-24 3-28 8-31 41-2 26-7 38-18 38-13 0-14 2-3 15 6 8 16 15 21 15s9-8 9-17c0-13 7-15 42-9 23 3 45 11 49 18 4 6 5 16 2 22-2 6-13 11-24 11s-20-4-21-10v-18c1-4-2-7-6-7s-16 6-26 14-25 12-32 9c-8-3-14-1-14 5 0 7-5 12-12 12-6 0-8-8-4-18 3-11-1-9-13 6l-19 24-6-27c-6-22-2-32 24-56 18-16 30-37 28-47-3-12-15-18-42-21-21-1-46 0-54 3-13 5-12 10 7 30 15 16 24 38 25 66 1 31-3 44-19 55-11 8-26 15-34 15-12 0-11-4 2-19 9-10 17-21 17-25 0-3-9-6-19-6s-24-13-32-28c-9-19-14-23-17-12-2 8-18 22-35 29l-42 18c-6 2 3-8 19-23l29-26-29-23c-25-20-27-25-15-40 8-9 22-21 32-26 13-7 25-6 43 6 24 16 26 16 26 0 0-9-9-33-20-54-10-20-37-56-60-79-22-24-49-42-60-42s-20 2-20 6c0 3 9 21 20 39l20 33-27 26c-26 23-29 24-38 8-5-10-11-31-12-47s-9-34-17-41c-15-10-14-13 6-22l23-10-27-11c-15-6-29-21-32-36-4-14-11-25-17-25-5 0-9 12-9 28a440 440 0 0055 182c13 24 28 62 35 82 6 21 22 45 35 54 18 12 25 25 25 52 0 20 8 56 18 81 9 24 23 46 31 49 11 3 12-6 7-50l-9-73c-2-13 4-21 16-24 16-3 18 1 14 18-3 12 1 38 9 58 14 33 14 39-1 64-8 14-15 33-15 41s15 46 34 84 51 88 71 111c28 33 40 41 50 32 9-7 14-7 16 1 3 7 12 8 28 2 18-7 20-10 8-15-10-4-13-14-10-32 3-14 2-32-1-41-5-11-11-13-24-6-15 8-19 6-20-10-1-14 3-18 13-15 8 3 15 0 15-6 0-9 2-10 7-1 4 6 20 11 35 10 16-1 27-7 27-16 0-8-9-25-21-37-12-13-19-26-16-29s29-9 59-14c29-5 57-6 61-4 4 3 8 9 8 15 0 5-5 7-10 4s-21-3-35 0c-14 4-25 11-25 16 0 4 6 9 15 9 8 0 15 2 15 5s-5 15-12 26c-9 18-6 24 17 43 17 14 24 25 17 29-6 4-8 16-5 27 3 13-7 46-23 81-27 56-28 62-14 87 8 14 25 28 37 30 14 2 23 12 28 32 3 16 3 39-1 50-5 16-12 20-31 17-19-4-28 1-39 24-9 16-13 33-9 39 3 5 3 10-1 10-3 0-12-7-20-15s-14-19-14-25 6-10 15-10c8 0 15-7 15-15 0-9-5-15-9-15-5 0-20 8-33 19-23 18-23 19-4 40 11 12 14 21 6 21-6 0-19-7-27-16-8-8-20-12-26-8-7 4-9 1-4-11 3-9 7-32 7-50 0-20 5-36 14-39 8-3 28 1 45 10 25 12 34 13 46 3 8-6 15-20 15-30s-5-21-10-24-12-1-15 4c-4 6-13 11-22 11-8 0-23-20-34-44s-26-49-34-56c-11-9-15-8-20 9-4 11-14 21-22 21s-13 5-11 12 16 18 31 26l26 13-20 21c-15 16-18 29-13 54 4 27 2 35-13 40-10 4-24 13-31 20s-12 21-12 33c0 14-7 21-20 21s-18 4-15 13c4 8-4 17-17 21-20 6-21 8-6 12 10 3 18 14 18 25s-6 30-12 42l-13 24c-2 2-10 0-19-3-9-4-16-13-16-21 0-9-8-14-18-12s-23 16-30 31c-12 23-11 29 5 45 14 14 31 17 73 15 30-1 60 0 67 2 7 3 9 12 6 21-5 14-17 15-81 9-72-7-76-6-94 17l-18 24v-23c0-12-4-22-9-22-4 0-14 5-21 12-11 10-12 10-8-2l19-43c8-15 19-27 26-27s13-12 13-25c0-17-6-25-16-25-9 0-25 4-35 10-11 6-19 19-19 29s5 21 11 23c7 2 9 9 5 16-4 6-16 12-25 12-10 0-31 14-48 32s-42 50-57 72c-18 27-23 43-16 51 7 9 2 14-19 18-19 4-35 16-44 35-8 16-12 34-9 39 4 6 30 12 60 14 49 3 52 2 47-16-4-11-8-33-10-47-3-21-1-26 10-22 8 3 15 16 15 30 0 19 5 24 29 24 16 0 32-5 36-10 3-6-4-10-15-10s-20-5-20-9c0-5 6-12 15-15 8-3 35-3 60 0 45 6 45 6 35-19-8-21-6-26 10-30 10-3 24 1 30 9 7 7 16 14 21 14s18 9 29 20 20 24 20 30c0 5-5 10-10 10s-12-5-16-11c-3-6-16-2-32 10-14 11-30 21-37 21-6 0-12 15-13 36 0 20-6 40-14 44-7 5-18 4-25-2-7-5-25-8-40-5l-51 12c-16 5-21 12-17 25 3 10-1 19-9 22-7 3-22-4-31-15-17-19-17-22-2-33 9-6 17-17 17-24 0-9-9-11-26-6-17 4-24 3-20-4 4-6-3-10-19-8-14 1-27 8-30 15s-15 12-28 12c-21 0-21-1-5-13 10-8 18-17 18-20 0-4-5-6-10-6s-24 21-43 48c-19 26-38 59-42 71-4 13-34 52-67 87-32 35-58 70-58 78 0 9 2 16 4 16 3 0 16-6 30-12 14-7 28-9 31-5l5 7h0l-38 16c-21 9-54 24-74 35-21 10-40 19-43 19h-5 0-10c-5 0-21 4-34 9-17 6-28 6-32 0-3-5-8-9-10-9h-4 0v-4a943 943 0 0097-125c30-45 69-92 88-104 19-13 35-33 38-49 3-15 34-69 69-120 35-52 146-206 247-344l232-315c27-37 49-72 49-78 0-7-25-47-54-89-29-43-79-121-110-173-31-53-71-132-87-175l-54-134c-13-31-36-96-51-144l-27-89 17-56c12-37 31-70 57-95 36-36 42-39 80-34 24 4 64 21 97 44 30 21 89 78 131 125 41 48 77 86 78 84 2-2-3-43-12-92-8-49-20-136-27-193-6-58-12-204-12-325 0-216 0-222 27-289 14-38 36-87 49-109 12-21 34-46 49-53 15-8 39-15 54-15 15 1 38 8 53 17s46 39 69 67c24 28 57 79 74 114 18 34 35 63 39 63s17-39 29-86c11-47 30-106 42-130 11-25 33-53 47-63 15-10 33-21 42-24 8-2 26 1 41 9 14 7 39 28 54 46s48 75 74 128c25 52 54 114 63 139l17 44 25-27c14-15 32-40 40-56 9-17 31-34 55-44 28-11 47-13 64-7 13 5 35 23 49 39 14 17 33 52 42 79 8 26 20 81 25 123 6 41 10 107 10 146l1 71 40-9c23-5 57-6 76-3 20 4 41 17 52 33 10 15 22 36 26 47a652 652 0 01-1 313c-14 68-34 154-45 190-11 37-45 126-74 199-30 73-54 141-54 151s-10 27-21 37-43 55-69 99a1047 1047 0 01-212 257c-29 25-68 53-86 62-17 9-38 17-45 17-8 0-23 10-35 22-11 12-33 47-48 78-15 30-53 97-84 150-32 52-77 131-100 175l-105 185c-35 57-86 147-116 200-29 52-59 102-66 110-7 9-27 44-44 78-18 35-40 68-51 74-10 7-18 19-18 26 0 8-23 55-51 105s-63 108-77 129-27 38-29 38h-3 0l-20-40-20-40m15-1139c-3-5 3-16 14-26 10-9 21-33 24-53 3-21 19-52 36-71 17-18 31-37 31-43 0-5 4-7 10-3 17 10 11 31-19 63-19 20-25 34-19 40 7 7 3 19-11 37a96 96 0 00-21 46c0 19-36 27-45 10m150-196c-30-47-12-88 31-71 15 5 15 7-1 25-13 15-15 23-6 39 13 25 13 32 1 32-6 0-17-11-25-25m-255-995c0-11 4-22 10-25 5-4 10 4 10 19 0 14-5 26-10 26-6 0-10-9-10-20m343-254c-13-10-14-15-4-21 14-9 33 9 26 25-4 6-12 4-22-4"/>
    </g>
  </g>
  <g fill="#92aabf" stroke="#92aabf" stroke-width="8" fill-rule="evenodd">
      <path class="contact-elem" d="M5120 5345c-55-27-121-88-147-137-23-43-23-138 0-204a260 260 0 01251-169c46 0 70 4 73 12 2 7 8 13 14 13 25 0 113 91 138 144 44 90 23 167-73 261-110 108-165 125-256 80m22-109c-15-7-42-30-60-50-29-34-32-43-32-101 0-35 2-71 6-80 8-20 86-61 135-69 81-15 157 52 166 144 5 48 4 52-38 91-44 42-107 79-134 79-9 0-28-7-43-14"/>
  </g>
  <g fill="#92aabf" stroke="#92aabf" stroke-width="7" fill-rule="evenodd">
      <path class="contact-elem" d="M2317 4540c-18-6-70-10-116-9-47 1-87-3-93-9-21-21-18-84 5-126 73-132 85-161 70-165-9-2-53 11-98 28-79 31-84 32-113 17-38-20-50-52-28-76 8-9 16-22 16-28 0-14 36-87 61-124 10-15 19-31 19-36 0-16-41-17-120-4-61 10-97 1-107-25-11-26 20-40 140-63 133-25 209-27 227-5 30 37-19 150-79 181-19 9-20 12-7 23 12 10 29 10 78 2 131-23 165-19 182 20 15 37 11 61-15 84-11 10-20 25-20 34 0 8-9 27-19 41a85 85 0 00-20 41c0 9-7 22-15 29-9 6-15 23-15 36 0 22 2 23 67 22 74-2 108 10 117 41 4 11 11 21 16 21 16 0 11 18-10 40-23 22-70 26-123 10"/>
  </g>
  <g fill="#92aabf" stroke="#92aabf" stroke-width="6" fill-rule="evenodd">
      <path class="contact-elem" d="M7347 4023c-7-9-13-57-15-117-8-279-8-278 38-297 25-10 37-9 75 5 25 10 58 28 74 41 16 14 32 25 37 25s20 9 34 20c13 10 27 19 31 19s8-69 10-153c4-171 9-185 74-207 28-9 42-7 91 14 76 32 183 97 256 155 52 42 58 50 55 80-1 21-10 39-22 47-29 19-99-7-218-79-52-31-97-56-102-56-4 0-6 66-3 147 4 131 3 151-14 178-21 37-66 61-82 45-6-6-18-10-28-10-22 0-88-31-88-41 0-4-13-12-28-18s-42-23-60-37l-32-27-1 69c-2 109-14 185-33 200-22 18-34 17-49-3"/>
  </g>
  <g fill="#92aabf" stroke="#92aabf" stroke-width="3" fill-rule="evenodd">
     <path class="contact-elem" d="M2220 2190c-26-12-79-96-152-238-79-152-78-167 12-213 88-44 254-108 299-116 37-6 44-3 73 29 48 50 167 275 167 315 1 45-26 66-159 130-64 31-128 64-143 74-36 24-72 31-97 19m12-175a652 652 0 01-106-185c9-8 192-83 231-95 18-5 21-4 16 9-3 8 9 46 27 83l46 100 14 33-75 35c-132 60-122 59-153 20"/>
  </g>
  <g fill="#92aabf" stroke="#92aabf" stroke-width="4" fill-rule="evenodd">
      <path class="contact-elem" d="M7077 2063c-9-12-12-75-12-233 0-235 10-301 58-357 22-26 25-26 71-15 35 9 83 39 179 113 72 56 155 124 183 151l52 51-24 32c-14 18-43 44-66 59-73 49-388 207-398 201-6-4-10-2-10 4 0 16-19 13-33-6m113-288c0-80 3-145 8-145s16 8 26 19 52 43 94 72l80 55c8 6-43 44-91 69-26 13-63 36-82 50l-35 25v-145"/>
  </g>
  <g fill="#92aabf" stroke="#92aabf" stroke-width="5" fill-rule="evenodd">
      <path class="contact-elem" d="M4722 1554c-15-8-32-21-37-28-6-6-24-18-40-25-48-21-135-92-151-123-37-72 0-120 139-182 47-22 87-43 87-48 0-13-57-36-184-74-123-37-154-54-162-90-9-33 19-74 55-81 16-3 37-14 47-25 9-10 22-19 28-19 21 0 217-85 217-94 0-5-59-24-131-41-72-18-145-41-163-52-40-23-43-53-5-67 35-12 379 54 406 78 10 9 25 17 34 17 20 0 38 29 38 63 0 17-12 34-33 50-62 48-150 96-214 117-35 12-63 25-63 30 0 8 42 24 97 35 17 3 47 16 65 29 19 12 45 25 60 29 14 3 40 23 57 43 27 30 31 42 26 67-12 65-34 83-165 133-41 16-76 34-78 40s25 25 60 43c71 37 96 55 120 90 23 33 22 47-7 76-29 28-64 31-103 9"/>
  </g>
  <g fill="#2d93ad" stroke="#2d93ad" stroke-width="5" fill-rule="evenodd">
    <path d="M3100 9580v-11c0-6-10-29-21-51l-21-41 21-19 21-18 5-5 5-5 15-10 15-10 5-5 5-5 15-10 15-10 5-5 5-5 45-30 45-30 5-5 5-5 55-35 55-35 5-5 5-5 35-20 35-20 5-5 5-5 7-4 40-20c17-9 38-16 46-16 11 0 17 15 20 52l22 228c9 96 18 180 20 187l5 13h0-68l-262-6c-108-4-201-11-208-16l-12-8m443-303c2-7 12-14 22-16 16-3 17-1 7 12-15 19-34 22-29 4M3810 9600l-1-3-24-212c-13-116-26-243-29-282l-5-71 39-16 40-16 5-5 5-5 51-20c28-11 57-20 64-20s22 41 38 106l27 110v4l5 5 5 5 15 49c9 27 39 88 68 135 28 47 79 116 113 153l72 80 12 13h0-123c-67 1-180-2-250-5l-127-5M4590 9600l-1-3c0-1-24-15-54-31s-81-51-113-79a805 805 0 01-197-237c-18-36-45-104-60-150-15-48-27-112-28-149-2-62-1-66 28-83a2149 2149 0 01277-89l8 1 5-5 5-5 2-1 148-29c79-17 173-33 207-35l63-5 5-5 5-5h130v82c0 45 4 99 10 119 5 20 20 51 32 69s43 47 69 64c25 17 59 38 75 47 16 10 47 31 69 48s43 31 47 31h8l5 5 5 5v23c0 15 11 31 35 47l50 37 15 13 5 5 5 5h0l5 5 5 5 65 62c35 34 65 68 65 75s-18 24-38 37c-21 14-42 26-45 26h-7l-5 5-8 2-5 5-7 3-5 5-15 10-15 10-5 5-5 5-15 15-15 15h0-5c-2 0-5-5-7-11-3-7-31-6-89 4-46 8-134 20-194 26-61 7-200 10-310 8-110-1-202-4-203-5l-2-2M1990 8640l47 16c26 9 88 43 138 76a5007 5007 0 01262 196l13 12 5 5 5 5 72 70 74 70 12 15 12 15 5 5 5 5 48 57c27 32 79 100 116 151l67 94-66 65c-36 36-65 67-65 69v4h0l-7-5a327 327 0 00-108-26c-17 0-53-6-80-13a1516 1516 0 01-318-160c-37-26-79-62-94-80-15-17-44-67-64-111-21-44-47-119-58-165-11-47-23-140-26-207-4-68-5-132-1-143l6-20M7580 9490v-5c0-3-3-5-5-5h-5 0l-5-5-5-5-9-18-24-47c-8-17-18-41-21-53l-6-22-5-5-5-5v-3l-29-88c-16-46-32-99-35-117l-6-32-5-5-5-5-10-85-10-85 5-5 5-5-1-8 5-41c2-18 18-54 35-80 16-26 50-66 75-89l46-42 5-5 5-5 15-10 15-10 5-5 5-5 20-10 20-10 5-5 7-3 5-5 8-2 7-3 5-5 8-2 5-5h20l5-5 5-5 22-6 30-5 8 1 5-5 5-5h75c57 0 86 5 117 21 24 12 54 29 68 39l32 24 8 6 5 5 5 5 27 25c15 13 28 25 30 25 1 0 3 2 3 5v5l5 5 5 5 36 47a886 886 0 01154 404v59h0l-6 10c-4 6-14 8-24 5-11-4-22-1-26 5-4 7-35 24-68 40-34 15-78 32-99 38-21 5-37 8-37 6v-14h0l4-8c2-4 13-18 25-30l21-22 5-5 5-5 5-7 5-10v-3l5-5 5-5v-6c0-3 4-14 10-24 5-11 10-24 10-30v-10l5-5 5-5 1-3 2-87c1-69-4-102-27-172-18-57-41-101-63-127-21-25-49-45-71-51-21-6-68-10-106-10-54 0-83 6-140 31l-79 35-7 4-5 5-5 5-40 26c-22 14-62 50-90 79s-56 66-62 81c-6 16-11 69-11 119-1 73 7 121 41 260 23 94 42 176 42 183v12h-20"/>
    <path d="M7695 9325l-5-5-4-3c-2-1-15-18-29-38-15-20-34-52-42-72a298 298 0 01-5-172l9-23 1-2 5-5 5-5v-7c0-3 19-26 43-50s51-43 60-43h17l5-5 5-5h50l5 5 5 5h10c6 0 21 5 33 11l29 15 8 4 5 5 5 5 35 32c20 18 42 44 49 58 7 13 16 37 19 52 4 16 3 28-3 28h-20l-5-5-5-5-1-3-31-45c-20-29-36-42-47-39l-48 11c-18 4-46 21-63 38a239 239 0 00-60 166c0 28 6 52 16 63 9 10 18 19 20 19h4l5 5 5 5h2l63 6c45 4 82 0 143-15l82-21h0v14c0 8-17 22-38 31l-71 31c-18 8-54 17-80 20s-55 9-66 14c-11 6-26 10-33 10h-12 0l-10-12-10-13-25-28-25-27M2755 9055l-5-5-3-1-20-22-17-24-15-13a2029 2029 0 00-95-94l-80-76-5-5-5-5-8-5-55-45-47-40-5-5-5-5-3-1-92-66c-50-36-92-69-94-73-1-5 56-23 128-40 71-17 134-30 140-30h11l5-5 5-5 12-1c7 0 51-9 98-19 46-11 92-20 102-20h28l5-5 5-5h20v3c0 2 41 16 92 30 52 15 112 27 135 27a682 682 0 00206-47c16-9 52-39 80-67s68-64 89-79l38-27h30l5-5 5-5 45-7c25-3 48-3 52 1 3 3 10 72 14 153l19 342c6 108 7 196 2 198s-58 30-118 64a3681 3681 0 00-399 258c-39 28-74 50-78 50s-31-32-60-72c-30-40-77-99-106-132l-51-63v-2M5555 9185l-5-5-12-7c-7-4-29-22-50-41-20-19-45-53-53-76-14-35-15-47-4-72l13-29 3 37 3 38 5 5 5 5 3 19c2 10 7 23 10 30l7 11 5 5 5 5 16 15 19 15 8 5 7 5 5 5 7 2 5 5 8 3 5 5 51 11c31 6 95 9 158 5l108-6h3l5-5 5-5h5c3 0 27-12 54-25 28-14 66-39 85-55l36-30 5-5 5-5 5-8 27-36a546 546 0 0067-159l1-17 5-5 5-5v-3l6-117c4-73 2-136-6-172-8-40-20-63-41-82l-29-26-5-5-5-5-30-10c-16-5-49-12-73-16-25-3-72 0-117 10a519 519 0 00-251 122c-28 26-60 66-71 87-14 26-20 59-20 98 0 44 7 74 30 123 17 36 42 77 55 90 21 21 35 26 80 26s62-6 101-33c26-18 51-38 56-45l10-12 5-5 5-5 4-7 19-27c7-12 17-32 20-44l7-22 5-5 5-5v-26c0-9-6-26-12-38s-16-25-22-29c-7-4-27-7-45-7-25 0-42 8-67 34-22 21-34 43-34 60 0 14 3 25 7 25s22-9 40-20 36-19 41-19c4 0 15 13 26 31 17 30 17 31-2 57a70 70 0 01-54 29c-23 2-45-4-69-20-19-13-45-39-58-58-17-25-22-43-18-67 3-17 12-44 20-60l15-30 2-2 5-5 5-5v-5c0-3 2-5 5-5h5l5-5 5-5 7-6c4-4 28-4 52-1l48 5 3 2 5 5 5 5 44 25a272 272 0 0191 87l5 8 5 5 5 5 1 2 16 52c12 40 12 56 3 89-7 22-22 56-35 76-12 19-41 52-63 72-23 21-58 42-79 48s-52 10-68 10c-17 0-49-8-72-19-22-10-44-23-48-29-4-7-9-11-11-11h-4l-5-5-5-5h-5c-3 0-6-2-6-3l-45-55-44-52-5-5-5-5-7-12-30-54c-13-23-33-68-44-100s-19-70-19-86v-28l5-5 5-5-1-8c0-4 3-14 6-22s8-17 10-19l5-9c0-2 18-21 40-43l40-39 5-5 5-5 7-7a769 769 0 01115-63h8l5-5 5-5 15-6 40-10 25-4 5-5 5-5 31-7c18-3 66-4 108-1 55 3 89 11 126 30a719 719 0 01155 113v5l5 5 5 5 15 25 15 25 5 5 5 5 15 47c9 26 16 55 15 65v18l5 5 5 5-5 102c-3 56-12 129-21 162-8 32-27 81-42 108a440 440 0 01-198 174c-48 23-96 37-155 44-46 6-111 8-144 4-33-3-87-19-120-34l-63-30h-2M3715 8395h0l-5-5v-160l5-5 7-3 5-5 8-2 5-5 7-1 18-5c5-3 13-4 17-4h8l5-5 5-5 7-1c4 0 32-6 63-14 30-9 60-15 67-15h13l5-5 5-5h3l35-5 32-5 5-5 5-5h7l35-6 27-6-25 73a2846 2846 0 00-84 321v18l-5 5-5 5-1 2-5 78c-3 41-11 94-17 117-11 41-14 43-103 82-51 22-99 41-109 41-9 0-18-6-20-13-3-7-9-110-15-230l-10-217M4180 8470v-20h-10v-9c0-5 6-28 15-51 8-24 15-47 15-52v-8l5-5 5-5-1-8c0-4 15-50 33-102 20-60 41-102 55-113l23-17 5-5 5-5 7-1 18-5c5-3 13-4 17-4h8l5-5 5-5h6l135-35c71-20 133-35 139-35h10l5-5 5-5 7-1c4 0 32-6 63-14 30-9 58-15 62-15h8l5-5 5-5h5l207-55c111-31 210-55 221-55 16 0 17 5 11 42-4 23-13 58-21 76l-13 38v4h0l-10 15-10 15h0l-10 40-10 40v10l-15 17c-8 10-15 26-15 36s-7 30-14 45c-8 15-22 60-31 102-9 41-26 108-37 148-16 53-28 76-43 82-11 4-81 13-155 19-75 6-212 26-305 45-94 19-235 53-313 75l-149 41c-3 0-3-32 1-71a767 767 0 0135-167l1-2M1980 8130h6c4 0 63 28 133 64 69 35 158 76 196 91a1199 1199 0 00177 54l8 1h0l-15 5-15 5h0v-5c0-3-5-5-10-5-6 0-10 2-10 5v5h0l-38 6c-21 3-114 21-207 40-93 18-175 34-182 34h-13 0-15c-2 0-7-68-10-150l-5-150M9170 8120h-30l-5-5-5-5h-8l-39-5a421 421 0 01-191-110l-42-45-5-5-5-5-16-23c-9-12-31-49-49-82-19-33-39-73-45-88l-10-27-5-5-5-5-5-16-22-72c-12-42-15-80-11-152 3-52 8-103 11-113l7-17 5-5 5-5v-9c0-5 15-32 35-60l35-51 5-5 5-5h5c2 0 5-3 5-5v-5h0l5-5 5-5h5c2 0 5-2 5-4s6-9 15-15l15-11 5-5 5-5 20-10 20-10 5-5 5-5 7-1 18-5c5-3 13-4 17-4h8l5-5 5-5 182-6c100-3 186-6 190-5l8 1h0l20 10c11 5 20 20 20 32l5 35 5 13h0l-123 5c-67 3-139 7-160 10l-37 5-5 5-5 5h-16c-8 0-43 12-77 28l-70 35-7 7-5 5-5 5-36 37a393 393 0 00-102 306c3 40 15 92 26 117l21 47 1 3 5 5 5 5 35 44c19 24 47 54 61 65s28 21 30 21h4l5 5 5 5 37 11c21 7 85 12 143 13l132-2 28-2 5-5 5-5h20c5 0 10-3 10-5 0-3 2-5 5-5h10c3 0 8 6 11 14s-6 31-21 52c-14 21-25 48-25 60s-9 32-20 45l-19 24-34-33c-18-18-39-32-46-32s-12 7-11 17l1 25-1 8m-435-777c-10-13-5-23 10-23 8 0 15 4 15 10 0 12-19 22-25 13M3710 7810l30-38c16-21 60-71 96-112 36-42 112-134 169-205 57-72 109-134 114-138l11-7h20l5 5 5 5h8c5 0 24 6 43 13 18 8 50 19 71 25l38 12 5 5 5 5 35 10 35 10 5 5 5 5h7c4 0 14 4 22 9 11 7 0 33-57 132a5703 5703 0 00-152 293v6l-5 5-3 7-5 5-2 8-5 5-23 37c-20 33-30 39-92 55a7750 7750 0 01-313 68h-12l-5 5-5 5h-30c-11 0-22-5-25-10-4-6-4-60-1-120l6-110M4495 7655l5-5 15-30 15-30 5-5 5-5v-3c0-1 11-22 25-45s33-42 43-42c9 0 82 29 162 65 79 36 150 68 157 70l13 5 5 5 7 2 5 5 8 3 7 2 5 5 8 3 7 2 5 5 8 3 5 5h6c3 0 22 9 41 21 25 16 31 24 21 29-7 4-72 24-143 43a20898 20898 0 01-542 137c-8 0-13-6-13-13s23-59 52-116l55-107 3-4M6455 7665l-5-5-1-3-25-67c-20-55-24-84-24-185 0-72 6-146 15-183a534 534 0 0171-165l14-17 5-5 5-5h0l5-5 5-5v-5c0-3 1-5 3-5l10-5 7-5 5-5 5-5h0l5-5 5-5 15-10 15-10 5-5 5-5 6-5 10-5h4l5-5 5-5 20-10 20-10 5-5 5-5 65-30 65-30 5-5 5-5 15-5c9-3 25-5 37-5 17 0 18 2 8 15-7 8-15 15-17 15h-3l-5 5-5 5-15 10-15 10-5 5-5 5-79 54c-43 30-97 73-120 96s-55 70-71 104c-17 34-37 91-45 126-9 37-15 110-15 170a907 907 0 0019 202l1 8 5 5 5 5 5 19c3 11 21 33 39 49 26 22 49 32 91 37 31 4 84 4 117 1 33-4 64-6 69-6h9l5-5 5-5 45-10 45-10 5-5 5-5 12-5 15-5h3l5-5 5-5 6-5 10-5h4l5-5 5-5 35-45 35-45 5-5 5-5v-3l14-42a405 405 0 00-3-225c-13-36-25-50-57-65-30-15-59-19-124-19-47 1-100 6-118 12l-32 12-5 5-5 5-37 26c-19 14-44 45-54 67-11 23-19 56-19 73s6 36 13 42 16 12 20 12h7l5-5 5-5 34-6c20-3 48-16 63-29l28-24-23-30c-12-17-24-41-25-53-2-15 4-24 16-27 12-2 35 12 63 40 25 24 54 58 65 76 15 25 19 42 14 67-4 21-19 46-41 64-19 17-50 34-70 37a175 175 0 01-142-41l-30-24h-2l-5-5-5-5h0l-5-5-5-5v-5c0-2-5-7-12-11-6-4-21-30-34-58-15-32-24-70-24-99s8-64 19-87c11-22 38-53 60-70l41-30 5-5 7-3 5-5 8-2 5-5 15-5a816 816 0 01225 5c24 6 61 22 82 35 21 14 38 27 38 30v5l5 5 5 5h5c2 0 5 2 5 5v5l5 5 5 5h0l5 5 5 5 23 32a570 570 0 0157 102v6l5 5 5 5v5c0 4 2 10 5 15 2 4 5 13 5 19v11l5 5 5 5 6 50c3 28 2 72-1 97-4 26-18 68-31 94-14 26-40 64-60 83-19 20-58 47-86 61s-81 32-117 40c-37 8-108 14-159 14-61 0-106-5-130-15-20-8-52-27-70-41-19-14-54-53-78-86-25-33-44-61-44-64v-3"/>
    <path d="M9045 7765l-5-5-5-7-25-40a366 366 0 01-50-182c0-32 4-63 10-69l10-12 5-5 5-5h5c2 0 5-3 5-5v-5h0l5-5 5-5 6-5 10-5h4l5-5 5-5 30-5 60-10c17-3 64-3 105 0l75 5 5 5 5 5h20l5 5 5 5h7a706 706 0 01120 69l13 11h0l5 19c3 11 0 30-6 43-7 12-14 24-16 25l-3 3h0l-25-10-25-10-5-5-5-5-18-5-62-15c-25-5-81-10-123-10-45 0-92 5-112 14-19 7-41 24-49 37s-17 35-20 49c-3 13-2 31 3 39 6 9 25 15 48 15 22 0 58-8 81-17l42-17 5-5 5-5 22 18c12 11 24 20 25 20 1 1 3 6 3 12v20l5 5 5 5v20c0 12-5 29-10 39-6 10-28 25-50 34-23 9-56 17-74 17a117 117 0 01-86-46v-4M7805 7705l-5-5-1-3-16-37c-11-24-14-53-11-92 3-31 10-65 16-75s11-22 11-26l1-7 5-5 5-5 5-7 5-10v-3l5-5 5-5 15-15 15-15 5-5 5-5 12-8c7-4 29-9 50-11s37 0 37 5-14 15-32 24c-20 9-40 31-54 60a429 429 0 00-44 182l1 38 5 5 5 5v11c0 7 7 20 16 30 10 11 30 19 50 19h44l5-5 5-5 12-5 15-5h3l5-5 5-5 6-5c4-3 9-5 12-5 4 0 19-14 34-30l28-30 5-5 5-5 1-3 6-55c4-44 2-52-12-52-9 0-31 7-48 16-30 15-30 17-12 30 10 7 22 14 26 14 5 0 9 6 9 13 0 8-9 25-19 37l-19 23-41-22-41-21-5-5-5-5-1-3-20-26a92 92 0 01-19-51c0-14 4-32 10-38l10-12 5-5 5-5 12-8c7-4 34-9 60-10l48-2 5 5 5 5h7c4 0 21 8 38 18l37 25 8 7 5 5 5 5h0l5 5 5 5v2c0 1 12 20 27 40l26 38-24 51c-13 28-43 68-67 88-24 22-66 45-98 55-46 15-63 16-93 7-20-7-58-27-84-47-26-19-47-37-47-40v-4M5435 7595l-5-5-18-10c-10-6-20-10-24-10-3 0-9 11-13 24-3 14-17 33-30 41-20 14-31 14-57 6-17-7-33-11-35-11h-3l-5-5-5-5-110-50-110-50-5-5-5-5-13-5-15-5h-2l-5-5-5-5-80-35-80-35-5-5-5-5-8-1c-4 0-26-8-49-19-22-10-44-23-47-29l-6-11 5-5 5-5v-5l2-6 90-120 88-119 5-5 5-5 5-7 5-8 70-83 70-82 5-5 5-5 5-7 5-8s15-18 35-38l35-37h5c2 0 5-3 5-5v-5h5c2 0 5-3 5-5v-5h5c2 0 5-3 5-5v-5h5c2 0 5-3 5-5v-5h5c2 0 5-3 5-5v-5h5c2 0 5-3 5-5v-5h5c2 0 5-3 5-5v-5h5c2 0 5-3 5-5v-5h3l13-11c7-7 52-9 127-5l117 6 5 5h0l5-5 118 2 119 3-49 99c-27 55-48 111-48 125s-12 62-27 107c-15 44-24 88-21 96 4 9 32 33 64 53a690 690 0 01144 122v3l5 5 5 5 10 20 10 20 5 5 5 5 4 17 11 44c3 14 1 44-5 65a263 263 0 01-109 137c-15 8-44 17-65 21-24 4-57 1-92-9-31-9-70-25-87-36-18-11-34-19-35-19h-2m0-60c-26-12-26-17 4-82 14-29 25-66 25-80 0-15 11-40 25-55 22-27 29-28 102-28h79l-3 44c-4 61-58 160-100 183-40 22-106 31-132 18M4160 7160v-13a1044 1044 0 00-119-368c-15-24-53-93-84-151-30-59-54-109-51-111 2-3-3-10-11-16l-15-11h0l-15-20-15-20h10l-2 11 2-1 6-5c4-3 4-5 1-5s-8-5-12-10l-5-10v10h-5c-3 0-5-3-5-5v-5h10v-5c0-3-3-5-5-5h-5 0l-1-28c0-15 3-45 6-67l36-170 29-138v-7l5-5 5-5 5-30 5-30h6l110-30c57-17 108-30 114-30h10l44 77c24 43 51 88 60 100l16 23 5 5 5 5 68 88a945 945 0 00131 139l1 3 5 5 5 5 22 20c12 12 26 23 30 25l8 5 5 5 5 5 15 10 15 10 5 5 5 5 30 20 30 20 5 5 5 5 57 34a1712 1712 0 00245 116c32 12 60 26 63 30 3 5-24 42-59 82l-66 75v3l-5 5-5 5-22 25c-12 13-23 25-25 25-1 0-5 4-8 10l-5 10-5 5-5 5-103 127c-57 70-127 160-157 200l-54 72-186-69-188-69-2-1M8795 6625l-5-5h-5a701 701 0 00-51-38l-44-32-5-5-5-5h0v-5c0-3-3-5-5-5h-5 0v-5c0-3-3-5-5-5h-5 0v-5c0-3-3-5-5-5h-5 0l-5-5-5-5-8-8-42-58c-19-26-40-65-47-84-7-20-13-55-13-78v-42l5-5 5-5-1-8 6-30c3-13 21-39 40-58l35-34 5-5 5-5 6-5 10-5h4l5-5 5-5 45-20 45-20 5-5 5-5h20l5-5 5-5h30l5-5 5-5h80l15 11c9 7 14 22 12 38l-6 28-1 3h0l-33 6a492 492 0 00-172 81l-48 36-7 7-5 5-5 5-1 2-25 36c-18 26-24 48-24 86 0 45 3 55 32 82 18 17 44 38 57 47 14 9 26 17 28 17h3l5 5 5 5 42 10c23 6 53 11 65 10h23l5 5 5 5h20l5-5 5-5h20c5 0 10-3 10-5 0-3 2-5 5-5h5l5-5 5-5 15-10 15-10 5-5 5-5h5c2 0 5-3 5-5v-5h0l5-5 5-5 10-20 10-20h0l8 2c4 1 22 33 40 71 17 38 29 72 26 77-2 4-4 10-4 14v6h0v5c0 4-3 10-5 15l-5 10-5 5-5 5h0l-5 5-5 5-15 10-15 10-5 5-8 2-5 5-7 3-5 5h-3l-45 9c-34 6-55 3-107-16l-65-23M5445 6525l5-5 15-10 15-10 5-5 5-5 70-45 70-45 5-5 5-5 55-30 55-30 5-5 7-3 5-5 8-2 7-3 5-5 8-2 7-3 5-5 8-2 5-5 10-7c6-3 14-3 17 1 4 3-3 39-15 80-12 40-31 99-43 130-12 30-29 60-38 65s-95 12-192 16l-174 7 24-26c13-15 25-26 27-26h4M4495 6135l-5-5h-5a545 545 0 00-50-66l-45-54-5-5-5-5-50-75-50-75h0l7-4a3824 3824 0 00178-41c27-8 86-22 130-31l160-35c44-10 122-26 175-35 52-10 140-18 195-18 92-1 104 1 165 29 35 17 96 57 134 89a1952 1952 0 01286 305c16 24 28 49 25 55l-5 13v3h0-3l-87 51c-47 28-121 74-165 103-44 30-125 88-179 129-83 64-104 75-125 70a2107 2107 0 01-291-113 1451 1451 0 01-303-210l-77-70m660 51c0-5 7-12 15-15 25-10 28-8 16 9-13 16-31 20-31 6M5940 6060h3c2 0 3-26 3-58s5-68 12-80l12-22h0l9 12c5 7 16 47 24 89s24 96 35 120 25 51 31 61l11 18 5 5 5 5 15 17a156 156 0 0120 26l5 7 5 5 5 5 30 22c21 15 48 23 92 25l80 3h18l5-5 5-5h30l5-5 5-5h20l5-5 7-3 5-5 8-2 7-3 5-5 8-2 7-3 5-5 8-2 5-5 6-5 10-5h9c2 0 5-3 5-5a492 492 0 0038-40l32-35 5-5 5-5 5-7 5-10v-3l5-5 5-5 20-55 20-55 5-5 5-5 5-38 5-45v-7l5-5 5-5-1-8c-1-4 1-52 4-107 2-55 1-126-2-158-5-40-15-65-32-83-13-15-46-37-71-50-26-13-68-29-93-34l-45-10h0l20-40 20-40h0l7-1 18-5c5-3 13-4 17-4h18v30l-5 5h0l5 5 32 29 33 30 8 6 7 5 5 5 5 5h3c3 0 18 15 35 35 18 19 32 39 32 44s9 12 21 16c11 4 30 27 42 53 20 42 21 62 20 217-1 138-5 184-22 249-12 43-33 98-46 121-14 23-46 61-72 83-25 23-73 55-106 71-55 28-70 31-158 31s-102-3-160-32a902 902 0 01-268-258l-31-58v-2"/>
    <path d="M8835 6355l-5-5v-4l-6-34c-5-23-1-35 20-56l26-26 5-5 5-5 47 5c26 4 51 8 55 10l8 5h0l19 27c11 15 20 33 20 39 0 7 3 19 6 28l5 16h0l-23-7-55-10-32-3-5 5-5 5-27 30c-22 25-29 28-40 17-7-7-13-16-13-20v-7M7675 6325l-5-5-7-5-10-5h-3l-5-5-5-5-7-5-10-5c-2 0-3-3-3-5a365 365 0 01-34-35l-26-30-5-5-5-5-10-15-10-15-5-5-5-5-5-7-5-10v-3l-5-5-5-5-1-3-30-62c-22-45-29-75-29-115 0-31 4-72 10-92 5-20 19-47 29-60l20-26 1-2 5-5 5-5h0l5-5 5-5v-5c0-3 2-5 5-5h5l5-5 5-5h0l5-5 5-5 15-10 15-10 5-5 5-5 25-15 25-15 5-5 5-5 6-5 10-5h4l5-5 5-5 27-20c15-11 38-20 50-20 14 0 23 5 23 16 0 8-33 49-72 90-40 40-73 74-75 74h-3l-5 5-5 5-28 34-30 35-2 6v5l-5 5-5 5-12 32c-6 18-13 64-16 103-4 52-1 79 10 100 9 16 18 33 22 37l6 8 5 5 5 5 15 15 15 15 5 5 7 2 5 5 8 3 5 5h100l5-5 5-5h8c4 0 10-3 13-5 3-3 8-5 12-5h7l5-5 5-5 16-7c9-4 36-22 60-40l44-33 5-5 5-5 6-8 25-37c10-17 18-36 18-43l1-12 5-5 5-5v-8l-5-35-5-27-5-5-5-5-3-1-30-11c-19-7-52-7-100-1l-75 11-2 2h0l-20-17c-16-13-23-14-35-4-9 7-15 21-15 32 0 10 2 19 5 19h15v24c0 13 4 27 10 31 5 3 23-4 40-16 25-18 33-19 46-9 8 7 21 26 29 41s15 37 15 48-10 25-22 31c-11 6-35 9-52 6l-34-6h-2l-5-5-5-5-7-5-9-5-18-20-16-20-5-5-5-5-5-7-5-10v-3l-5-5-5-5-1-3-15-32c-7-17-14-47-14-66 0-20 6-43 15-53l15-16 5-5 5-5 25-10 25-10 5-5 5-5h30l5-5 5-5h55c31 0 68 6 84 14 15 8 51 40 79 71s52 59 52 64c0 4 2 10 5 14l5 7 5 5 5 5 5 10c3 5 11 36 17 69 8 45 8 69-2 105a277 277 0 01-57 103l-3 3-5 5-5 5-46 31c-26 17-68 39-95 50-28 10-67 18-87 18-21-1-46-5-57-9l-23-10h-2M6125 6005l-5-5-13-18-20-29-38-62-29-51h0v-15l2-6 60-45 58-44h0v7l-5 36c-3 16-5 37-5 48v19h0-5c-3 0-5 6-5 15 0 8 2 15 5 15h5v20a458 458 0 0054 122l6 8 5 5 5 5h2l24 11c12 6 38 8 57 4 21-3 51-22 76-46l41-39 5-5 5-5 5-7 5-10v-3l5-5 5-5 5-10c2-5 5-11 5-15v-5l5-5 5-5v-3l6-52 5-50-44 49c-41 46-46 49-63 35-11-8-29-26-41-39-13-14-23-33-23-43 0-9 12-31 27-48 15-16 31-30 35-30l8 1 5-5 5-5 34 10c20 6 38 15 41 20s8 10 10 10h5l5 5 5 5 15 15 15 15 5 5 5 5h2c2 0 12 14 22 31 15 25 17 43 12 95-3 34-13 78-23 96a341 341 0 01-100 119c-18 11-46 18-76 18-29 0-64-8-89-20a519 519 0 01-128-106v-3M3700 6070h-5c-3 0-5-3-5-5v-5h5c2 0 5-5 5-10 0-6-3-10-5-10h-5 0v-20h10l30-10 30-10h0l-5 22-10 45-5 23h0-10c-5 0-14-8-20-18-5-10-10-14-10-10v8"/>
  </g>
  <g fill="#fed766" stroke="#fed766" stroke-width="5" fill-rule="evenodd">
    <path d="M6270 9870h4a1518 1518 0 0188-173c34-60 96-151 138-201s139-155 215-233c104-105 149-145 178-154 24-7 42-8 48-2s4 63-6 153c-8 80-19 218-25 307l-10 163h0l-12 10c-7 5-19 10-26 10-8 0-39 11-71 25l-86 40-70 29c-22 9-76 25-120 36s-100 19-124 19-62-5-83-11-38-13-38-15v-3"/>
    <path d="M5440 9540l15-10 15-10 5-5 7-3 5-5 8-2 5-5h7c3 0 24-12 45-26 20-13 38-30 38-37s-30-41-65-75l-65-62-5-5-5-5h0l-5-5-5-5-15-13-50-37c-24-16-35-32-35-47v-23l-5-5-5-5h-8c-4 0-25-14-47-31s-53-38-69-48c-16-9-50-30-75-47-26-17-57-46-69-64s-27-49-32-69c-6-20-10-74-10-119v-82h-130l-5 5-5 5-63 5c-34 2-128 18-207 35l-148 29-2 1-5 5-5 5-8-1a2149 2149 0 00-277 89c-29 17-30 21-28 83 1 37 13 101 28 149 15 46 42 114 60 150a805 805 0 00197 237c32 28 83 63 113 79s54 30 54 31l1 3h0l-114 5a628 628 0 01-146-2l-20 7h0l-12-13-72-80c-34-37-85-106-113-153-29-47-59-108-68-135l-15-49-5-5-5-5v-4l-27-110c-16-65-31-106-38-106s-36 9-64 20l-51 20-5 5-5 5-40 16-39 16 5 71c3 39 16 166 29 282l24 212 1 3h0l-53 4c-29 3-65 5-80 5l-27 1h0l-5-13c-2-7-11-91-20-187l-22-228c-3-37-9-52-20-52-8 0-29 7-46 16l-40 20-7 4-5 5-5 5-35 20-35 20-5 5-5 5-55 35-55 35-5 5-5 5-45 30-45 30-5 5-5 5-15 10-15 10-5 5-5 5-15 10-15 10-5 5-5 5-21 18-21 19 21 41c11 22 21 45 21 51v11h0-88c-48 0-129-3-180-5l-92-5h0v-4c0-2 29-33 65-69l66-65-67-94c-37-51-89-119-116-151l-48-57-5-5-5-5-12-15-12-15-74-70-72-70-5-5-5-5-13-12a3941 3941 0 00-262-196c-50-33-112-67-138-76l-47-16h0v-130c0-38 4-71 10-75l10-5h13c7 0 89-16 182-34 93-19 186-37 207-40l38-6h20l15-5 15-5h0l47 9c26 5 58 10 70 10l23 1h13l10 5 7 5 5 5 5 5h0l5 5 5 5 29 15c16 8 45 15 65 15s36 2 36 5v15h-60 0-30l-5 5-5 5h-18c-10 0-56 9-102 20-47 10-91 19-98 19l-12 1-5 5-5 5h-11c-6 0-69 13-140 30-72 17-129 35-128 40 2 4 44 37 94 73l92 66 3 1 5 5 5 5 47 40 55 45 8 5 5 5 5 5 80 76a2029 2029 0 0195 94l15 13 17 24 20 22 3 1 5 5 5 5v2l51 63c29 33 76 92 106 132 29 40 56 72 60 72s39-22 78-50l180-124a3681 3681 0 01337-198c5-2 4-90-2-198l-19-342c-4-81-11-150-14-153-4-4-27-4-52-1l-45 7-5 5-5 5h-30 0v-21c0-6 7-25 16-42 9-18 42-59 73-92 45-47 59-70 64-103 4-24 19-56 34-75 16-18 33-44 39-58s28-38 47-53l37-26h0l-6 110c-3 60-3 114 1 120 3 5 14 10 25 10h30l5-5 5-5h12a7750 7750 0 00313-68c62-16 72-22 92-55l23-37 5-5 2-8 5-5 3-7 5-5v-6a5703 5703 0 01152-293c57-99 68-125 57-132-8-5-18-9-22-9h-7l-5-5-5-5-35-10-35-10-5-5-5-5-38-12c-21-6-53-17-71-25-19-7-38-13-43-13h-8l-5-5-5-5h-20 0v-5c0-2-6-6-12-8-9-3-7-11 5-28 9-13 17-43 17-67 0-23 4-42 10-42h10l2 1 188 69 186 69 54-72c30-40 100-130 157-200l103-127 5-5 5-5 5-10c3-6 7-10 8-10 2 0 13-12 25-25l22-25 5-5 5-5v-3l66-75c35-40 62-77 59-82-3-4-31-18-63-30a1712 1712 0 01-245-116l-57-34-5-5-5-5-30-20-30-20-5-5-5-5-15-10-15-10-5-5-5-5-8-5c-4-2-18-13-30-25l-22-20-5-5-5-5-1-3-31-27c-17-13-62-64-100-112l-68-88-5-5-5-5-16-23c-9-12-36-57-60-100l-44-77h0l20-6c12-4 31-4 42-1 12 3 27-1 34-9l14-14h0l50 75 50 75 5 5 5 5 45 54a545 545 0 0150 66h5l5 5 5 5 77 70a1451 1451 0 00303 210 2107 2107 0 00291 113c21 5 42-6 125-70 54-41 135-99 179-129 44-29 118-75 165-103l87-51h5l33 16c16 9 42 27 58 40 15 13 31 24 35 24s21-42 37-93c15-51 32-96 36-100l9-7h0v2l31 58a902 902 0 00268 258c58 29 72 32 160 32s103-3 158-31c33-16 81-48 106-71 26-22 58-60 72-83 13-23 34-78 46-121 17-65 21-111 22-249 1-155 0-175-20-217-12-26-31-49-42-53-12-4-21-11-21-16s-14-25-32-44c-17-20-32-35-35-35h-3l-5-5-5-5-8-7-40-31c-21-16-32-34-32-49v-23h0l27-32c15-17 78-75 140-130 61-54 131-121 153-148 23-28 50-52 60-56 9-3 31-27 48-55l32-49h14c7 0 22-4 31-7 15-6 17-3 11 17l-6 27v3l-5 5-5 5-25 73c-13 41-30 105-36 142-8 43-10 118-7 204 5 110 13 163 42 281 33 128 37 163 42 315 4 100 1 206-5 258-10 78-18 102-74 210-34 67-66 124-71 128-4 3-52 8-106 11-76 4-113 12-172 35-41 17-111 49-154 71l-82 41-2 1-5 5-5 5-60 35-60 35-5 5-5 5-25 21c-14 12-25 23-25 25l-10 8-10 6-5 5-5 5-8 4c-4 3-24 37-45 76-29 56-37 82-37 123 0 28 6 96 15 150a2618 2618 0 00111 428c13 36 24 77 24 91s6 65 15 114c11 66 28 114 66 191 27 56 52 103 54 103h5l5 5 5 5 10 15 10 15 5 5 5 5h0v5c0 2 2 5 5 5h5l5 5 5 5v5c0 2 2 5 5 5h5l5 5 5 5 15 10c8 6 15 13 15 15s2 5 5 5h5l5 5 5 5 10 5 10 5 5 5 5 5 22 13a511 511 0 0099 37h9l5 5 5 5h2l61 9c32 5 65 15 73 21 7 7 14 18 14 26s4 12 10 9c5-4 10-16 10-28 0-19 3-20 77-15 57 5 81 3 92-7 9-7 71-32 139-54s145-54 171-71c27-17 70-54 95-81 26-28 63-84 81-125 19-40 42-102 51-137 9-34 16-101 16-147 0-47-5-99-12-115-7-17-21-62-32-100-10-39-18-90-18-115s9-63 21-88c13-27 41-58 72-82 28-21 92-54 142-74 50-19 132-47 182-61s104-25 120-25 34 5 41 12c6 6 12 13 12 15v3l5 5 5 5v3l5 10 5 7 5 5 5 5 33 37c18 21 44 65 57 98 12 33 54 121 93 196 69 135 70 138 75 228 2 51-1 119-8 153s-21 78-31 97c-10 20-41 65-70 101l-62 76c-6 8 0 33 18 73 19 42 45 77 82 111 30 27 56 50 58 50h5l5 5 5 5 42 40a1029 1029 0 0065 59l13 11 5 5 5 5h0v5c0 2 2 5 5 5h5l5 5 5 5 44 45a506 506 0 0064 55l12 10 5 5 5 5 30 21a245 245 0 0135 29h5l5 5 5 5 15 11c8 6 15 13 15 15s2 4 5 4h5l5 5 5 5 52 49 54 50 9 18 12 30c2 7 6 13 8 13h5l-17 19c-9 11-62 43-119 71-56 28-122 54-146 57-23 3-75 22-113 43-39 20-91 45-115 54-25 9-51 16-58 16h-12 0v-59c0-21-10-74-21-117a886 886 0 00-133-287l-36-47-5-5-5-5v-5c0-3-2-5-3-5-2 0-15-12-30-25l-27-25-5-5-5-5-8-6-32-24c-14-10-44-27-68-39-31-16-60-21-117-21h-75l-5 5-5 5-8-1-30 5-22 6-5 5-5 5h-20l-5 5-8 2-5 5-7 3-8 2-5 5-7 3-5 5-20 10-20 10-5 5-5 5-15 10-15 10-5 5-5 5-46 42c-25 23-59 63-75 89a240 240 0 00-40 121l1 8-5 5-5 5 10 85 10 85 5 5 5 5 6 32c3 18 19 71 35 117l29 88v3l5 5 5 5 6 22c3 12 13 36 21 53l24 47 9 18 5 5 5 5h0v5c0 2 2 5 5 5h5l-58 18c-32 10-81 31-111 46-29 14-90 36-135 47s-91 26-104 34c-12 8-24 15-27 15h-5 0v-23c1-12-1-104-5-203-3-124-10-193-21-225-8-24-35-70-60-102l-44-57-5-5-5-5-5-7-5-9-20-18-20-16-5-5-5-5-28-18c-15-10-34-25-42-35s-23-17-33-17-34 6-53 14a358 358 0 00-104 72v4l-5 5-5 5-100 113c-54 63-112 124-127 136-16 12-33 34-38 49-6 14-16 37-23 49l-12 23-5 5-5 5-37 61c-20 34-62 117-95 185-32 68-65 134-73 148l-15 26h0l-13-7a434 434 0 00-77-49c-19-9-66-41-105-70s-97-67-130-85c-33-19-82-51-109-72-27-20-54-37-61-37s-44 12-82 28c-38 15-81 31-96 35s-27 5-27 2v-5m115-355l-5-5-12-7c-7-4-29-22-50-41-20-19-45-53-53-76-14-35-15-47-4-72l13-29 3 37 3 38 5 5 5 5 3 19c2 10 7 23 10 30l7 11 5 5 5 5 16 15 19 15 8 5 7 5 5 5 7 2 5 5 8 3 5 5 51 11c31 6 95 9 158 5l108-6h3l5-5 5-5h5c3 0 27-12 54-25 28-14 66-39 85-55l36-30 5-5 5-5 5-8 27-36a546 546 0 0067-159l1-17 5-5 5-5v-3l6-117c4-73 2-136-6-172-8-40-20-63-41-82l-29-26-5-5-5-5-30-10c-16-5-49-12-73-16-25-3-72 0-117 10a519 519 0 00-251 122c-28 26-60 66-71 87-14 26-20 59-20 98 0 44 7 74 30 123 17 36 42 77 55 90 21 21 35 26 80 26s62-6 101-33c26-18 51-38 56-45l10-12 5-5 5-5 4-7 19-27c7-12 17-32 20-44l7-22 5-5 5-5v-26c0-9-6-26-12-38s-16-25-22-29c-7-4-27-7-45-7-25 0-42 8-67 34-22 21-34 43-34 60 0 14 3 25 7 25s22-9 40-20 36-19 41-19c4 0 15 13 26 31 17 30 17 31-2 57a70 70 0 01-54 29c-23 2-45-4-69-20-19-13-45-39-58-58-17-25-22-43-18-67 3-17 12-44 20-60l15-30 2-2 5-5 5-5v-5c0-3 2-5 5-5h5l5-5 5-5 7-6c4-4 28-4 52-1l48 5 3 2 5 5 5 5 44 25a272 272 0 0191 87l5 8 5 5 5 5 1 2 16 52c12 40 12 56 3 89-7 22-22 56-35 76-12 19-41 52-63 72-23 21-58 42-79 48s-52 10-68 10c-17 0-49-8-72-19-22-10-44-23-48-29-4-7-9-11-11-11h-4l-5-5-5-5h-5c-3 0-6-2-6-3l-45-55-44-52-5-5-5-5-7-12-30-54c-13-23-33-68-44-100s-19-70-19-86v-28l5-5 5-5-1-8c0-4 3-14 6-22s8-17 10-19l5-9c0-2 18-21 40-43l40-39 5-5 5-5 7-7a769 769 0 01115-63h8l5-5 5-5 15-6 40-10 25-4 5-5 5-5 31-7c18-3 66-4 108-1 55 3 89 11 126 30a719 719 0 01155 113v5l5 5 5 5 15 25 15 25 5 5 5 5 15 47c9 26 16 55 15 65v18l5 5 5 5-5 102c-3 56-12 129-21 162-8 32-27 81-42 108a440 440 0 01-198 174c-48 23-96 37-155 44-46 6-111 8-144 4-33-3-87-19-120-34l-63-30h-2m-1845-965l7-3 5-5 8-2 5-5 7-1 18-5c5-3 13-4 17-4h8l5-5 5-5 7-1c4 0 32-6 63-14 30-9 60-15 67-15h13l5-5 5-5h3l35-5 32-5 5-5 5-5h7l35-6 27-6-25 73a2846 2846 0 00-84 321v18l-5 5-5 5-1 2-5 78c-3 41-11 94-17 117-11 41-14 43-105 83-51 22-101 39-110 38-15-3-18-21-24-114-3-60-9-201-12-312l-6-202m5001 565c6-9 15-15 21-15s6 5-1 15c-6 8-16 15-21 15-7 0-6-6 1-15m-4541-335v-19c0-5 6-28 15-51 8-24 15-47 15-52v-8l5-5 5-5-1-8c0-4 15-50 33-102 20-60 41-102 55-113l23-17 5-5 5-5 7-1 18-5c5-3 13-4 17-4h8l5-5 5-5h6l135-35c71-20 133-35 139-35h10l5-5 5-5 7-1c4 0 32-6 63-14 30-9 58-15 62-15h8l5-5 5-5h5l207-55c111-31 210-55 221-55 16 0 17 5 11 42-4 23-13 58-21 76l-13 38v4l5 5 5 5 14-6c9-3 18-10 21-15s12-9 20-9h15l5-5 5-5 7-1c4 0 21-7 38-15a874 874 0 01166-64h9l12-6 20-5 8 1h0l7-3h43c19 0 55 10 80 22a996 996 0 01127 72c12 6 23 15 23 20s2 9 5 9h5l5 5 5 5h0l5 5 5 5h6c4 0 8 2 10 5l4 5 5 5 5 5h3l10 5 7 5 5 5 5 5 30 6c17 3 33 11 35 17 3 7 5 15 5 19v8l-5 5-5 5-40-20c-22-11-42-20-46-20-3 0-34-21-69-46-35-24-77-47-94-50l-31-4-5-5-5-5h-40l-5 5-5 5h-19c-10 0-64 13-120 30l-106 30h-5l-5 5-5 5h-8c-4 0-32 9-62 20-31 10-63 19-73 19l-17 1-5 5-5 5h-10l-15 10-15 10h-10l-15 17c-8 10-15 26-15 36s-7 30-14 45c-8 15-22 60-31 102-9 41-26 108-37 148-16 53-28 76-43 82-11 4-81 13-155 19-75 6-212 26-305 45-94 19-235 53-313 75l-149 41c-3 0-3-32 1-71a767 767 0 0135-167l1-2m325-815l5-5 15-30 15-30 5-5 5-5v-3c0-1 11-22 25-45s33-42 43-42c9 0 82 29 162 65 79 36 150 68 157 70l13 5 5 5 7 2 5 5 8 3 7 2 5 5 8 3 7 2 5 5 8 3 5 5h6c3 0 22 9 41 21 25 16 31 24 21 29-7 4-72 24-143 43a20898 20898 0 01-542 137c-8 0-13-6-13-13s23-59 52-116l55-107 3-4m3315 45l-5-5-1-3-16-37c-11-24-14-53-11-92 3-31 10-65 16-75s11-22 11-26l1-7 5-5 5-5 5-7 5-10v-3l5-5 5-5 15-15 15-15 5-5 5-5 12-8c7-4 29-9 50-11s37 0 37 5-14 15-32 24c-20 9-40 31-54 60a429 429 0 00-44 182l1 38 5 5 5 5v11c0 7 7 20 16 30 10 11 30 19 50 19h44l5-5 5-5 12-5 15-5h3l5-5 5-5 6-5c4-3 9-5 12-5 4 0 19-14 34-30l28-30 5-5 5-5 1-3 6-55c4-44 2-52-12-52-9 0-31 7-48 16-30 15-30 17-12 30 10 7 22 14 26 14 5 0 9 6 9 13 0 8-9 25-19 37l-19 23-41-22-41-21-5-5-5-5-1-3-20-26a92 92 0 01-19-51c0-14 4-32 10-38l10-12 5-5 5-5 12-8c7-4 34-9 60-10l48-2 5 5 5 5h7c4 0 21 8 38 18l37 25 8 7 5 5 5 5h0l5 5 5 5v2c0 1 12 20 27 40l26 38-24 51c-13 28-43 68-67 88-24 22-66 45-98 55-46 15-63 16-93 7-20-7-58-27-84-47-26-19-47-37-47-40v-4m-2375-115l-5-5-18-10c-10-6-20-10-24-10-3 0-9 11-13 24-3 14-17 33-30 41-20 14-31 14-57 6-17-7-33-11-35-11h-3l-5-5-5-5-110-50-110-50-5-5-5-5-13-5-15-5h-2l-5-5-5-5-80-35-80-35-5-5-5-5-8-1c-4 0-26-8-49-19-22-10-44-23-47-29l-6-11 5-5 5-5v-5l2-6 90-120 88-119 5-5 5-5 5-7 5-8 70-83 70-82 5-5 5-5 5-7 5-8s15-18 35-38l35-37h0v-5c0-3 2-5 5-5h5v-5c0-3 2-5 5-5h5v-5c0-3 2-5 5-5h5v-5c0-3 2-5 5-5h5v-5c0-3 2-5 5-5h5v-5c0-3 2-5 5-5h5v-5c0-3 2-5 5-5h5v-5c0-3 2-5 5-5h5l12-9c7-5 121-6 254-3l241 7-49 99c-27 55-48 111-48 125s-12 62-27 107c-15 44-24 88-21 96 3 9 37 36 74 60 38 25 83 61 101 81l33 37 5 5 5 5 10 20 10 20 5 5 5 5 4 17 11 44c3 14 1 44-5 65a263 263 0 01-109 137c-15 8-44 17-65 21-24 4-57 1-92-9-31-9-70-25-87-36-18-11-34-19-35-19h-2m230-280v60h-10v10l-20 45-20 45h-10v10l-6 7c-2 4-18 16-35 26-17 11-51 19-79 20-27 1-55-4-62-11-9-9-6-25 15-71 15-32 27-71 27-85s10-38 23-53c21-25 32-28 96-32 40-2 76 0 81 5s10 13 10 17v7m-235-795l5-5 15-10 15-10 5-5 5-5 70-45 70-45 5-5 5-5 55-30 55-30 5-5 7-3 5-5 8-2 7-3 5-5 8-2 7-3 5-5 8-2 5-5 10-7c6-3 14-3 17 1 4 3-3 39-15 80-12 40-31 99-43 130-12 30-29 60-38 65s-95 12-192 16l-174 7 24-26c13-15 25-26 27-26h4"/>
    <path d="M7725 8725l5-5 7-4 79-35c57-25 86-31 140-31 38 0 85 4 106 10 22 6 50 26 71 51 22 26 45 70 63 127 23 70 28 103 27 172l-2 87-1 3-5 5-5 5v10c0 6-5 19-10 30-6 10-10 21-10 24v6l-5 5-5 5v3l-5 10-5 7-5 5-5 5-21 22c-12 12-23 26-25 30l-4 8h0-7c-4 0-9 2-12 5-3 2-9 5-13 5h-8 0l-82 21c-61 15-98 19-143 15l-63-6h-2l-5-5-5-5h-4c-2 0-11-9-20-19-10-11-16-35-16-63a239 239 0 0160-166c17-17 45-34 63-38l48-11c11-3 27 10 47 39l31 45 1 3 5 5 5 5h20c6 0 7-12 3-28-3-15-12-39-19-52-7-14-29-40-49-58l-35-32-5-5-5-5-8-4-29-15c-12-6-27-11-33-11h-10l-5-5-5-5h-50l-5 5-5 5h-17c-9 0-36 19-60 43s-43 47-43 50v7l-5 5-5 5-1 2-9 23a298 298 0 005 172c8 20 27 52 42 72 14 20 27 37 29 38l4 3 5 5 5 5 25 27 25 28 10 13 10 12h0l-85 40-85 40h0v-12c0-7-19-89-42-183a917 917 0 01-41-260c0-50 5-103 11-119 6-15 34-52 62-81s68-65 90-79l40-26M8925 8775l-5-5-6-10c-3-6-7-10-9-10s-13-12-25-25l-20-25-5-5-5-5-18-22c-10-11-55-49-100-85l-82-63-5-5-5-5-45-35-45-35-5-5-5-5-2-3-85-82c-46-43-83-87-83-96s8-24 18-33 34-49 54-89c23-46 38-93 42-130l6-57h0v-60h0l-1-3-9-87c-9-78-17-100-95-255-46-94-98-202-115-240a896 896 0 00-190-259c-35-33-58-46-78-46-15 0-62 9-103 20s-99 30-129 41l-103 39-47 20-5 5-5 5h-6c-4 0-10 2-15 5l-9 5-5 5-5 5-43 37c-24 21-51 54-60 74-13 27-17 63-17 142 0 86 4 116 21 159 17 41 22 73 22 143 0 67-5 105-22 153a647 647 0 01-75 149l-6 13-5 5-5 5-31 34c-17 19-68 53-112 75a1360 1360 0 01-280 101h-7l-5 5-5 5-8-1-86 11a630 630 0 01-348-51c-20-11-48-34-62-52-13-18-33-62-45-97a7173 7173 0 01-86-325c-7-33-24-99-39-145-14-47-38-135-52-195-17-71-27-139-27-191 0-66 4-91 25-135 13-30 44-76 67-102a1107 1107 0 01251-193c27-13 59-24 72-24 12 0 28-9 34-19 7-10 45-31 85-46 40-14 113-33 163-40 50-8 98-17 107-20 9-4 20-15 25-26a514 514 0 01130-129c12 0 14-7 9-27-3-14 0-47 8-72 8-26 17-94 20-151 2-58 1-157-3-220-4-64-15-145-24-180l-37-160a818 818 0 014-405c15-55 42-132 61-171 18-40 43-81 54-93l22-21h8c5 0 26 12 47 28 22 15 73 46 114 67 42 22 92 56 112 76 27 27 39 34 48 25 8-8 19-6 41 7a819 819 0 00209 70c10-3 28 0 41 7 12 6 49 20 83 29a5114 5114 0 01327 114c30 13 86 31 125 41 38 9 98 29 133 46 35 16 71 30 80 30s28 9 42 20c13 10 30 19 36 19 7 0 26 12 43 27a323 323 0 0181 117v7h0l-73 9a1394 1394 0 00-188 39 1338 1338 0 00-94 36c-31 13-67 37-80 52-14 16-33 47-44 69-10 22-26 73-35 115-8 41-23 123-31 182-9 60-16 132-16 160-1 29-3 58-5 65l-4 13 5 5 5 5v32c0 12 2 39 5 60l5 38 5 5 5 5v12a2304 2304 0 0025 125l5 23 5 5 5 5 5 27c3 15 22 51 42 80 19 30 45 58 56 64 14 8 74 9 186 5l168-6h3l5-5 5-5h29c16 0 109-14 207-30 98-17 182-30 186-30h8l25 19c15 12 25 30 25 45 0 14 10 43 24 63 13 21 27 49 30 63l6 32v8h0l-8-1c-4-1-90 2-190 5l-182 6-5 5-5 5h-8c-4 0-12 1-17 4l-18 5-7 1-5 5-5 5-20 10-20 10-5 5-5 5-15 11c-9 6-15 13-15 15s-3 4-5 4h-5l-5 5-5 5h0-5c-3 0-5 2-5 5v5h0l-5 5-5 5-35 51c-20 28-35 55-35 60v9l-5 5-5 5-7 17c-3 10-8 61-11 113-4 72-1 110 11 152l22 72 5 16 5 5 5 5 10 27c6 15 26 55 45 88 18 33 40 70 49 82l16 23 5 5 5 5 42 45a421 421 0 00191 110l39 5h8l5 5 5 5h30l16 20c9 11 28 20 41 20 16 0 23 4 19 12l-51 126c-26 63-66 153-90 200-24 48-52 98-63 111-16 20-18 28-9 43 9 14 5 29-21 76-18 33-32 64-32 70v42h0l-25-30-25-30m205-617c-10-13-5-23 10-23 8 0 15 6 15 15 0 15-16 20-25 8m-2680-498l-5-5-1-3-25-67c-20-55-24-84-24-185 0-72 6-146 15-183a534 534 0 0171-165l14-17 5-5 5-5h0l5-5 5-5v-5c0-3 1-5 3-5l10-5 7-5 5-5 5-5h0l5-5 5-5 15-10 15-10 5-5 5-5 6-5 10-5h4l5-5 5-5 20-10 20-10 5-5 5-5 65-30 65-30 5-5 5-5 15-5c9-3 25-5 37-5 17 0 18 2 8 15-7 8-15 15-17 15h-3l-5 5-5 5-15 10-15 10-5 5-5 5-79 54c-43 30-97 73-120 96s-55 70-71 104c-17 34-37 91-45 126-9 37-15 110-15 170a907 907 0 0019 202l1 8 5 5 5 5 5 19c3 11 21 33 39 49 26 22 49 32 91 37 31 4 84 4 117 1 33-4 64-6 69-6h9l5-5 5-5 45-10 45-10 5-5 5-5 12-5 15-5h3l5-5 5-5 6-5 10-5h4l5-5 5-5 35-45 35-45 5-5 5-5v-3l14-42a405 405 0 00-3-225c-13-36-25-50-57-65-30-15-59-19-124-19-47 1-100 6-118 12l-32 12-5 5-5 5-37 26c-19 14-44 45-54 67-11 23-19 56-19 73s6 36 13 42 16 12 20 12h7l5-5 5-5h7c4 0 24-4 43-10 20-6 45-19 55-31 17-19 17-21-2-47-12-16-24-38-28-49-3-12-2-24 4-28l11-5 5-5h0l5 5h7a485 485 0 01114 117c15 25 19 42 14 67-4 21-19 46-41 64-19 17-50 34-70 37a175 175 0 01-142-41l-30-24h-2l-5-5-5-5h0l-5-5-5-5v-5c0-2-5-7-12-11-6-4-21-30-34-58-15-32-24-70-24-99s8-64 19-87c11-22 38-53 60-70l41-30 5-5 7-3 5-5 8-2 5-5 15-5a816 816 0 01225 5c24 6 61 22 82 35 21 14 38 27 38 30v5l5 5 5 5h5c2 0 5 2 5 5v5l5 5 5 5h0l5 5 5 5 23 32a570 570 0 0157 102v6l5 5 5 5v5c0 4 2 10 5 15 2 4 5 13 5 19v11l5 5 5 5 6 50c3 28 2 72-1 97-4 26-18 68-31 94-14 26-40 64-60 83-19 20-58 47-86 61s-81 32-117 40c-37 8-108 14-159 14-61 0-106-5-130-15-20-8-52-27-70-41-19-14-54-53-78-86-25-33-44-61-44-64v-3m2100-420c0-6 6-10 15-10 8 0 15 4 15 10 0 5-7 10-15 10-9 0-15-5-15-10m-1403-550c-6-5-9-13-4-17 4-4 14 0 22 10 15 18 3 23-18 7m-104-32c4-19 27-22 27-4 0 8-7 16-15 16-9 0-14-6-12-12m622-343l-5-5-7-5-10-5h-3l-5-5-5-5-7-5-10-5c-2 0-3-3-3-5a365 365 0 01-34-35l-26-30-5-5-5-5-10-15-10-15-5-5-5-5-5-7-5-10v-3l-5-5-5-5-1-3-30-62c-22-45-29-75-29-115 0-31 4-72 10-92 5-20 19-47 29-60l20-26 1-2 5-5 5-5h0l5-5 5-5v-5c0-3 2-5 5-5h5l5-5 5-5h0l5-5 5-5 15-10 15-10 5-5 5-5 25-15 25-15 5-5 5-5 6-5 10-5h4l5-5 5-5 27-20c15-11 38-20 50-20 14 0 23 5 23 16 0 8-33 49-72 90-40 40-73 74-75 74h-3l-5 5-5 5-28 34-30 35-2 6v5l-5 5-5 5-12 32c-6 18-13 64-16 103-4 52-1 79 10 100 9 16 18 33 22 37l6 8 5 5 5 5 15 15 15 15 5 5 7 2 5 5 8 3 5 5h100l5-5 5-5h8c4 0 10-3 13-5 3-3 8-5 12-5h7l5-5 5-5 16-7c9-4 36-22 60-40l44-33 5-5 5-5 6-8 25-37c10-17 18-36 18-43l1-12 5-5 5-5v-8l-5-35-5-27-5-5-5-5-3-1-30-11c-19-7-52-7-100-1l-75 11-2 2h0v10c0 5-6 10-13 10l-25 5-12 5h0v24c0 13 4 27 10 31 5 3 23-4 40-16 25-18 33-19 46-9 8 7 21 26 29 41s15 37 15 48-10 25-22 31c-11 6-35 9-52 6l-34-6h-2l-5-5-5-5-7-5-9-5-18-20-16-20-5-5-5-5-5-7-5-10v-3l-5-5-5-5-1-3-15-32c-7-17-14-47-14-66 0-20 6-43 15-53l15-16 5-5 5-5 25-10 25-10 5-5 5-5h30l5-5 5-5h55c31 0 68 6 84 14 15 8 51 40 79 71s52 59 52 64c0 4 2 10 5 14l5 7 5 5 5 5 5 10c3 5 11 36 17 69 8 45 8 69-2 105a277 277 0 01-57 103l-3 3-5 5-5 5-46 31c-26 17-68 39-95 50-28 10-67 18-87 18-21-1-46-5-57-9l-23-10h-2m-320-966c0-29 23-42 44-25 20 17 3 51-24 51-15 0-20-7-20-26"/>
    <path d="M8935 7935l-5-5h-4c-2 0-16-10-30-21s-42-41-61-65l-35-44-5-5-5-5-1-3-21-47a432 432 0 0117-340c12-25 39-62 59-83l36-37 5-5 5-5 7-7 70-35c34-16 69-28 77-28h16l5-5 5-5 37-5c21-3 93-7 160-10l123-5h0l39 76a472 472 0 0161 199v45h0l-13-11a706 706 0 00-120-69h-7l-5-5-5-5h-20l-5-5-5-5-75-5a596 596 0 00-165 10l-30 5-5 5-5 5h-4l-10 5-6 5-5 5-5 5h0-5c-3 0-5 2-5 5v5h0l-5 5-5 5-10 12c-6 6-10 37-10 69a366 366 0 0075 222l5 7 5 5 5 5v4a118 118 0 0086 46c18 0 51-8 74-17 22-9 44-24 50-34 5-10 10-27 10-39v-20l-5-5-5-5v-20c0-6-2-11-3-12-1 0-13-9-25-20l-22-18-5 5-5 5-42 17c-23 9-59 17-81 17-23 0-42-6-48-15-5-8-6-26-3-39 3-14 12-36 20-49s30-30 49-37c20-9 67-14 112-14 42 0 98 5 123 10l62 15 18 5 5 5 5 5 25 10 25 10h0v13c0 7-7 35-15 63-9 28-29 80-45 117-17 36-30 77-30 90 0 15-10 31-25 41-14 9-25 20-25 26v10h0-5c-3 0-5 2-5 5 0 2-5 5-10 5h-20l-5 5-5 5-28 2-132 2c-58-1-122-6-143-13l-37-11M1770 6950v-10h10l12-3 5 5 3 8 2 12-5 5-7 3h-15c-3 0-5-3-5-5v-5M2700 6745l-10-5h-5c-3 0-5-3-5-5v-5l-5-5-5-5v-20l5-5 7-3h5l8 3 5 5h0v5c0 2 2 5 5 5h5v5c0 2 2 5 5 5h15l-15 15-15 15M8415 6725l-5-5v-4c0-3 6-7 15-10 8-3 15-11 15-16 0-6-9-10-19-10-11 0-25-7-32-16-9-11-14-63-16-170l-3-154 5-5 5-5h3c2 0 7-49 11-108s13-131 21-160c7-29 23-66 34-83l21-29 5-5 5-5v-5c0-3 2-5 5-5h5l5-5 5-5 60-30 60-30 5-5 5-5 16-6 57-14 64-15 23-5 5-5 7-3 5-5 8-2 5-5h30l8 7a939 939 0 0152 181v12h0-80l-5 5-5 5h-30l-5 5-5 5h-20l-5 5-5 5-45 20-45 20-5 5-5 5h-4l-10 5-6 5-5 5-5 5-35 34c-19 19-37 45-40 58l-6 30 1 8-5 5-5 5v42c0 23 6 58 13 78 7 19 28 58 47 84l42 58 8 8 5 5 5 5h0v5c0 2 2 5 5 5h5v5c0 2 2 5 5 5h5v5c0 2 2 5 5 5h5l5 5 5 5 44 32a701 701 0 0151 38h5l5 5 5 5 65 23c52 19 73 22 107 16l45-9h3l5-5 7-3 5-5 8-2 5-5 15-10 15-10 5-5 5-5h0l5-5 5-5 5-10c2-5 5-11 5-15v-5h0l25 20c19 15 25 27 22 47l-6 30-1 3h0l-5 6c-2 3-100 19-217 34-118 16-253 29-301 29l-127 1h-60l-7-5-10-5h-3M3660 6690l15-10 15-10 5-5 5-5 6-5 10-5h4l5-5 5-5h5c2 0 5-3 5-5v-5h20v-10h20l-15 28c-9 16-31 36-49 45-19 9-39 17-46 17-6 0-10-3-10-5v-5M2630 6580l10-15 10-15h5c2 0 5-3 5-5v-5h10l7 2 5 5-2 13v10h0l-5 5-5 5h-40"/>
    <path d="M8880 6515l-10-5h-23c-12 1-42-4-65-10l-42-10-5-5-5-5h-3c-2 0-14-8-28-17-13-9-39-30-57-47-29-27-32-37-32-82 0-38 6-60 24-86l25-36 1-2 5-5 5-5 7-7 48-36a492 492 0 01172-81l33-6h0l30 73c16 40 30 78 30 85v12h0l-8-5c-4-2-29-6-55-10l-47-5-5 5-5 5-26 26c-21 21-25 33-20 56l6 34v4l5 5 5 5v7c0 4 6 13 13 20 11 11 18 8 40-17l27-30 5-5 5-5 32 3 55 10 23 7h0v50h0l-10 20-10 20-5 5-5 5h0-5c-3 0-5 2-5 5v5h0l-5 5-5 5-15 10-15 10-5 5-5 5h-5c-3 0-5 2-5 5 0 2-5 5-10 5h-20l-5 5-5 5h-20M3770 6340h4c2 0 6-8 8-18s-9-43-24-75c-16-31-28-72-28-91s2-42 5-51l5-15h0l5-23 10-45 5-22h0l7-7c4-3 14-8 23-11l62-24c27-10 55-18 63-18h15l-5 30-5 30-5 5-5 5v7l-29 138-36 170c-3 22-6 50-6 62l1 23h-15c-3 0-5-9-5-18 0-10-6-24-12-30-7-7-18-12-25-12h-13M6135 6265l-5-5-5-7-5-8-15-18-15-17-5-5-5-5-11-18c-6-10-20-37-31-61s-27-78-35-120-19-82-24-89l-9-12h0v-26c0-8 11-19 25-25l25-9h0l29 51a3976 3976 0 0058 91l13 18 5 5 5 5v3a519 519 0 00128 106c25 12 60 20 89 20 30 0 58-7 76-18a341 341 0 00100-119c10-18 20-62 23-96 5-52 3-70-12-95-10-17-20-31-22-31h-2l-5-5-5-5-15-15-15-15-5-5-5-5h-5c-2 0-7-5-10-10s-21-14-41-20l-34-10-5 5-5 5-8-1c-4 0-20 14-35 30-15 17-27 39-27 48 0 10 10 29 23 43 12 13 30 31 41 39 17 14 22 11 63-35l44-49-5 50-6 52v3l-5 5-5 5v5c0 4-3 10-5 15l-5 10-5 5-5 5v3l-5 10-5 7-5 5-5 5-41 39c-25 24-55 43-76 46-19 4-45 2-57-4l-24-11h-2l-5-5-5-5-6-8a458 458 0 01-54-122v-20h5c2 0 5-5 5-10 0-6-3-10-5-10-3 0-5-3-5-5v-5h0v-19c0-11 2-32 5-48l5-36v-7h0l7-7 68-58c33-29 79-65 102-79 23-15 43-33 43-40 0-8 22-30 50-50l50-36h0l45 10c25 5 67 21 93 34 25 13 58 35 71 50 17 18 27 43 32 83 3 32 4 103 2 158-3 55-5 103-4 107l1 8-5 5-5 5v7l-5 45-5 38-5 5-5 5-20 55-20 55-5 5-5 5v3l-5 10-5 7-5 5-5 5-32 35a492 492 0 01-38 40c0 2-3 5-5 5h-9l-10 5-6 5-5 5-8 2-5 5-7 3-8 2-5 5-7 3-8 2-5 5-7 3-5 5h-20l-5 5-5 5h-30l-5 5-5 5h-18l-80-3c-44-2-71-10-92-25l-30-22M3310 6240l15-10 15-10 5-5 5-5 37-6 45-5 8 1h0l-18 20c-9 12-25 26-35 31-11 6-24 5-37-1-10-6-24-10-30-10h-10M2502 6230l-2-5-10-5v-15c0-3 6-5 15-5 8 0 15 2 15 5v25h0-20M3020 5930v-14c0-2 13-7 30-10l30-6-5 5-7 3h0l2 12-5 5-5 5h0-40M3490 5835l-10-5h0l-5-5-8-3-5-5-2-7 17-10c10-6 25-10 35-10s18 4 18 10v20h0l-5 5-8 2-5 5-7 3-5 5h-10M1900 5480l12-4c7-2 14-2 17 0l7 4h4l10 5-3 2-2 8-8 2-5 5-12-2h-10l-5-7-5-10v-3"/>
  </g>
  <g fill="#e9efff" stroke="#e9efff" stroke-width="5" fill-rule="evenodd">
    <path d="M2820 8430v-5c0-3-16-5-36-5s-49-7-65-15l-29-15-5-5-5-5h0l-5-5-5-5-7-5-10-5h-3l-5-5-5-5v-70l-5-5-5-5v-45c0-8 11-22 25-31 13-9 25-21 25-26s-5-8-10-8h-20l-5-5-5-5h0l-5-5-5-5-5-23c-3-12-5-73-5-135v-152l2-71c1-40-1-74-5-76-4-3-7-29-7-59 0-42 3-54 15-54 8 0 14-4 14-8s-11-16-25-26l-25-18-132 113c-73 63-162 143-197 180-36 36-83 75-105 86s-57 39-78 62c-20 23-52 48-71 56-19 7-44 26-55 42-12 15-21 29-21 30v3h0-39c-10 0-66-18-125-40l-106-40h0l-1-43a1461 1461 0 0115-180l6-37-5-5-5-5v-21c0-12 2-25 5-30s1-25-5-44l-10-35 5-5 5-5 4-13c2-7 7-53 10-102l11-143 5-52-5-5-5-5 4-68c3-37 5-93 5-124 0-30 3-84 7-118 5-50 11-64 25-68 10-3 19-9 19-13 0-5-5-11-11-15-7-4-9-42-5-110l6-104-5-5-5-5v-5c0-3-5-5-11-5s-27 8-47 18c-21 10-68 24-105 31s-67 15-67 17v4h-10l-5 5-5 5h-4c-2 0-5-3-8-5-3-3-8-3-12 0l-6 5-5 5-5 5-78 25c-43 14-119 36-171 49-51 14-118 36-148 50-31 14-60 26-65 26h-8 0v-4c0-2-3-6-6-8-3-3 6-51 20-107 13-56 36-124 50-151l26-50h20c5 0 38-14 72-32 34-17 118-51 187-75 69-25 176-69 238-99s126-54 142-54c20 0 35-8 45-23 9-14 24-105 39-242 14-121 32-241 40-265 8-25 17-78 19-117 3-49 11-83 26-108l22-35h10l5-5 7-3 5-5 8-2 2-8 3-2 10-5v-4c0-2 5-9 13-15 7-6 29-18 49-26 20-9 44-15 52-15h16l-5 32-15 108c-5 41-12 106-15 145l-16 218c-5 81-14 157-21 170l-15 29-3 8 5 5 5 5 1 2 6 30c2 15 7 27 11 27l92-20c46-11 134-36 194-55s117-34 128-34c10 0 36-9 58-20 21-11 52-20 68-20s39-8 51-18c14-12 23-32 26-60l5-42 5-5 5-5-10-20-10-20v-25c0-3 3-5 8-5s12-60 16-133 12-138 18-145c5-7 16-12 24-12 7 0 14-3 14-6s-8-17-17-30c-14-22-16-44-10-155l7-129h0l45-20 45-20h4c2 0 7 4 10 9 4 6 15 6 28 1l25-10h3v10h5c2 0 5-3 5-5v-5l2 2 8 1v7l-2 17a20018 20018 0 01-13 488c-7 209-7 241 7 252 12 10 17 10 27-2 7-9 19-15 27-15h54v-10h8c4 0 10-3 13-5 3-3 8-5 12-5h7v5c0 2 9 5 20 5s20-3 20-5v-5h5c2 0 5-3 5-5v-5h20c5 0 10 5 10 11 0 7 2 10 4 7 3-2 3-14 0-26l-4-22h0l5-7c3-4 10-2 16 4 8 8 23 7 57-4 26-7 78-18 117-24l92-14 23-5h0l20-10 20-10 12-3 5 5 8 3 5 5h0v5c0 2 2 5 5 5h5v5c0 2 2 5 5 5 2 0 5-3 5-5v-5h0l5-5 7-3 5-5 8-2 5-5h0l22-5c12-3 28-5 36-5 7 0 19 16 28 37 14 33 14 39 0 63-15 26-15 28 4 32 11 3 20 14 20 25 0 10 5 26 12 36 7 9 16 17 20 17h18v20h0v20h0v5c0 2 2 5 5 5h5v30l5 5 5 5h0v20l-11 15c-7 9-27 15-59 15-26 0-61 6-77 14a226 226 0 01-106 26h-17 0l-8-1-45 5-37 6-5 5-5 5-15 10-15 10h0-34c-21 0-40 7-52 20-10 11-19 17-21 15l-3-5-5-5-5-5-13 8c-7 4-28 11-47 15l-42 7h-23c-3 0-5 2-5 5v5h10l-65 15-65 15h0v-6c0-3-5-3-10 1-6 3-10 8-10 10v5h0l-32 5c-18 2-34 6-36 8a6128 6128 0 00-8 589c5 39 11 58 21 58 8 0 21-14 29-30 9-16 46-49 84-74 37-24 101-74 142-111a1832 1832 0 01266-195h4l5-5 5-5 22-17 113-74 152-99 63-40h10l12-3 5 5 8 3h0l5-5 15 11c8 6 15 19 15 30 0 10 2 19 5 19h5l5 5 5 5 20 35 20 35h0v20l5 5 5 5v18c0 10-8 25-18 34s-29 19-44 22c-14 4-31 11-37 16l-11 10h0-35c-3 0-5 2-5 5v5h0-5c-3 0-5 2-5 5v5h0l-5 5-5 5h-4l-10 5-6 5-5 5-5 5-15 10-15 10-5 5-5 5-103 75c-56 41-125 93-152 115-28 22-57 39-64 39-8 0-35 22-60 48-26 26-65 59-87 74-22 14-47 33-57 42l-17 17-5 5-10 5-3 2-7 3-5 5h0l-5 5-5 5-68 45c-37 26-82 60-100 77s-40 50-49 74c-13 35-15 71-11 211l6 170 2 3-5 5-5 5h0-5c-3 0-5 4-5 10 0 5 2 10 5 10h5l3 62c2 34 2 85 1 113l-3 52-1 3 5 5 5 5-1 7c-1 4 2 54 5 112l6 147v44l5 5 5 5v20h-10v20h10v7l-5 45-5 38h0-9c-4 0-10-3-13-5-3-3-8-5-12-5h-6m-900-1110l5-5 5-5v-30l-5-5-5-5v-3l15-157c8-86 19-180 24-210 6-31 15-113 20-184 5-70 15-134 21-142 6-7 39-22 73-33s87-22 119-26l58-5h0v-15c0-3 9-5 20-5h20l25-10c14-6 37-10 51-10 13 0 41-12 61-25 21-14 41-25 45-25h38l47-5c29-2 50 1 55 8 4 6 7 32 7 58 0 29 6 50 16 57l15 12h0v-5c0-3 2-5 5-5h5l3-5c2-3 6-5 10-5h7l-3 12 5 5 8 3v6c0 4-3 8-5 10l-5 4h0l-5 5-5 5h-40 0l-9 217c-5 120-12 260-16 313l-8 95-129 109c-70 59-128 112-128 116s-31 26-68 50-101 79-142 121l-90 92-83 78c-37 34-71 59-74 55-4-4-2-60 5-124 7-65 16-142 21-172 5-31 9-86 10-123l1-72v-5m-140-360h-5c-3 0-5-3-5-5v-5h-10l5-10 5-10h0l3-5c2-3 6-5 10-5h7l2 7 5 5 13-2v20l-8 2-5 5 3 13h-20m922-230l-7-5-5-5h-5c-3 0-5-3-5-5v-5l-5-5-5-5v-20l5-5 7-3h5l8 3 5 5h5c2 0 5 2 5 5v5h20v10l-10 15-10 15v10h-5c-3 0-5-3-5-5v-5m855-67c-11-14-5-23 15-23 12 0 19 4 15 10-8 14-25 21-30 13m-1053-453l-7-5-5-5v-15c0-3 6-5 15-5 8 0 15 2 15 5v5h5c2 0 5 4 5 10 0 5-3 10-5 10h-5 0v5c0 2-5 5-10 5-6 0-10-3-10-5v-5m944-70c-7-12 13-50 26-50 14 0 12 17-5 40-9 11-18 15-21 10M5220 8095l-10-5 10-40 10-40h0l6-5c4-3 9-5 12-5s6-3 8-5l4-5h0l14-6c9-3 18-10 21-15s12-9 20-9h15l5-5 5-5 7-1c4 0 21-7 38-15a874 874 0 01166-64h44c2 0 5-3 5-5v-5h0l7-3h43c19 0 55 10 80 22a996 996 0 01127 72c12 6 23 15 23 20s2 9 5 9h5l5 5 5 5h0l5 5 5 5h6c4 0 8 2 10 5l4 5 5 5 5 5h3l10 5 7 5 5 5 5 5 30 6c17 3 33 11 35 17 3 7 5 15 5 19v8l-5 5-5 5-40-20-40-20-5-5h0l-5 5h-5c-3 0-5-2-5-4l-5-10-5-6-5-5h0l-5 5-8-7-50-35c-23-16-55-31-72-34l-30-4-5-5-5-5h-40l-5 5-5 5h-19c-10 0-64 13-120 30l-106 30h-5l-5 5-5 5h-8c-4 0-32 9-62 20-31 10-63 19-73 19l-17 1h-10l-5 5-5 5-15 10-15 10M8325 6745l-5-5-5-23a2304 2304 0 01-25-125v-12l-5-5-5-5-5-38c-3-21-5-48-5-60v-32l-5-5-5-5 4-13c2-7 4-36 5-65 0-28 7-100 16-160 8-59 23-141 31-182 9-42 25-93 35-115 11-22 30-53 44-69 13-15 49-39 80-52a1338 1338 0 0194-36 1394 1394 0 01188-39l73-9h0l10 32c5 18 10 38 10 45s-3 13-5 13h-5v10h-20l-5 5-8 2-5 5-7 3-5 5-23 5-64 15-57 14-16 6-5 5-5 5-60 30-60 30-5 5-5 5h-5c-3 0-5 2-5 5v5l-5 5-5 5-21 29c-11 17-27 54-34 83-8 29-17 101-21 160s-9 108-11 108h-3l-5 5-5 5 3 155c2 119 7 159 18 170 8 8 17 15 21 15h8l5 5h0l5-5h5c2 0 5 3 5 8 0 4-3 11-7 15s-8 7-10 7h-3l-5-5h0l-3 7v5l3 8 5 5h3l10 5 7 5v10h20v-10h40l127-1c48 0 183-13 301-29 117-15 215-31 217-34l5-6h9c5 0 21 19 35 42 14 24 32 62 40 85 8 24 10 43 5 43s-9 2-9 5v5h0-8c-4 0-88 13-186 30-98 16-191 30-207 30h-29l-5 5-5 5h-3l-168 6c-112 4-172 3-186-5-11-6-37-34-56-64-20-29-39-65-42-80l-5-27"/>
  </g>
</svg>