<svg viewBox="0 0 1024 1024" xmlns="http://www.w3.org/2000/svg">
<path d="M530.919 90.293l-13.528 35.811c-2.892 7.65-5.78 15.297-8.67 22.947-1.026 2.712-1.596 5.494-3.578 7.377-4.672 4.433-13.057 7.254-18.672 10.373l-11.285 6.269c-1.94 1.078-6.24 2.432-7.6 4.222-1.495 1.971-.788 5.593-.788 8.32v67.898c19.43-2.43 38.861-4.858 58.291-7.287l-77.66 89.609c-6.38 7.36-14.126 14.446-18.88 23.01-10.116 18.231-20.005 36.593-30.005 54.888-9.31 17.029-18.618 34.059-27.928 51.087l83.75-3.565c21.683-.922 43.957.465 64.85-5.68 17.221-5.066 34.442-10.13 51.665-15.195 2.29-.675 9.425-1.437 11.049-3.28 1.52-1.727 1.488-8.252 1.918-10.461 8.128-41.78 18.477-87.822 42.201-123.787 17.01-25.78 39.962-48.353 60.982-70.835 8.205-8.774 16.552-17.443 24.465-26.484 2.027-2.316 4.955-4.944 6.296-7.756.865-1.817 2.075-5.28 1.537-6.893-.233-.7-5.641-3.209-6.416-3.707-5.481-3.523-10.914-7.12-16.358-10.698-15.3-10.059-30.583-20.142-45.97-30.066-11.994-7.738-23.956-15.943-36.608-22.592-13.114-6.893-27.557-11.745-41.307-17.19a5440.94 5440.94 0 00-41.751-16.335" fill="#FFDB54"/>
<g fill="#262F3D">
<path d="M1002.487 727.98c-6.672 6.288-18.821 14.725-28.425 10.888-4.823-1.926-8.943-6.157-13.337-8.885-5.162-3.206-10.014-6.413-14.39-10.686-8.731-8.528-15.342-20.987-25.653-27.663-3.466-2.244-10.23-2.725-12.635-6.308-1.077-1.608-1.178-4.046-.98-5.904.432-4.001 2.593-3.765-1.018-6.703h5.609c.108-2.167-2.055-2.346-3.667-2.067.75-3.434 1.513-16.875-4.747-10.784-5.427 5.28-2.712 14.04-6.555 19.758-2.943 4.38-10.75.834-11.804-3.984-.474-2.164 1.91-5.543 2.194-7.665.624-4.706-1.477-8.775-4.529-12.338-6.695 4.461-2.9 13.693-6.715 19.554-3.453 5.303-11.141 2.829-16.398 1.896-6.301-1.119-13.426.013-19.455-1.475-9.103-2.247-5.703-12.934-6.604-19.833-.966-7.39-8.435-17.647-6.19-25.102 2.41-8.005 16.5-9.735 23.236-11.677 15.393-4.44 37.35-5.295 48.795-17.726 9.102 10.152 16.423 21.775 25.97 31.548 10.312 10.555 21.326 20.3 31.225 31.28 10.303 11.429 20.939 22.637 30.867 34.396 4.333 5.13 8.136 10.657 12.618 15.664 3.984 4.45 8.184 8.546 2.588 13.817M544.95 530.557c4.73-2.515 5.332-.939 5.33 4.242-1.36-2.487-2.712-3.153-5.33-4.242m-40.105 100.708v-9.132c4.56-.12 1.756 7.692 0 9.132m-1.115 13.6c0-4.045-.11-7.895 1.057-11.828.612 4.286 1.78 7.996-1.057 11.827m19.607 277.792c4.188.392 10.642-2.493 14.164.793 3.619 3.377 3.329 13.205 4.186 17.766 1.416 7.538 2.671 15.102 3.864 22.677.783 4.966 1.75 10.01-3.864 11.91-8.298 2.807-20.155-1.2-28.804-1.563-17.085-.719-34.163-1.719-51.263-2.065-16.574-.336-33.185-.07-49.683 1.654-7.453.778-14.74 2.153-22.118 3.398-3.888.657-14.306 3.404-17.818.127-6.607-6.17 4.378-20.576 9.102-24.644 8.769-7.55 21.239-12.995 32.234-16.274 5.876-1.753 15.672-6.674 20.3-1.17 3.552 4.222 3.41 9.857 8.5 13.056 11.79 7.411 4.891-13.849-2.477-16.466 4.948-11.58 14.378 4.77 18.29 8.697 1.39 1.397 5.917 6.005 7.883 3.688 1.472-1.734-1.467-7.948-2.012-9.638-.828-2.568-2.922-6.474-2.32-9.259 1.09-5.039 8.158-6.412 12.391-6.831 6.565-.65 13.005 1.43 19.496 2.126 9.953 1.067 19.984 1.083 29.949 2.018M457.42 448c-12.96 1.032-26-.95-38.93.672-12.232 1.536-23.76 6.027-35.291 10.153 17.143-40.209 39.323-76.811 66.358-111.1 13.462-17.078 27.942-34.038 42.489-50.2 6.769-7.52 13.77-14.79 20.759-22.1 6.234-6.52 10.7-17.592 18.182-22.46 6.386-4.157 17.546-1.193 24.623-.935 7.999.292 17.734 1.019 25.534-1.643 5.653-1.93 7.208-7.079.132-7.249-8.346-.203-16.555.667-25.01-.115-21.908-2.024-43.026-5.351-65.11-3.464-5.06.431-11.72 2.587-16.685 1.94-3.57-.468-1.223 1.327-3.705-1.538-.95-1.096-2.095-3.672-2.377-5.128-1.58-8.177 2.909-19.862 3.983-28.094.994-7.619.114-15.992 1.973-23.411 1.694-6.752 6.855-7.652 13.212-8.374 17.39-1.974 35.137-3.025 52.605-4.513 39.866-3.396 80.998-8.518 120.593-.127 14.297 3.03 31.731 7.715 44.503 15.217 3.994 2.345 8.024 5.107 6.57 9.965-1.506 5.044-8.895 10.372-12.554 13.694-27.046 24.553-53.168 49.596-72.167 81.1-24.229 40.173-38.133 83.561-46.29 129.596-1.755 9.904-3.384 15.087-13.574 17.938-10.938 3.061-21.496 5.05-32.838 5.982-25.64 2.106-51.358 2.15-76.985 4.194m8.684-266.044c-1.964 14.624-4.624 29.216-4.886 43.955-.1 5.567-.627 8.356-6.546 9.598-6.98 1.463-14.075 2.553-21.086 4.072-33.837 7.333-67.034 16.339-100.138 26.476-32.172 9.854-63.816 20.94-96.711 28.24-14.15 3.14-30.709 5.256-43.597 12.208-13.865 7.482-12.04 19.748-13.285 33.22-1.662 18.001-7 35.43-8.877 53.424-.898 8.598-1.716 17.247-1.58 25.899.115 7.375 1.172 15.53-3.786 21.737-9.946-13.297-14.66-30.02-16.62-46.317-.954-7.922-.576-15.908-.849-23.866-.22-6.408-.077-16.6-4.25-21.952-9.074-11.629-20.873 34.975-21.996 39.952-1.887 8.377-3.443 16.823-5.323 25.201-.834 3.713-1.903 17.212-6.878 18.557-10.31 2.79-8.048-26.183-8.21-30.594-.327-8.904-.549-17.819-.34-26.73.151-6.432 1.396-13.413.657-19.848-1.814-15.802-10.7.846-13.197 6.728-6.312 14.848-9.167 30.742-14.827 45.828-.941 2.51-3.153 10.957-6.658 11.114-3.9.174-3.87-8.551-4.092-11.1-1.294-14.775-5.665-29.447-4.346-44.376 1.332-15.074 6.616-30.57 14.093-43.682 15.81-27.72 44.358-43.637 71.702-58.136 31.294-16.59 64.332-29.697 98.076-40.374 40.583-12.842 82.253-23.232 124.173-30.627 21.328-3.761 42.984-6.451 64.53-8.608 7.573-.758 15.148-1.2 22.622-2.642 2.821-.545 13-3.135 12.225 2.643m21.8-47.325c-10.692.084-21.615-5.1-32.031-7.241-12.402-2.554-24.514-6.248-36.893-8.913-24.242-5.219-48.498-10.308-72.718-15.641-10.514-2.316-21.08-4.331-31.553-6.819-11.205-2.661-23.31-5.628-34.78-2.762-17.384 4.346-24.727 23.365-31.11 38.208-4.509 10.483-8.041 22.17-15.073 31.292-2.503 3.253-6.062 7.132-10.602 6.079-8.433-1.956-7.094-13.116-6.02-19.285 1.557-8.952 3.762-17.8 5.526-26.71.711-3.597 6.223-27.137-3.617-23.492-7.3 2.703-11.161 20.508-13.924 26.868a288.896 288.896 0 01-6.533 14.03c-3.075 6.15-11.848 26.693-21.56 24.043-13.9-3.792-.568-40.333 1.8-48.035 1.3-4.228 15.429-36.29 3.504-33.67-5.079 1.118-10.026 10.551-12.616 14.461-4.592 6.936-9.17 13.92-13.492 21.026-4.446 7.309-6.716 15.627-11.126 22.829-2.32 3.79-7.055 8.841-11.677 5.332-7.207-5.466-2.935-24.481-1.673-31.671 2.347-13.368 8.18-27.073 16.181-38 12.025-16.422 34.713-21.728 53.792-24.918 24.627-4.118 49.596-2.991 74.326-.555 27.813 2.741 55.201 5.676 82.616 11.281 27.629 5.649 55.272 11.252 82.475 18.722 12.816 3.52 25.815 6.64 38.448 10.77 13.43 4.392 26.537 9.856 40.342 13.02-4.855 12.118-9.713 24.235-14.568 36.354-4.648-4.598-10.991-6.656-17.444-6.603m238.01 33.39c4.258-2.328 8.962-3.427 10.515-8.574 1.374-4.548-.973-9.701-2.095-14.067-3.14-12.224-3.966-24.886-1.188-37.254 2.655 4.052 12.594 19.641 18.639 10.204 3.646-5.693-6.124-13.881-8.976-17.883 6.258-3.862 15.195-14.226 22.406-7.976 4.66 4.041 6.634 7.932 12.913 9.897 7.623 2.385 14.8 1.839 22.585 1.18 5.45-.46 6.764-1.187 8.893 3.01 1.671 3.299 2.535 7.382 3.512 10.925 1.923 6.985 6.378 20.747 1.103 27.29-4.621 5.732-22.555.818-25.045 8.217-1.358 4.035 5.124 4.18 7.601 6.176 3.068 2.471 5.605 6.405 7.272 9.918 1.234 2.599 3.111 6.892 1.01 9.548-2.903 3.676-8.283.888-10.624-1.783-3.107-3.549-4.115-8.4-6.708-12.265-4.758-7.091-5.042-1.45-6.337 3.642-1.346 5.29-4.528 4.925-9.403 5.605-8.553 1.193-17.196 2.876-25.521 5.169-4.267 1.174-8.403 2.67-12.468 4.42-2.618 1.125-7.158 4.533-10 4.566-5.265.059-8.915-8.747-11.633-12.421 4.513-2.52 9.013-5.063 13.548-7.543m282.757 539.232c-13.15-15.786-24.539-32.935-37.513-48.859-12.797-15.705-27.601-29.437-41.963-43.662-6.778-6.714-13.272-14.079-20.753-20.027-5.582-4.44-9.876-4.508-16.59-2.542-19.076 5.587-38.5 12.313-56.553 20.65-16.81 7.764-32.122 17.734-50.353 22.063-18.608 4.42-37.956 5.84-57.028 4.744-19.563-1.124-38.013-5.194-56.617-11.176-17.619-5.666-35.99-10.614-51.058-21.844-15.797-11.772-28.002-28.704-39.31-44.63-5.726-8.06-11.41-16.528-15.267-25.665-3.347-7.93-5.535-17.288-11.542-23.751-1.473 2.088-3.306 3.88-4.055 6.332-.341 1.115 1.667 1.08 1.461 1.966-.389 1.668-2.61 3.37-3.9 4.278-4.64 3.265-4.667.666-3.45 6.771.708 3.559-.633 11.587-6.436 8.964 2.137 2.557-1.257 5.785-2.366 7.893-.763-.876-1.711-1.18-2.845-.917 2.122 4.226.869 4.338-1.188 7.694-.376.614-1.706 3.824-1.515 3.553-2.102 2.994-4.53 3.747-5.755 7.475-1.007 3.062-.75 6.428-1.871 9.485l-4.07-5.625c.276 1.475.83 3.658 1.474 4.996.405.836 2.143 2.789 2.12 3.245-.096 1.705-2.223 1.296-2.83 2.766-1.138 2.759.508 3.165-.113 5.857-.711 3.09-2.62 1.854-3.528 4.487-.172.5 1.169 2.467.956 3.546-.299 1.524-1.68 2.376-2.169 3.732-1.241 3.448-.79 5.972-2.513 9.278-.668 1.283-1.64 2.137-2.11 3.594-.413 1.282.474 4.012-.321 5.16-3.845 5.536-3.304-4-3.012-6.365 2.446-19.859 10.297-40.354 17.481-58.916 3.57-9.221 7.046-18.732 11.522-27.564 1.8-3.558 3.88-7.229 6.858-9.95 3.765-3.441 9.108-4.819 12.518-8.663-.538.606 3.697-3.401 3.02-2.084.605-1.177-.453-2.772-.077-3.911.468-1.415 1.353-1.713 2.338-2.951 1.77-2.224 3.873-3.332 1.093-6.165 4.127-.912 6.1-2.251 6.925-6.671.602-3.234-.614-3.023 1.508-5.178 2.13-2.165 3.208-.475 4.55-4.225 1.604-4.487 2.67-10.588 3.632-15.284.839-4.099-1.198-10.128 2.257-13.022 4.376-3.665 8.292-2.113 7.508-9.484-.765-7.186 1.467-11.539 3.712-18.339 4.478-13.574 6.21-27.907 10.135-41.643 8.38-29.315 23.186-55.746 39.105-81.55 14.71-23.845 35.275-44.16 55.134-63.723 5.437-5.359 10.814-10.795 15.696-16.669 4.206-5.058 6.127-11.945 10.17-16.747 2.455-2.916 7.026-4.164 10.455-5.71 5.719-2.58 12.533-5.944 18.987-5.422-2.564 8.646-3.4 18.75 4.168 25.233 9.183 7.865 17.505-.306 25.923-4.79 15.342-8.174 37.284-.67 50.662-12.922 3.188-2.918 4.076-7.58 7.387-10.305 2.431-1.998 5.89-2.505 8.626-3.994 8.314-4.525 12.35-12.808 9.113-21.959-2.959-8.365-7.556-11.266 2.677-15.505 8.306-3.44 11.464-8.622 7.704-17.848-3.585-8.796-10.151-9.809-16.365-15.565-6.019-5.576.895-12.065 5.404-16.25 5.814-5.4 6.926-10.266.185-15.88-7.06-5.88-17.137-5.674-25.366-2.767-9.306 3.287-15.437 8.75-19.375 17.603-4.01 9.013-13.95 6.498-22 3.986-7.7-2.402-9.703-7.584-14.758-13.164-5.623-6.207-17.081-.9-23.712 1.937-16.333 6.98-32.565 17.997-33.213 37.512-.386 11.636 4.535 21.527 7.094 32.45 2.34 9.988-13.706 9.2-16.485 18.863-29.643-15.692-62.655-20.494-95.79-21.562-35.22-1.137-70.945-2.048-105.863 3.507 8.106-14.12 12.386-29.606 19.437-44.113 2.03-4.177 2.905-3.82 7.385-2.558 8.605 2.424 17.146 5.136 25.734 7.632 31.373 9.12 62.129 20.108 92.464 32.142 2.948 1.17 9.53 4.419 12.114.886 2.982-4.073-3.916-9.095-6.708-11.144-12.215-8.96-27.352-14.4-41.031-20.686-29.908-13.741-63.027-20.264-94.233-30.47-67.37-22.035-137.066-38.77-207.077-49.824-17.085-2.698-34.353-3.092-51.513-5.095a193.135 193.135 0 00-45.625.1c-28.07 3.385-60.613 10.689-76.467 36.384-14.312 23.2-23.866 49.284-20.214 76.803 1.098 8.266 4.598 18.055 14.798 15.924 7.075-1.478 10.832-7.489 14.116-13.356 4.964-8.863 9.866-17.727 15.245-26.352 1.995 12.933-5.255 25.651-4.115 38.826.775 8.94 5.715 23.066 17.323 20.535 15.909-3.468 22.457-28.322 30.106-40.246.387 9.184-2.832 18.235-1.847 27.44.972 9.091 8.077 17.675 18.055 16.429 9.411-1.175 15.527-11.258 19.525-18.849 5.562-10.564 9.558-21.89 14.99-32.524 5.093-9.967 11.124-21.834 23.281-23.707 10.85-1.673 23.283 2.2 34 3.796 29.728 4.43 58.856 11.974 88.258 18.068 31.526 6.533 63.796 10.501 94.35 21.043-10.743 14.623-38.857 11.463-54.861 13.033-24.186 2.372-48.681 4.158-72.73 7.658-23.75 3.457-47.005 9.593-70.57 14.048-23.442 4.432-46.844 8.87-69.526 16.428-42.115 14.033-84.932 31.791-122.037 56.275-17.265 11.393-32.601 24.414-43.266 42.397-10.733 18.095-15.89 38.557-17.857 59.372-1.224 12.96.855 24.178 3.366 36.792 1.819 9.133 2.407 24.424 9.73 31.112 13.977 12.764 25.582-39.01 28.163-45.264 1.858 10.248-1.18 67.98 21.245 63.285 10.01-2.094 12.28-15.832 13.94-24.107 3.028-15.084 5.74-30.472 10.919-45 3.324 19.575 4.71 39.968 11.871 58.664 4.757 12.416 18.328 34.447 27.79 13.191 7.098-15.941 4.662-34.238 5.514-51.163.942-18.755 6.327-36.846 8.233-55.417.74-7.195.07-15.303 7.3-19.23 6.206-3.369 15.282-4.466 22.059-6.347 20.071-5.573 40.274-10.695 60.25-16.608 19.986-5.916 39.694-12.828 59.413-19.574 18.858-6.452 38.114-10.12 57.201-15.644 10.853-3.142 21.574-6.428 32.578-9.051 5.12-1.22 10.305-2.17 15.414-3.434 3.787-.935 8.777-4.466 12.671-4.404 4.008.066 5.514 3.458 10.11 3.725 4.947.286 9.977-.806 14.897-1.183 11.986-.92 24.727-2.406 36.686-.745-7.187 8.525-16.894 14.419-25.402 21.48-9.812 8.145-19.308 16.94-27.689 26.558-16.863 19.353-32.802 39.81-47.61 60.775-14.606 20.684-26.366 43.317-36.59 66.441-5.095 11.523-10.041 23.298-13.56 35.41-1.446 4.975-2.627 9.969-5.237 14.494-2.394 4.15-5.768 7.728-2.938 12.74 1.949-1.22 3.699-2.736 5.46-4.2-2.035 14.34-6.429 28.214-8.688 42.512-2.226 14.086-2.136 28.573-1.992 42.799.303 29.793 2.519 58.91 8.562 88.134 6.112 29.55 13.964 58.875 23.865 87.38 9.53 27.447 19.094 56.23 32.398 82.099 14.209 27.63 31.112 56.68 51.679 80.068-13.435 5.503-30.532 4.474-44.758 6.69-14.87 2.317-27.734 6.69-40.407 14.919-12.82 8.327-19.78 19.046-21.553 34.229-1.259 10.805-5 25.766 9.177 28.605 10.196 2.041 21.595-1.312 31.812-2.141 17.873-1.449 35.771-2.354 53.683-3.135 17.865-.78 35.734-1.466 53.605-2.02 8.405-.26 16.815-.391 25.218-.693 3.766-.134 6.05-.193 9.426.896 2.67.861 2.474 2.65 5.447.439 4.795-3.566 3.808-14.81 3.674-19.752-.204-7.63-.927-15.346-2.415-22.83-.883-4.448-11.603-33.117-3.267-34.324-9.684-10.641-13.551-25.836-17.901-39.173-5.45-16.71-10.235-33.372-13.99-50.558-8.023-36.711-11.568-73.822-11.568-111.384 37.187 22.922 76.532 35.338 120.333 36.722 43.547 1.377 91.388-2.199 132.739-16.686 19.149-6.71 36.301-15.52 52.719-27.39 5.884-4.254 12.189-13.89 19.912-13.724 9.218.198 19.54 3.686 28.693 5.179 17.505 2.853 40.352 4.463 55.173 15.291 8.05 5.882 13.82 14.114 21.004 20.89 5.465 5.156 12.692 7.956 18.116 13.112 5.852 5.562 3.528 12.83 13.232 13.28 8.295.383 17.39-2.954 24.544-6.871 14.272-7.816 29.472-24.497 16.28-40.33"/>
<path id="ball1" d="M871.487 335.516c20.887 14.836 44.845 24.972 66.672 38.334 5.464 3.344 22.485 10.288 22.32 16.492-.096 3.627-5.21 8.175-7.45 10.69a254.581 254.581 0 00-10.989 13.213c-16.208 20.86-31.471 41.919-49.038 61.732-2.645 2.98-10.612 17.21-13.184 10.143-1.166-3.205-.205-6.806-3.244-9.793-1.563-1.54-7.607-2.387-5.846-5.688 1.173.527 2.347 1.056 3.522 1.583-.912-2.638-.845-5.528-2.212-8.021-.85-1.55-2.51-2.283-3.085-4.027-.796-2.41.553-5.211.327-7.696-.222-2.477-1.506-4.82-2.273-7.157-4.545-13.856-6.176-27.824-8.503-42.12-2.303-14.146-5.89-27.849-7.297-42.152-1.488-15.108-3.31-30.185-5.743-45.172 4.341.61 7.678 5.327 10.749 7.994 4.827 4.19 10.067 7.946 15.274 11.645M855.113 481.78a8.28 8.28 0 01-2.34-2.884c10.238-5.071 4.06 3.58 2.34 2.884m-6.226-10.816c-4.462 1.23-7.668 1.479-11.109-.357-.326-.174.05-1.516-.539-1.791-.514-.24-1.3.057-1.74-.168-1.498-.762-4.121.908-4.376-2.01 5.695-1.742 11.295-4.959 17.308-5.5 8.356-.753 7.97 7.754.456 9.826m-19.55-16.817c-6.09 1.424-11.105 4.749-17.574 3.88-6.073-.813-11.35-3.962-16.14-7.59 11.983-3.393 24.55-4.005 36.523-7.287 3.898-1.068 9.02-3.885 13.222-2.75 4.667 1.262 4.962 5.634 6.36 9.612-7.47 1.344-14.996 2.406-22.392 4.135m-38.08-16.882c-5.85 1.398-11.83 4.454-16.72-.82-.79-.851-1.48-.001-1.387-2.623.097-2.765 2.607-4.545 4.765-5.519 5.074-2.288 12.187-.809 17.576-1.145 8.597-.535 17.347-2.322 25.85-3.697 5.887-.952 11.969-3.065 17.986-2.648 4.646.322 10.25 4.281 3.48 7.17-6.166 2.631-15.411 2.228-22.091 3.367-9.875 1.685-19.715 3.587-29.46 5.915m-5.713-27.52l1.136 1.16c-.062-.015 2.243-1.882 2.854-1.936 2.965-.258 5.948-.054 8.918-.221 6.844-.386 13.741-1.579 20.462-2.892 5.475-1.07 11.052-2.913 16.688-2.45 4.879.399 5.392 1.398 5.71 6.107-12.453 0-25.282-.263-37.522 2.374-7.968 1.715-16.75 6.824-20.741-2.386l2.495.245m7.786-19.934c3.088 2.352 11.507-1.56 15.208-1.95 4.02-.426 7.801-.867 11.696-1.868 3.454-.89 14.88-5.328 17.53-1.083 4.062 6.504-12.384 7.697-14.991 8.02-10.934 1.35-22.28 2.548-32.919 5.416l3.476-8.535m14.998-22.091c.799 3.006 25.526-8.072 25.977-.02.346 6.177-24.465 9.254-28.926 8.712 1.045-2.844 3.824-5.392 2.95-8.692m8.302-18.897c.526-6.064 1.339-6.029 6.202-6.6 3.709-.436 8.806-2.61 7.841 4-.826 5.66-14.572 8.719-14.043 2.6m8.838-20.864c1.17-3.256 3.804 1.126 3.859 2.782.147 4.405-3.193 3.452-6.408 3.452a152.263 152.263 0 002.549-6.234m40.698-24.438c-.656-.79-4.337-1.091-5.385-1.474-2.576-.945-2.21-2.957-5.507-.972-.165-.167.149-1.659-.03-1.727-.091-.035-2.4-.907-3.151-1.388-1.812-1.16-3.444-2.295-5.108-3.75-1.77-1.547-3.541-3.791-5.563-5.023-.852-.518-1.549-1.254-2.576-1.413-2.665-.411-1.902 1.446-4.232 1.814-1.435.228-2.48-1.448-4.357-.726-1.622.624-2.564 2.899-3.287 4.253-2.627 4.927-4.654 10.23-7.226 15.21-13.154 25.463-28.104 49.96-40.845 75.66-6.137 12.382-12.54 24.85-16.86 38.007-3.114 9.49-10.147 23.353-4.096 32.836 4.4 6.894 13.209 9.871 20.237 13.203 10.576 5.013 20.325 11.565 31.017 16.425 12.75 5.796 25.131 11.858 37.56 18.33 5.3 2.76 10.082 6.735 15.365 9.35 3.23 1.598 8.22-1.13 9.273 2.535 4.05-4.905 10.604-1.635 15.29-5.088 2.755-2.032 4.77-6.034 7.067-8.536 3.448-3.75 7.19-7.23 10.709-10.916 13.962-14.639 26.855-29.885 39.558-45.608 12.133-15.014 26.308-29.2 36.557-45.635 4.07-6.524 4.808-13.366 2.122-20.574-1.961-5.258-6.686-13.197-13.435-9.716 2.56-4.25-7.312-8.787-10.307-9.618-.045-.012-.635 3.253-1.47 3.171.297.03-2.51-7.232-3.743-8.164-3.66-2.77-8.114-6.002-12.108-8.283-3.664-2.091-7.53-3.127-11.079-5.468-4.302-2.835-8.25-6.199-12.569-9.016-4.17-2.72-8.816-5.934-13.424-7.804-3.996-1.622-7.584-1.94-11.18-4.597-4.447-3.29-8.326-5.52-13.456-7.787-4.437-1.96-10.587-3.672-13.761-7.51" />
<path id="ball2" d="M260.431 697.345c.816-1.916 1.63-3.833 2.446-5.748 1.008 3.34 1.29 5.002-2.446 5.748m1.086 8.852c-1.768.316-1.071-5.23-1.071-6.195 3.053 1.728.525 3.8 1.071 6.195m-2.756-15.997l4.52-2.67c-2.098 3.888-1.274 1.459-.409 4.056-1.582.454-3.121-.076-4.11-1.386m-8.931 30.387c-5.648 20.494-23.59 36.657-42.538 45.03-10.89 4.808-21.595 6.012-33.353 5.476-4.536-.207-9.872-1.68-14.237-1.406-3.36.21-3.209.357-5.992 3.201-1.232-2.267-.34-3.859-2.81-5.179-3.082-1.647-4.361.271-5.89 2.552-2.001-2.074-2.82-3.157-5.413-4.388.082.04-2.481-.059-2.376-.026-.464-.143-3.252-1.936-4.125-2.262-3.582-1.344-7.723-1.896-11.028-3.824-2.892-1.683-5.273-6.41-8.58-2.778-.004-6.068-8.178-8.585-12.009-11.763-5.987-4.966-10.746-12.32-13.73-19.433-3.183-7.585-4.246-14.857-5.735-22.674-1.04-5.462-7.855-13.358-3.763-18.869.975 2.311.518 4.678 2.137 6.773 1.457-2.808 2.258-5.95 2.917-9.023.324-1.505 2.198-5.924 1.985-7.236-.433-2.684-3.755-2.83-1.913-6.12 3.82 4.157 6.904-3.144 4.017-6.054-1.425 1.608-1.948 3.434-2.605 5.424-3.757-7.583 6.64-5.141 4.366-11.987 3.794-.73 5.976-1.687 7.419-5.436 1.604-4.172.424-5.082 4.067-7.839 1.253-.947 4.797-2.31 5.446-3.869 1.255-3.012-1.938-3.906.858-6.728.945 1.657 4.626 4.937 6.641 1.815.404-.622-1.29-1.063-.058-2.497 1.826-2.122 3.869-4.203 6.957-3.757-2.445-6.114 13.18-6.597 17.182-8.04 4.01-1.444 7.413-2.393 11.665-2.728 4.248-.335 4.46-1.58 8.056-4.137.305 3.659 1.185 2.854 3.786 3.5.625-1.073 1.267-1.194 1.922-.361.653.62 1.452.912 2.393.877 1.428.074 3.049-.112 4.545-.082 3.514.069 7.138-.224 10.585-.15a7.016 7.016 0 002.498-.928c.325.612.651 1.225.975 1.839 1.826.229 1.967 2.517 4.213.015.664 3.18 2.573 1.525 4.59 2.388 1.84.788 2.132 2.048 3.83 2.926 1.116.905 2.313 1.025 3.592.362 1.217.902 2.453 1.778 3.706 2.627 2.31 1.304 5.032 2.103 7.466 3.133 1.619.668 3.228 1.363 4.823 2.083.048 1.926.913 2.607 2.591 2.04 1.517 1.27 1.944 1.22 3.416 3.381 3.335 4.898 6.293 8.703 10.504 13.08 18.305 19.033 23.93 45.94 17.007 71.052m5.618-80.929c-8.264-11.067-19.962-23.74-30.474-30.728-5.327-3.545-12.806-9.906-19.322-11.78-1.545-.444-3.143-.473-4.662-.94-1.173-.36-1.811-1.563-3.149-1.78-.936-.152-1.039 1.942-2.033 1.75-2.078-.405-3.395-2.467-4.863-3.757-3.152 5.431-4.863-3.703-9.491 2.438-5.509-8.637-18.45-6.749-27.246-6.313-2.608.128-3.834 1.056-6.147 1.744-2.152.64-2.365.475-4.715.458-5.854-.045-11.051.69-16.462 3.261-9.09 4.318-17.435 11.047-26.07 16.25-9.65 5.817-18.348 13.22-25.73 21.726-26.69 30.758-33.826 75.652-12.545 111.31 33.802 56.631 120.993 62.683 170.4 24.257 38.17-29.689 52.697-87.48 22.509-127.896" />
<path id="shape1" class="hero-elem" d="M673.822 480.293c-.95 2.263-9.808 1.5-10.002-1.168-.288-3.987 11.65-2.766 10.002 1.168m9.41-1.481c5.02.408 13.268 3.818 18.106 1.757 7.384-3.144-.37-7.97-4.331-9.414-4.03-1.467-10.035-.687-12.107-4.902-1.56-3.17 2.294-12.018-2.486-10.596-5.016 1.492-3.558 14.168-11.428 9.895-3.754-2.039-2.223-14.458-8.511-8.113-1.721 1.736-1.871 4.923-4.15 6.217-2.326 1.322-5.244-.055-7.7.06-6.5.304-8.571 6.386-1.984 8.798 2.438.893 11.628 1.983 6.06 5.967-3.507 2.51-11.299-2.757-14.311 1.612-4.14 6.001 6.95 6.137 9.928 7.932 5.048 3.04.879 10.141 1.281 15.198.617 7.727 5.105 6.112 6.736-.427 1.383-5.548-.33-13.534 8.032-11.329 13.62 3.59-7.573 20.882 2.404 25.306 6.36 2.821 7.261-12.43 7.755-15.055 1.83-9.693 7.274-7.431 15.522-7.134 9.635.347 11.961-6.78 1.757-8.822-3.255-.652-7.733.172-10.56-1.902-1.674-1.226-3.973-5.369-.014-5.048" fill="#0f97b8"/>
<path id="shape2" class="hero-elem" d="M327.47 795.473c-7.798-2.792-20.844-2.189-22.773 7.883-.808 4.216.765 8.675 3.676 11.738 3.377 3.552 8.754 3.88 8.467-2.304-.2-4.28-4.273-7.997 2.889-8.86 4.456-.536 11.047 2.796 11.269 7.72.501 11.095-18.706 11.965-25.784 10.046-14.048-3.807-10.232-18.521-.584-25.236 2.492-1.736 9.643-4.409 9.969-8.012.434-4.78-5.477-3.804-8.374-3.174-21.295 4.635-25.937 40.31-3.685 47.035 10.105 3.053 24.335-.099 30.425-9.25 5.71-8.581 5.787-23.546-5.495-27.586" fill="#0f97b8"/>
<path id="shape3" class="hero-elem" d="M45.114 542.93l-19.97 9.614c-2.2-4.708-5.918-17.572-11.5-19.214-9.034-2.66-3.281 11.362-1.722 14.568 1.281 2.634 4.253 6.714 3.531 9.853-.967 4.229-6.934 5.727-10.057 7.909-7.728 5.4-7.666 16.743 3.526 11.936 6.333-2.72 14.175-10.265 19.029-1.699 2.241 3.952 7.552 26.033 13.098 11.593 3.432-8.94-13.086-18.23-4.943-25.793 2.622-2.433 5.69-2.639 8.31-4.038 6.324-3.38 2.758-9.624.698-14.729" fill="#0f97b8"/>
<path id="shape4" class="hero-elem" d="M1021.043 222.997c-3.968-1.452-8.878-4.286-13.29-3.32-4.687 1.026-6.574 5.721-9.983 8.544-9.267 7.676-14.665-3.764-19.756-10.033-4.81-5.92-10.677-7.357-17.462-3.72-2.703 1.45-14.092 8.094-12.106 12.351 1.429 3.063 7.055.314 8.974-.355 4.167-1.45 8.036-2.72 12.297-.605 7.993 3.964 10.067 14.834 19.738 16.528 10 1.754 10.328-7.763 17.464-11.345 4.784-2.4 8.117 1.85 12.732 1.003 4.398-.806 6.433-7.206 1.392-9.048M940.31 261.348c3.537.768 5.845-6.091 8.059-7.831 3.672-2.884 10.039-3.466 13.778-.563 7.303 5.666 4.786 17.899 15.184 21.087 9.293 2.85 13.67-9.389 21.494-12.436 4.548-1.772 9.54-2.932 7.765-9.29-1.225-4.397-4.836-5.526-8.762-3.837-6.748 2.9-9.038 14.714-17.037 14.925-8.276.219-9.174-11.712-12.727-16.909-5.417-7.92-16.552-9.834-22.88-2.26-1.91 2.285-11.61 15.656-4.874 17.114" fill="#0f97b8" />
<path d="M776.719 126.096c4.92 3.366 14.724 3.25 19.256-.925 4.613-4.248-1.544-4.901-5.301-4.771-2.89.1-8.3 1.533-6.653-3.459 1.462-4.428 9.496-2.174 10.166-7.035-6.046-1.085-12.706-.694-17.178 4.058-3.234 3.435-4.895 8.98-.29 12.132"/>
</g>
</svg>