<svg xmlns="http://www.w3.org/2000/svg" xmlns:xlink="http://www.w3.org/1999/xlink" version= "1.1" viewBox="0 0 845 1024" class="logo">
	<g id="layer1" fill="#92aabf" style="transform: translateY(23%)">
		<path id="eye1" d="M300.54337,-225.99895C275.82663,-225.11752,236.92603,-224.86774,216.64096,-224.79694C208.77682,-224.76947,203.71039,-224.76897,203.35294,-224.76897L203.33269,-224.76897C202.86238,-224.76901,202.39381,-224.76903,201.927,-224.76903C185.07603,-224.76903,170.47382,-224.74011,158.0533,-224.69682C120.985275,-224.56743,103.346565,-224.30966,103.346565,-224.30966C65.25105,-223.75302,43.98098,-196.76959,43.98098,-196.76959C26.464252,-174.54785,22.986908,-167.07803,22.830177,-103.35803L22.703129,-51.778603L201.37444,-50.737328L385.68304,-50.996265L385.59296,-73.535225L385.30368,-146.11166C385.1618,-149.26724,386.23093,-177.71857,366.07578,-201.26303C345.9213,-224.80746,300.54337,-225.99895,300.54337,-225.99895 Z" />
		<path id="eye2" d="M546.3915,-224.27931C546.3915,-224.27931,501.00793,-223.67636,480.6961,-200.39427C460.3841,-177.11226,461.2631,-148.64835,461.10013,-145.49472L461.09625,-145.14268L461.08762,-145.1411C461.08743,-145.13425,461.08707,-145.12572,461.08688,-145.11703L461.09607,-145.11708L460.32498,-72.925156L460.08414,-50.38839L644.3834,-47.739048L823.0555,-46.462955L823.27374,-98.04185C823.5418,-161.76125,820.1149,-169.27592,802.748,-191.72388C802.748,-191.72388,781.6588,-218.98201,743.5686,-220.0327C743.5686,-220.0327,711.69476,-220.91199,643.5899,-221.7887C643.5899,-221.7887,581.0413,-222.59387,546.3915,-224.27931 Z" />
		<path id="ds" d="M207.50171,358.43448C209.71585,358.43448,214.57275,360.67273,224.49866,366.09937C260.949,386.02676,306.3585,401.321,346.95557,408.00522C353.79788,409.1317,361.76938,410.48746,364.6,410.8491L369.7596,411.73434L358.9187,445.471C353.06567,463.9192,344.69507,490.6979,340.3194,504.806C324.5386,555.6858,314.73904,580.85364,280.36832,597.90576C270.01572,603.04175,260.29538,605.1328,246.71155,605.36206C245.96689,605.3745,245.2456,605.38074,244.54626,605.38074C231.30391,605.38074,225.9124,603.19006,218.31479,601.1199C187.57275,592.7418,169.07996,572.9514,160.4165,538.35376L160.419,538.35376L160.42212,538.35205C156.08914,521.4696,155.3513,483.123,158.84134,462.97678C163.1362,438.1849,175.83229,408.35724,196.06682,374.98505C200.75224,367.2579,205.24988,360.09732,206.23094,358.91428C206.4909,358.60083,206.8981,358.43448,207.50171,358.43448 Z M56.390198,23.567516C37.32799,23.567516,23.81388,23.87799,23.510296,24.470442C22.387161,26.660866,25.348701,60.1632,28.616665,80.70784C36.956787,133.1382,54.28578,182.82501,79.35443,225.43242C85.270096,235.48663,90.17053,244.21399,90.16391,244.88065C90.158844,245.38074,86.000374,252.22577,80.67487,260.12433C42.676315,316.4823,15.642801,394.52118,9.598925,464.82007L9.602051,464.82013L9.604832,464.82013C4.325697,525.95496,15.251717,589.0591,39.871265,639.34863C76.52184,714.2146,147.81226,765.7986,230.7283,776.97156C246.25656,779.0641,261.03452,780.1167,275.12686,780.1167C320.419,780.1167,358.63046,769.24365,391.91583,747.073C436.55875,717.3375,466.04898,668.61694,498.71667,570.5792C523.8009,495.30048,534.4551,470.61697,549.4155,452.37808C564.16095,434.40137,575.3303,427.71957,594.0266,426.14822C596.4425,425.94525,598.8388,425.84445,601.2113,425.84445C622.2651,425.84445,641.4542,433.7794,655.9902,448.60895C673.15454,466.1201,679.31146,484.52142,680.44293,520.87866C681.33057,549.39734,679.0139,565.8877,671.1027,587.9758C664.4356,606.5896,658.2407,619.3346,642.66046,647.8788C629.3686,672.2307,626.5505,682.0476,629.1859,694.92737C632.9088,713.12244,640.4455,719.3816,696.48926,750.28625L739.2684,773.8889L747.35657,765.2999C771.4557,739.532,798.3875,688.3048,811.4288,643.5646C832.7439,570.4404,833.1743,483.40295,812.4753,422.16446C795.1196,370.81644,766.38556,329.50412,725.3606,297.24945L718.41376,291.67813L730.228,277.29114C760.43695,240.747,780.57825,203.91248,797.9764,154.75894C809.7452,121.508255,816.9892,87.42521,821.6068,42.455593L822.88727,31.13118L768.04004,30.582584C757.9817,30.481987,749.41895,30.413559,742.0851,30.413559C704.08044,30.413559,699.0731,32.25114,689.9091,40.9717C683.50397,47.067364,675.63513,62.04609,664.76,88.40354C646.92944,131.61722,624.05133,159.20879,586.4507,183.32072C545.1106,209.83072,489.35907,223.87892,426.2668,223.87892C424.84445,223.87892,423.41833,223.8718,421.9886,223.85748C297.4581,222.61186,212.38007,172.59573,177.83643,80.532875C174.70392,72.184044,171.20589,63.278343,169.86769,60.44638C168.59349,57.74996,166.14557,52.391415,164.48305,48.72158C162.8827,45.18954,158.6157,39.28543,155.10912,35.790073C144.25334,24.969858,139.21846,24.293825,78.03671,23.682047C70.363,23.605276,63.039146,23.567516,56.390198,23.567516 Z"/>
	</g>
</svg>