<?xml version="1.0" encoding="utf-8"?>
<svg viewBox="0 0 410.8 500" xmlns="http://www.w3.org/2000/svg">
  <g>
    <g id="layer1" fill="#92aabf" transform="matrix(0.488157, 0, 0, 0.488157, 1.346269, 113.751717)">
      <path id="eye2" d="M 528.858 -220.498 C 528.858 -220.498 501.008 -223.789 480.696 -200.507 C 460.384 -177.225 461.263 -148.761 461.1 -145.608 L 461.096 -145.256 L 461.088 -145.254 C 461.087 -145.247 461.087 -145.239 461.087 -145.23 L 461.096 -145.23 L 460.325 -73.038 L 460.084 -50.501 L 644.383 -51.009 L 823.475 -50.365 C 824.052 -58.147 824.963 -98.18 824.957 -98.155 C 825.225 -161.874 817.588 -175.073 800.221 -197.521 C 800.221 -197.521 781.659 -219.095 743.569 -220.146 C 743.569 -220.146 711.695 -221.025 643.59 -221.902 C 643.59 -221.902 563.508 -220.76 528.858 -220.498 Z"/>
      <path id="ds" d="M 207.502 358.434 C 209.716 358.434 214.573 360.673 224.499 366.099 C 260.949 386.027 306.359 401.321 346.956 408.005 C 353.798 409.132 361.769 410.487 364.6 410.849 L 369.76 411.734 L 358.919 445.471 C 353.066 463.919 344.695 490.698 340.319 504.806 C 324.539 555.686 314.739 580.854 280.368 597.906 C 270.016 603.042 260.295 605.133 246.712 605.362 C 245.967 605.375 245.246 605.381 244.546 605.381 C 231.304 605.381 225.912 603.19 218.315 601.12 C 187.573 592.742 169.08 572.951 160.417 538.354 L 160.419 538.354 L 160.422 538.352 C 156.089 521.47 155.351 483.123 158.841 462.977 C 163.136 438.185 175.832 408.357 196.067 374.985 C 200.752 367.258 205.25 360.097 206.231 358.914 C 206.491 358.601 206.898 358.434 207.502 358.434 Z M 56.39 23.568 C 37.328 23.568 23.814 23.878 23.51 24.47 C 22.387 26.661 25.349 60.163 28.617 80.708 C 36.957 133.138 54.286 182.825 79.354 225.432 C 85.27 235.487 90.171 244.214 90.164 244.881 C 90.159 245.381 86 252.226 80.675 260.124 C 42.676 316.482 15.643 394.521 9.599 464.82 L 9.602 464.82 L 9.605 464.82 C 4.326 525.955 15.252 589.059 39.871 639.349 C 76.522 714.215 147.812 765.799 230.728 776.972 C 246.257 779.064 261.035 780.117 275.127 780.117 C 320.419 780.117 358.63 769.244 391.916 747.073 C 436.559 717.338 466.049 668.617 498.717 570.579 C 523.801 495.3 534.455 470.617 549.416 452.378 C 564.161 434.401 575.33 427.72 594.027 426.148 C 596.443 425.945 598.839 425.844 601.211 425.844 C 622.265 425.844 641.454 433.779 655.99 448.609 C 673.155 466.12 679.311 484.521 680.443 520.879 C 681.331 549.397 679.014 565.888 671.103 587.976 C 664.436 606.59 658.241 619.335 642.66 647.879 C 629.369 672.231 626.551 682.048 629.186 694.927 C 632.909 713.122 640.446 719.382 696.489 750.286 L 739.268 773.889 L 747.357 765.3 C 771.456 739.532 798.388 688.305 811.429 643.565 C 832.744 570.44 833.174 483.403 812.475 422.164 C 795.12 370.816 766.386 329.504 725.361 297.249 L 718.414 291.678 L 730.228 277.291 C 760.437 240.747 780.578 203.912 797.976 154.759 C 809.745 121.508 816.989 87.425 821.607 42.456 L 822.887 31.131 L 768.04 30.583 C 757.982 30.482 749.419 30.414 742.085 30.414 C 704.08 30.414 699.073 32.251 689.909 40.972 C 683.504 47.067 675.635 62.046 664.76 88.404 C 646.929 131.617 624.051 159.209 586.451 183.321 C 545.111 209.831 489.359 223.879 426.267 223.879 C 424.844 223.879 423.418 223.872 421.989 223.857 C 297.458 222.612 212.38 172.596 177.836 80.533 C 174.704 72.184 171.206 63.278 169.868 60.446 C 168.593 57.75 166.146 52.391 164.483 48.722 C 162.883 45.19 158.616 39.285 155.109 35.79 C 144.253 24.97 139.218 24.294 78.037 23.682 C 70.363 23.605 63.039 23.568 56.39 23.568 Z"/>
      <path id="eye1" d="M 87.648 -51.769 C 87.648 -51.769 59.798 -48.478 39.486 -71.76 C 19.174 -95.042 20.053 -123.506 19.89 -126.659 L 19.886 -127.011 L 19.878 -127.013 C 19.877 -127.02 19.877 -127.028 19.877 -127.037 L 19.886 -127.037 L 19.115 -199.229 L 18.874 -221.766 L 203.173 -221.258 L 382.265 -221.902 C 382.842 -214.12 383.753 -174.087 383.747 -174.112 C 384.015 -110.393 376.378 -97.194 359.011 -74.746 C 359.011 -74.746 340.449 -53.172 302.359 -52.121 C 302.359 -52.121 270.485 -51.242 202.38 -50.365 C 202.38 -50.365 122.298 -51.507 87.648 -51.769 Z" transform="matrix(-1, 0, 0, -1, 402.627823, -272.266998)"/>
    </g>
  </g>
</svg>