<svg xmlns="http://www.w3.org/2000/svg" viewBox="0 0 845 1024" class="logo"><g fill="#92aabf" style="transform:translateY(23%)"><path d="M300.543-225.999c-24.716.881-63.617 1.131-83.902 1.202-7.864.028-12.93.028-13.288.028h-1.426c-16.851 0-31.453.029-43.874.072-37.068.13-54.706.387-54.706.387-38.096.557-59.366 27.54-59.366 27.54-17.517 22.222-20.994 29.692-21.15 93.412l-.128 51.58 178.671 1.04 184.309-.258-.09-22.54-.29-72.576c-.141-3.155.928-31.607-19.227-55.151-20.155-23.544-65.533-24.736-65.533-24.736zM546.391-224.28s-45.383.604-65.695 23.886c-20.312 23.282-19.433 51.746-19.596 54.9l-.004.351-.008.002-.001.024h.01l-.772 72.192-.24 22.537 184.298 2.649 178.673 1.276.218-51.579c.268-63.72-3.16-71.234-20.526-93.682 0 0-21.09-27.258-59.18-28.309 0 0-31.873-.879-99.978-1.756 0 0-62.549-.805-97.199-2.49zM207.502 358.434c2.214 0 7.07 2.239 16.997 7.665 36.45 19.928 81.86 35.222 122.457 41.906 6.842 1.127 14.813 2.482 17.644 2.844l5.16.885-10.841 33.737c-5.853 18.448-14.224 45.227-18.6 59.335-15.78 50.88-25.58 76.048-59.95 93.1-10.353 5.136-20.074 7.227-33.657 7.456-.745.013-1.466.019-2.166.019-13.242 0-18.634-2.19-26.231-4.261-30.742-8.378-49.235-28.169-57.898-62.766h.002l.003-.002c-4.333-16.882-5.07-55.229-1.58-75.375 4.294-24.792 16.99-54.62 37.225-87.992 4.685-7.727 9.183-14.888 10.164-16.07.26-.314.667-.48 1.27-.48zM56.39 23.568c-19.062 0-32.576.31-32.88.902-1.123 2.19 1.839 35.693 5.107 56.238 8.34 52.43 25.669 102.117 50.737 144.724 5.916 10.055 10.817 18.782 10.81 19.449-.005.5-4.164 7.345-9.49 15.243C42.677 316.482 15.644 394.521 9.6 464.82h.006c-5.28 61.135 5.647 124.24 30.266 174.529 36.65 74.866 107.941 126.45 190.857 137.623 15.529 2.092 30.307 3.145 44.399 3.145 45.292 0 83.503-10.873 116.789-33.044 44.643-29.736 74.133-78.456 106.8-176.494 25.085-75.279 35.74-99.962 50.7-118.2 14.745-17.978 25.914-24.66 44.61-26.23a85.812 85.812 0 017.185-.305c21.054 0 40.243 7.935 54.78 22.765 17.164 17.511 23.32 35.912 24.452 72.27.888 28.518-1.43 45.009-9.34 67.097-6.667 18.614-12.862 31.359-28.443 59.903-13.291 24.352-16.11 34.169-13.474 47.048 3.723 18.195 11.26 24.455 67.303 55.36l42.78 23.602 8.088-8.59c24.099-25.767 51.03-76.994 64.072-121.734 21.315-73.125 21.745-160.162 1.046-221.4-17.355-51.349-46.09-92.66-87.114-124.916l-6.947-5.57 11.814-14.388c30.209-36.544 50.35-73.379 67.748-122.532 11.77-33.25 19.013-67.334 23.63-112.303l1.281-11.325-54.847-.548c-10.058-.101-18.621-.17-25.955-.17-38.005 0-43.012 1.838-52.176 10.559-6.405 6.095-14.274 21.074-25.149 47.432-17.83 43.213-40.709 70.805-78.31 94.917-41.34 26.51-97.09 40.558-160.183 40.558-1.423 0-2.849-.007-4.278-.022-124.53-1.245-209.609-51.261-244.153-143.324-3.132-8.349-6.63-17.255-7.968-20.087-1.275-2.696-3.722-8.055-5.385-11.724-1.6-3.532-5.867-9.437-9.374-12.932-10.856-10.82-15.89-11.496-77.072-12.108-7.674-.077-14.998-.114-21.647-.114z"/></g></svg>