<svg viewBox="0 0 410.8 500" xmlns="http://www.w3.org/2000/svg">
  <g id="eyeD1">
    <path id="eye1" d="M155 6s14-1 24 10 9 25 9 27l1 35v11H11V66c-1-31 3-38 12-49 0 0 9-10 27-11l49-1 56 1z"/>
  </g>
  <g id="eyeD2">
    <path id="eye2" d="M260 6s-14-1-24 10-9 25-10 27v46h177l1-23c0-31-4-38-12-49 0 0-9-10-28-11l-48-1-56 1z"/>
  </g>
  <g id="dsD">
    <path id="ds" d="M103 289l8 3c18 10 40 18 60 21l8 1 3 1-5 16-10 29c-7 25-12 37-29 46a36 36 0 01-17 3c-7 0-9-1-13-2-15-4-24-14-28-30-2-9-3-27-1-37a130 130 0 0124-51zM29 125l-16 1c-1 1 1 17 2 27a203 203 0 0030 80l-4 8C22 268 9 306 6 341c-3 30 3 60 15 85a122 122 0 00115 69c22 0 40-6 57-17 21-14 36-38 52-86 12-36 17-49 25-57 7-9 12-12 21-13h4c10 0 19 4 27 11 8 8 11 17 12 35 0 14-1 22-5 33-3 9-6 15-14 29-6 12-8 17-7 23 2 9 6 12 33 27l21 12 4-5c12-12 25-37 31-59 11-36 11-78 1-108-9-25-23-45-43-61l-3-3 6-7c15-18 24-36 33-60 6-16 9-33 11-55l1-5h-39c-19 0-21 0-26 5-3 3-7 10-12 23-9 21-20 34-38 46a145 145 0 01-81 20c-60-1-102-25-119-70a199 199 0 00-6-15l-5-7c-5-5-8-5-38-6H29z"/>
  </g>
</svg>
