<svg version="1.0" xmlns="http://www.w3.org/2000/svg" width="16px" height="16px" viewBox="0 0 5120 5120" preserveAspectRatio="xMidYMid meet">
<g id="layer101" fill="#fff" stroke="none">
 <path d="M1294 4640 c-64 -87 -131 -198 -497 -830 -132 -228 -313 -532 -401 -675 -88 -143 -164 -272 -169 -286 -9 -22 -6 -32 18 -63 38 -50 137 -123 215 -159 107 -49 220 -67 421 -67 162 0 178 2 202 20 14 11 29 31 33 43 3 12 75 207 159 432 84 226 161 436 171 468 10 31 21 57 24 57 4 0 229 -242 501 -537 756 -823 895 -969 1289 -1364 599 -600 864 -831 1203 -1046 180 -114 437 -245 437 -224 0 5 -121 145 -270 310 -1114 1241 -1757 2041 -2333 2901 -175 261 -305 450 -574 828 -194 272 -194 272 -282 272 -87 0 -87 0 -147 -80z"/>
 </g>
</svg>