<svg version="1.0" xmlns="http://www.w3.org/2000/svg" viewBox="0 0 800 80" preserveAspectRatio="xMidYMid meet">
  <path d="M9 73.4 c-1.3 -1.9 -1.9 -3.9 -1.4 -4.3 0.5 -0.4 4.9 -1.5 9.9 -2.5 5 -0.9 11 -2.1 13.5 -2.6 7.9 -1.7 26.4 -6 30 -7 1.9 -0.5 5.5 -1.4 8 -1.9 5.6 -1.4 38.2 -7 47 -8.1 3.6 -0.5 10.1 -1.3 14.5 -2 4.4 -0.6 15.7 -1.9 25 -3 9.4 -1.1 18 -2.2 19.3 -2.5 7 -1.7 45.3 -5.2 65.2 -6 19.9 -0.9 23.3 -1.4 22.5 -3.3 -0.4 -0.9 -0.7 -2.1 -0.8 -2.7 -0.1 -0.6 10.5 -1.1 29.8 -1.3 16.5 -0.1 30.6 -0.4 31.3 -0.7 1 -0.4 1 -1 0.2 -2.5 -1.1 -2 -1.9 -2 -49.3 -1.9 -43.2 0 -52.1 -0.2 -59.2 -1.6 -1.7 -0.4 -5.5 -5.1 -5.5 -6.8 0 -1.2 4.5 -2 16 -2.8 6.9 -0.5 17.9 -1.3 24.5 -1.8 6.6 -0.6 28.4 -1.8 48.5 -2.7 30.6 -1.5 59.3 -1.7 177 -1.7 87.7 0 152.1 0.4 171.5 1.2 17.1 0.6 43.8 1.3 59.5 1.6 40.9 0.8 77.7 3.2 81.8 5.4 0.9 0.5 2.5 2.3 3.5 4 1.8 3 1.8 3.1 0 3.9 -2.2 0.9 -97.7 0.9 -172.8 0 -54.7 -0.7 -56.1 -0.1 -5.5 2.1 43.2 1.9 82.8 4.7 84.6 5.9 1.6 1.1 4.6 6.3 4 6.9 -0.3 0.3 -12.6 0.1 -27.3 -0.5 -32.5 -1.2 -75 -1.4 -70.8 -0.2 1.7 0.4 7.7 0.8 13.4 0.9 10.4 0.1 18.8 0.9 40.1 3.7 21.6 2.8 31.5 4.5 37.5 6.4 3.3 1 9.8 2.4 14.5 3 18.9 2.6 23.3 3.8 26.3 7.2 1.5 1.8 2.6 3.7 2.4 4.3 -0.2 0.6 -6.5 1.1 -16.2 1.3 -14.6 0.2 -28.5 -0.8 -49 -3.8 -12.8 -1.8 -22.9 -3 -34 -4.1 -63.1 -5.7 -85.6 -7 -167 -9.9 -76.9 -2.7 -182 0.3 -249.5 7.1 -33.2 3.4 -39.9 3.9 -57.7 4.6 -12.5 0.4 -18 0.3 -20.1 -0.6 -2.2 -0.9 -4.5 -1 -8.8 -0.2 -3.3 0.5 -9.5 1.5 -13.9 2.2 -23.7 3.4 -54.9 9.4 -77.5 14.8 -10.3 2.5 -28.2 6.1 -30.4 6.1 -1.7 0 -3.1 -1 -4.6 -3.6z m446.5 -59 c28.6 -1.3 20.7 -2.1 -23.5 -2.1 -46 -0.1 -83.6 1 -58.5 1.7 6.1 0.1 21.4 0.6 34 0.9 12.7 0.4 25.7 0.6 29 0.4 3.3 -0.1 11.9 -0.5 19 -0.9z"/>
</svg>